<svg xmlns="http://www.w3.org/2000/svg" width="263.479" height="223.125" viewBox="0 0 263.479 223.125"><defs><style>.a,.f,.g{fill:none;}.a,.f{stroke:#263238;}.a,.b,.c,.d,.g,.j{stroke-linecap:round;}.a,.c,.d,.j{stroke-linejoin:round;}.b,.d,.e{fill:#001e6c;}.b,.c,.d{stroke:#001e6c;}.c,.j,.k,.l{fill:#fff;}.f,.g,.h{stroke-miterlimit:10;}.g{stroke:#ffaa4c;stroke-width:6px;}.h{fill:#ff8906;stroke-width:0.25px;}.h,.j{stroke:#1f1f20;}.i{fill:#ffaa4c;}.l{opacity:0.2;}</style></defs><g transform="translate(-405.5 -2549.638)"><line class="a" x2="262.479" transform="translate(406 2764.446)"/><path class="b" d="M5.437,0H123.382a5.437,5.437,0,0,1,5.437,5.437V185.3a5.437,5.437,0,0,1-5.437,5.437H5.437A5.437,5.437,0,0,1,0,185.3V5.437A5.437,5.437,0,0,1,5.437,0Z" transform="translate(469.1 2573.774)"/><rect class="c" width="115.723" height="179.089" transform="translate(475.645 2578.076)"/><path class="d" d="M256.759,87.179a.98.98,0,0,1-.98-.98V80.663a2.093,2.093,0,0,0-2.1-2.093h-8.922a2.087,2.087,0,0,0-2.093,2.093V86.2a.98.98,0,0,1-.986.98h0a.98.98,0,0,0-.98.986v15h17.044v-15A.986.986,0,0,0,256.759,87.179Zm-7.537-.516a2.748,2.748,0,1,1,2.748-2.748A2.748,2.748,0,0,1,249.222,86.663Z" transform="translate(286.49 2471.568)"/><path class="c" d="M214.495,112.77H257.7a5.015,5.015,0,0,1,5.015,5.015v4.429H209.48v-4.429A5.015,5.015,0,0,1,214.495,112.77Z" transform="translate(299.609 2457.195)"/><path class="d" d="M211.76,114.4h50.577a5,5,0,0,0-3.7-1.635H215.453A4.992,4.992,0,0,0,211.76,114.4Z" transform="translate(298.652 2457.195)"/><rect class="c" width="53.238" height="3.102" transform="translate(509.09 2579.363)"/><path class="e" d="M215.107,119.952A4.248,4.248,0,0,1,219.48,116a3.577,3.577,0,0,1,2.942,1.279l-.984.894a2.486,2.486,0,0,0-1.976-.894,2.844,2.844,0,0,0-2.933,2.683,2.414,2.414,0,0,0,2.549,2.683,2.844,2.844,0,0,0,2.11-.894l.894.894a4.158,4.158,0,0,1-3.13,1.279,3.577,3.577,0,0,1-3.845-3.97Z" transform="translate(281.557 2480.167)"/><path class="e" d="M230.15,122.6l-.089,1.189H224.32l.537-7.664h5.589l-.08,1.2H226.2l-.143,1.985h3.7l-.089,1.171h-3.693l-.152,2.119Z" transform="translate(280.58 2480.152)"/><path class="e" d="M237.528,123.793l-1.4-2.245h-2.03l-.152,2.236H232.52l.537-7.664H236.2c2.012,0,3.192,1.028,3.067,2.727a2.683,2.683,0,0,1-1.788,2.423l1.592,2.513Zm-1.475-6.456h-1.663l-.215,3.049h1.663c1.252,0,1.941-.563,2-1.529S237.3,117.336,236.052,117.336Z" transform="translate(279.713 2480.153)"/><path class="e" d="M243.28,117.337h-2.54l.089-1.207h6.5l-.089,1.207H244.7l-.447,6.456h-1.422Z" transform="translate(278.844 2480.152)"/><path class="e" d="M249.237,116.13h1.422l-.528,7.664H248.7Z" transform="translate(278.002 2480.152)"/><path class="e" d="M254.479,117.328l-.161,2.325h3.7l-.089,1.207h-3.693l-.206,2.933H252.61l.537-7.664h5.589l-.08,1.2Z" transform="translate(277.588 2480.152)"/><path class="e" d="M260.937,116.13h1.422l-.537,7.664H260.4Z" transform="translate(276.764 2480.152)"/><path class="e" d="M264,119.953a4.248,4.248,0,0,1,4.382-3.944,3.577,3.577,0,0,1,2.942,1.279l-.984.894a2.486,2.486,0,0,0-1.976-.894,2.835,2.835,0,0,0-2.924,2.683,2.406,2.406,0,0,0,2.54,2.683,2.844,2.844,0,0,0,2.11-.894l.894.894a4.158,4.158,0,0,1-3.13,1.279A3.577,3.577,0,0,1,264,119.953Z" transform="translate(276.387 2480.166)"/><path class="e" d="M277.979,122.025h-3.827l-.894,1.788H271.8l3.988-7.664h1.4l2.924,7.664h-1.484Zm-.393-1.118-1.207-3.353-1.672,3.353Z" transform="translate(275.559 2480.15)"/><path class="e" d="M283.7,117.337h-2.54l.08-1.207h6.5l-.089,1.207h-2.531l-.456,6.456h-1.422Z" transform="translate(274.568 2480.152)"/><path class="e" d="M294.951,122.6l-.089,1.189H289.12l.537-7.664h5.616l-.081,1.2h-4.176l-.134,1.985h3.7l-.089,1.171H290.8l-.152,2.119Z" transform="translate(273.727 2480.152)"/><line class="f" x2="8.986" transform="translate(549.666 2624.537)"/><line class="f" x2="55.366" transform="translate(487.344 2624.537)"/><line class="f" x2="22.32" transform="translate(536.332 2631.494)"/><line class="f" x2="28.118" transform="translate(502.127 2631.494)"/><line class="f" x2="9.566" transform="translate(487.344 2631.494)"/><line class="f" x2="43.481" transform="translate(515.172 2638.451)"/><line class="f" x2="18.262" transform="translate(487.344 2638.451)"/><circle class="f" cx="7.537" cy="7.537" r="7.537" transform="translate(571.697 2623.377)"/><line class="f" x1="8.986" transform="translate(487.344 2655.553)"/><line class="f" x1="55.366" transform="translate(503.287 2655.553)"/><line class="f" x1="22.32" transform="translate(487.344 2662.51)"/><line class="f" x1="28.118" transform="translate(515.752 2662.51)"/><line class="f" x1="9.566" transform="translate(549.086 2662.51)"/><line class="f" x1="43.481" transform="translate(487.344 2669.467)"/><line class="f" x1="18.262" transform="translate(540.391 2669.467)"/><circle class="f" cx="7.537" cy="7.537" r="7.537" transform="translate(571.697 2654.394)"/><line class="f" x2="8.986" transform="translate(549.666 2686.569)"/><line class="f" x2="55.366" transform="translate(487.344 2686.569)"/><line class="f" x2="22.32" transform="translate(536.332 2693.526)"/><line class="f" x2="28.118" transform="translate(502.127 2693.526)"/><line class="f" x2="9.566" transform="translate(487.344 2693.526)"/><line class="f" x2="43.481" transform="translate(515.172 2700.483)"/><line class="f" x2="18.262" transform="translate(487.344 2700.483)"/><circle class="f" cx="7.537" cy="7.537" r="7.537" transform="translate(571.697 2685.41)"/><path class="g" d="M325.52,266.437l2.047,3.641,7.74-7.508" transform="translate(250.844 2394.241)"/><path class="g" d="M325.52,212.367l2.047,3.647,7.74-7.513" transform="translate(250.844 2416.965)"/><path class="g" d="M323.65,317.447l2.047,3.647,7.74-7.514" transform="translate(251.629 2372.804)"/><path class="h" d="M188.706,398.278l-5.9,35.753,9.038-10.215,9.821,10.609-3.536-36.936Z" transform="translate(310.818 2337.54)"/><path class="h" d="M201.81,397.42l1.5,36.205,6.771-11.838,11.775,8.389L210.889,394.73Z" transform="translate(302.834 2338.7)"/><path class="i" d="M208.7,369.492c0-1.044,2.232-2.238,2.087-3.241s-2.626-1.548-2.9-2.522,1.513-2.771,1.084-3.7-2.951-.736-3.478-1.6.673-3.078,0-3.849-3.038.128-3.815-.545-.215-3.142-1.078-3.7-2.9.98-3.815.551-1.09-2.951-2.081-3.247-2.476,1.739-3.478,1.612-1.867-2.528-2.9-2.528-1.907,2.383-2.9,2.528-2.522-1.9-3.478-1.612-1.159,2.823-2.081,3.247-2.951-1.1-3.815-.551-.3,3.032-1.078,3.7-3.142-.232-3.82.545.58,2.986,0,3.855-3.084.655-3.513,1.594,1.38,2.7,1.09,3.7-2.765,1.49-2.9,2.522,2.087,2.2,2.087,3.241-2.232,2.232-2.087,3.241,2.626,1.548,2.9,2.522-1.513,2.771-1.09,3.7,2.957.736,3.513,1.594-.678,3.078,0,3.855,3.038-.128,3.815.545.215,3.142,1.078,3.7,2.9-.974,3.815-.545,1.09,2.951,2.081,3.241,2.475-1.739,3.478-1.606,1.873,2.528,2.9,2.528,1.907-2.383,2.9-2.528,2.528,1.9,3.478,1.606,1.159-2.818,2.081-3.241,2.951,1.1,3.815.545.3-3.026,1.078-3.7,3.142.232,3.815-.545-.58-2.986,0-3.855,3.078-.655,3.513-1.594-1.386-2.7-1.09-3.7,2.765-1.5,2.9-2.522S208.7,370.518,208.7,369.492Z" transform="translate(317.955 2358.877)"/><circle class="j" cx="16.239" cy="16.239" r="16.239" transform="translate(489.965 2712.113)"/><circle class="j" cx="11.34" cy="11.34" r="11.34" transform="translate(490.17 2728.352) rotate(-45)"/><circle class="i" cx="8.916" cy="8.916" r="8.916" transform="translate(497.305 2719.406)"/><rect class="k" width="3.768" height="6.4" rx="0.79" transform="translate(500.092 2726.653)"/><path class="k" d="M208.539,380.274c.957-1.409-.359-1.826-.359-1.826h-3.438l.058-.3s.3-2.319-.087-3.049-1.8-1.015-1.855-.748.029,1.467-.093,2.122a21.512,21.512,0,0,1-1.316,3.142.788.788,0,0,1-.209.215v5.322a1.38,1.38,0,0,0,.777.209h5a1.159,1.159,0,0,0,.777-1.467,1.455,1.455,0,0,0,.661-1.7,1.159,1.159,0,0,0,.087-1.913Z" transform="translate(303.072 2347.307)"/><path class="l" d="M313.311,77.45,219.5,269.276h23.6L335.09,77.45" transform="translate(252.473 2495.783)"/><path class="l" d="M319.04,56.6a6.182,6.182,0,0,0-3.369-4.554L219.5,243.163h20.358L319.04,75.039" transform="translate(279.301 2521.896)"/></g></svg>