<svg xmlns="http://www.w3.org/2000/svg" width="263.479" height="247.421" viewBox="0 0 263.479 247.421"><defs><style>.a,.f{fill:none;stroke:#263238;}.a,.b,.c,.d{stroke-linecap:round;}.a,.c,.d{stroke-linejoin:round;}.b,.d,.e{fill:#001e6c;}.b,.c,.d{stroke:#001e6c;}.c,.g{fill:#fff;}.f{stroke-miterlimit:10;}.g{opacity:0.2;}</style></defs><g transform="translate(-405.5 -1809.638)"><line class="a" x2="262.479" transform="translate(406 2024.446)"/><path class="b" d="M5.437,0H123.382a5.437,5.437,0,0,1,5.437,5.437V185.3a5.437,5.437,0,0,1-5.437,5.437H5.437A5.437,5.437,0,0,1,0,185.3V5.437A5.437,5.437,0,0,1,5.437,0Z" transform="translate(469.1 1833.774)"/><rect class="c" width="115.723" height="179.089" transform="translate(475.645 1838.076)"/><path class="d" d="M256.759,87.179a.98.98,0,0,1-.98-.98V80.663a2.093,2.093,0,0,0-2.1-2.093h-8.922a2.087,2.087,0,0,0-2.093,2.093V86.2a.98.98,0,0,1-.986.98h0a.98.98,0,0,0-.98.986v15h17.044v-15A.986.986,0,0,0,256.759,87.179Zm-7.537-.516a2.748,2.748,0,1,1,2.748-2.748A2.748,2.748,0,0,1,249.222,86.663Z" transform="translate(286.49 1731.568)"/><path class="c" d="M214.495,112.77H257.7a5.015,5.015,0,0,1,5.015,5.015v4.429H209.48v-4.429A5.015,5.015,0,0,1,214.495,112.77Z" transform="translate(299.61 1717.195)"/><path class="d" d="M211.76,114.4h50.577a5,5,0,0,0-3.7-1.635H215.453A4.992,4.992,0,0,0,211.76,114.4Z" transform="translate(298.652 1717.195)"/><rect class="c" width="53.238" height="3.102" transform="translate(509.09 1839.363)"/><path class="e" d="M215.107,119.952A4.248,4.248,0,0,1,219.48,116a3.577,3.577,0,0,1,2.942,1.279l-.984.894a2.486,2.486,0,0,0-1.976-.894,2.844,2.844,0,0,0-2.933,2.683,2.414,2.414,0,0,0,2.549,2.683,2.844,2.844,0,0,0,2.11-.894l.894.894a4.158,4.158,0,0,1-3.13,1.279,3.577,3.577,0,0,1-3.845-3.97Z" transform="translate(281.556 1740.167)"/><path class="e" d="M230.15,122.6l-.089,1.189H224.32l.537-7.664h5.589l-.08,1.2H226.2l-.143,1.985h3.7l-.089,1.171h-3.693l-.152,2.119Z" transform="translate(280.58 1740.152)"/><path class="e" d="M237.528,123.793l-1.4-2.245h-2.03l-.152,2.236H232.52l.537-7.664H236.2c2.012,0,3.192,1.028,3.067,2.727a2.683,2.683,0,0,1-1.788,2.423l1.592,2.513Zm-1.475-6.456h-1.663l-.215,3.049h1.663c1.252,0,1.941-.563,2-1.529S237.3,117.336,236.052,117.336Z" transform="translate(279.712 1740.153)"/><path class="e" d="M243.28,117.337h-2.54l.089-1.207h6.5l-.089,1.207H244.7l-.447,6.456h-1.422Z" transform="translate(278.843 1740.152)"/><path class="e" d="M249.237,116.13h1.422l-.528,7.664H248.7Z" transform="translate(278.001 1740.152)"/><path class="e" d="M254.479,117.328l-.161,2.325h3.7l-.089,1.207h-3.693l-.206,2.933H252.61l.537-7.664h5.589l-.08,1.2Z" transform="translate(277.588 1740.152)"/><path class="e" d="M260.937,116.13h1.422l-.537,7.664H260.4Z" transform="translate(276.764 1740.152)"/><path class="e" d="M264,119.953a4.248,4.248,0,0,1,4.382-3.944,3.577,3.577,0,0,1,2.942,1.279l-.984.894a2.486,2.486,0,0,0-1.976-.894,2.835,2.835,0,0,0-2.924,2.683,2.406,2.406,0,0,0,2.54,2.683,2.844,2.844,0,0,0,2.11-.894l.894.894a4.158,4.158,0,0,1-3.13,1.279A3.577,3.577,0,0,1,264,119.953Z" transform="translate(276.386 1740.166)"/><path class="e" d="M277.979,122.025h-3.827l-.894,1.788H271.8l3.988-7.664h1.4l2.924,7.664h-1.484Zm-.393-1.118-1.207-3.353-1.672,3.353Z" transform="translate(275.558 1740.15)"/><path class="e" d="M283.7,117.337h-2.54l.08-1.207h6.5l-.089,1.207h-2.531l-.456,6.456h-1.422Z" transform="translate(274.569 1740.152)"/><path class="e" d="M294.951,122.6l-.089,1.189H289.12l.537-7.664h5.616l-.081,1.2h-4.176l-.134,1.985h3.7l-.089,1.171H290.8l-.152,2.119Z" transform="translate(273.727 1740.152)"/><line class="f" x2="8.986" transform="translate(549.666 1884.537)"/><line class="f" x2="55.366" transform="translate(487.344 1884.537)"/><line class="f" x2="22.32" transform="translate(536.332 1891.494)"/><line class="f" x2="28.118" transform="translate(502.127 1891.494)"/><line class="f" x2="9.566" transform="translate(487.344 1891.494)"/><line class="f" x2="43.481" transform="translate(515.171 1898.451)"/><line class="f" x2="18.262" transform="translate(487.344 1898.451)"/><circle class="f" cx="7.537" cy="7.537" r="7.537" transform="translate(571.696 1883.377)"/><line class="f" x1="8.986" transform="translate(487.344 1915.553)"/><line class="f" x1="55.366" transform="translate(503.287 1915.553)"/><line class="f" x1="22.32" transform="translate(487.344 1922.51)"/><line class="f" x1="28.118" transform="translate(515.751 1922.51)"/><line class="f" x1="9.566" transform="translate(549.086 1922.51)"/><line class="f" x1="43.481" transform="translate(487.344 1929.467)"/><line class="f" x1="18.262" transform="translate(540.39 1929.467)"/><circle class="f" cx="7.537" cy="7.537" r="7.537" transform="translate(571.696 1914.394)"/><line class="f" x2="8.986" transform="translate(549.666 1946.569)"/><line class="f" x2="55.366" transform="translate(487.344 1946.569)"/><line class="f" x2="22.32" transform="translate(536.332 1953.526)"/><line class="f" x2="28.118" transform="translate(502.127 1953.526)"/><line class="f" x2="9.566" transform="translate(487.344 1953.526)"/><line class="f" x2="43.481" transform="translate(515.171 1960.483)"/><line class="f" x2="18.262" transform="translate(487.344 1960.483)"/><circle class="f" cx="7.537" cy="7.537" r="7.537" transform="translate(571.696 1945.41)"/><path class="g" d="M313.311,77.45,219.5,269.276h23.6L335.09,77.45" transform="translate(252.473 1755.783)"/><path class="g" d="M319.04,56.6a6.182,6.182,0,0,0-3.369-4.554L219.5,243.163h20.358L319.04,75.039" transform="translate(332.012 1813.896)"/></g></svg>