<svg xmlns="http://www.w3.org/2000/svg" width="106.609" height="151.541" viewBox="0 0 106.609 151.541"><defs><style>.a{fill:none;stroke:#ffaa4c;stroke-width:6px;}.a,.d{stroke-linecap:round;}.a,.b{stroke-miterlimit:10;}.b{fill:#ff8906;stroke-width:0.25px;}.b,.d{stroke:#1f1f20;}.c{fill:#ffaa4c;}.d,.e{fill:#fff;}.d{stroke-linejoin:round;}</style></defs><g transform="translate(-483.783 -2621.223)"><path class="a" d="M325.52,266.437l2.047,3.641,7.74-7.508" transform="translate(250.844 2394.241)"/><path class="a" d="M325.52,212.367l2.047,3.647,7.74-7.513" transform="translate(250.844 2416.965)"/><path class="a" d="M323.65,317.447l2.047,3.647,7.74-7.514" transform="translate(251.629 2372.804)"/><g transform="translate(483.783 2705.597)"><path class="b" d="M188.706,398.278l-5.9,35.753,9.038-10.215,9.821,10.609-3.536-36.936Z" transform="translate(-172.965 -368.056)"/><path class="b" d="M201.81,397.42l1.5,36.205,6.771-11.838,11.775,8.389L210.889,394.73Z" transform="translate(-180.95 -366.896)"/><path class="c" d="M208.7,369.492c0-1.044,2.232-2.238,2.087-3.241s-2.626-1.548-2.9-2.522,1.513-2.771,1.084-3.7-2.951-.736-3.478-1.6.673-3.078,0-3.849-3.038.128-3.815-.545-.215-3.142-1.078-3.7-2.9.98-3.815.551-1.09-2.951-2.081-3.247-2.476,1.739-3.478,1.612-1.867-2.528-2.9-2.528-1.907,2.383-2.9,2.528-2.522-1.9-3.478-1.612-1.159,2.823-2.081,3.247-2.951-1.1-3.815-.551-.3,3.032-1.078,3.7-3.142-.232-3.82.545.58,2.986,0,3.855-3.084.655-3.513,1.594,1.38,2.7,1.09,3.7-2.765,1.49-2.9,2.522,2.087,2.2,2.087,3.241-2.232,2.232-2.087,3.241,2.626,1.548,2.9,2.522-1.513,2.771-1.09,3.7,2.957.736,3.513,1.594-.678,3.078,0,3.855,3.038-.128,3.815.545.215,3.142,1.078,3.7,2.9-.974,3.815-.545,1.09,2.951,2.081,3.241,2.475-1.739,3.478-1.606,1.873,2.528,2.9,2.528,1.907-2.383,2.9-2.528,2.528,1.9,3.478,1.606,1.159-2.818,2.081-3.241,2.951,1.1,3.815.545.3-3.026,1.078-3.7,3.142.232,3.815-.545-.58-2.986,0-3.855,3.078-.655,3.513-1.594-1.386-2.7-1.09-3.7,2.765-1.5,2.9-2.522S208.7,370.518,208.7,369.492Z" transform="translate(-165.828 -346.72)"/><circle class="d" cx="16.239" cy="16.239" r="16.239" transform="translate(6.181 6.516)"/><circle class="d" cx="11.34" cy="11.34" r="11.34" transform="translate(6.387 22.755) rotate(-45)"/><circle class="c" cx="8.916" cy="8.916" r="8.916" transform="translate(13.521 13.81)"/><rect class="e" width="3.768" height="6.4" rx="0.79" transform="translate(16.309 21.056)"/><path class="e" d="M208.539,380.274c.957-1.409-.359-1.826-.359-1.826h-3.438l.058-.3s.3-2.319-.087-3.049-1.8-1.015-1.855-.748.029,1.467-.093,2.122a21.512,21.512,0,0,1-1.316,3.142.788.788,0,0,1-.209.215v5.322a1.38,1.38,0,0,0,.777.209h5a1.159,1.159,0,0,0,.777-1.467,1.455,1.455,0,0,0,.661-1.7,1.159,1.159,0,0,0,.087-1.913Z" transform="translate(-180.71 -358.29)"/></g></g></svg>