<svg xmlns="http://www.w3.org/2000/svg" width="226.319" height="190.283" viewBox="0 0 226.319 190.283">
  <g id="OBJECTS" transform="translate(0 -54.44)">
    <g id="landingitem2end">
      <ellipse id="Ellipse_1" data-name="Ellipse 1" cx="113.159" cy="31.774" rx="113.159" ry="31.774" transform="translate(0 181.175)" fill="#001e6c"/>
      <g id="persons">
        <g id="Group_3" data-name="Group 3" transform="translate(89.358 54.44)">
          <path id="Path_1" data-name="Path 1" d="M244.208,110.911a6.255,6.255,0,0,0-4.11-3.189.33.33,0,0,0-.169.638,6.314,6.314,0,0,1,3.286,3.132C243.57,112.155,244.514,111.573,244.208,110.911Zm.961-.993c.694.758,1.171,1.647,1.8,2.454.29.379.985-.032.807-.476a9.223,9.223,0,0,0-4.828-4.61c-.323-.138-.452.347-.218.517A17.825,17.825,0,0,1,245.168,109.919Zm-10.8-5.619a16.871,16.871,0,0,1,17.478,13.353,16.687,16.687,0,0,1-3.326,13.724c-2.842,3.342-7.646,4.037-11.94,4.464a.337.337,0,0,0-.2-.064c-8.63-.081-16.436-5.312-17.082-14.483A16.146,16.146,0,0,1,234.367,104.3Z" transform="translate(-211.933 -102.816)" fill="#fff"/>
          <path id="Path_2" data-name="Path 2" d="M212.1,208.158a.358.358,0,0,0,.177-.662,5.119,5.119,0,0,1-.961-.493,3.354,3.354,0,0,1-.719-.863.207.207,0,0,0-.379.153A2.291,2.291,0,0,0,212.1,208.158Zm25.026,30.952c1.276.662,3.359.436,4.15-.888.194-.331-.2-.759-.533-.541a5.407,5.407,0,0,1-1.509.9,3.438,3.438,0,0,1-1.873-.016C237.034,238.48,236.815,238.948,237.122,239.11Zm2.1-1.049a.31.31,0,0,0-.08-.606,11.957,11.957,0,0,1-1.614-.056c-.4-.072-.824-.307-1.227-.2a.177.177,0,0,0-.105.258c.2.444.88.59,1.324.679A3.21,3.21,0,0,0,239.221,238.06Zm-29.159-28.392a3.153,3.153,0,0,1-2.244-2.753c-.056-.46-.04-.88-.056-1.316a.59.59,0,0,0,.234-.468c.46-8.525-.855-17.317,1.6-25.632a20.709,20.709,0,0,1,6.733-10.608c4.109-3.27,8.517-3.076,13.514-3.213a.335.335,0,0,0,.153-.04c1.6-.1,3.294-.226,4.965-.485,5.045.388,8.654,1.348,12.327,5.054,4.117,4.149,4.812,8.21,4.957,13.8q.17,6.6.331,13.208c.049,1.954.46,4.294.137,6.216a5.384,5.384,0,0,1-8.5,3.657.248.248,0,0,0-.1-.04q-.133-11.916.355-23.832c.041-.952-1.428-.944-1.469,0-.565,14.047-.032,28.03.089,42.077a69.488,69.488,0,0,1-.129,10.042c-.468,3.294-1.792,5.239-5.231,4.876-4.4-.468-4.618-3.358-4.868-6.24-.622-7.112-.177-14.3-.807-21.393a7.484,7.484,0,0,0,1.744-.574c.525-.274.3-1.227-.315-1.162a30.984,30.984,0,0,1-3.665.476,16.975,16.975,0,0,0-3.262-.1.315.315,0,0,0-.137.524,4.837,4.837,0,0,0,2.874,1.025c-.121,7.056-.137,14.12-.388,21.168-.129,3.544-1.171,6.741-5.571,6.822-3.278.064-4.779-1.647-5.239-5.054-.468-3.431.057-7.395.089-10.858q.085-10.523.153-21.054c.049-7.225.549-14.6.024-21.805a.468.468,0,0,0-.936,0c-.9,8.694-.638,17.663-.581,26.471a.619.619,0,0,0-.234.242C215.462,210.782,211.918,210.41,210.062,209.668Zm-.468-2.576a2.579,2.579,0,0,1-.057-1.421c.024-.282-.331-.371-.517-.218a1.848,1.848,0,0,0-.194,2.018,2.007,2.007,0,0,0,1.647,1.284.4.4,0,0,0,.2-.735A1.947,1.947,0,0,1,209.594,207.092Z" transform="translate(-206.6 -131.071)" fill="#fff"/>
          <path id="Path_3" data-name="Path 3" d="M267.187,114.973c-.63-.807-1.106-1.7-1.8-2.454a17.825,17.825,0,0,0-2.438-2.115c-.234-.17-.105-.654.218-.517a9.223,9.223,0,0,1,4.828,4.61C268.171,114.94,267.477,115.352,267.187,114.973Z" transform="translate(-232.151 -105.416)"/>
          <path id="Path_4" data-name="Path 4" d="M266.561,300.955c-.791,1.324-2.874,1.55-4.15.888-.307-.161-.088-.63.234-.549a3.437,3.437,0,0,0,1.873.016,5.406,5.406,0,0,0,1.509-.9C266.36,300.2,266.755,300.625,266.561,300.955Z" transform="translate(-231.889 -193.804)"/>
          <path id="Path_5" data-name="Path 5" d="M263.735,299.8a.31.31,0,0,1,.08.606,3.21,3.21,0,0,1-1.7.073c-.444-.089-1.122-.234-1.324-.679a.177.177,0,0,1,.105-.258c.4-.105.823.129,1.227.2A11.957,11.957,0,0,0,263.735,299.8Z" transform="translate(-231.194 -193.414)"/>
          <path id="Path_6" data-name="Path 6" d="M257.793,110.712a6.255,6.255,0,0,1,4.11,3.189c.307.662-.638,1.244-.993.582a6.314,6.314,0,0,0-3.286-3.132A.33.33,0,0,1,257.793,110.712Z" transform="translate(-229.628 -105.805)"/>
          <path id="Path_7" data-name="Path 7" d="M214.4,242.886a.358.358,0,0,1-.177.662,2.291,2.291,0,0,1-1.881-1.865.207.207,0,0,1,.379-.153,3.353,3.353,0,0,0,.719.863A5.119,5.119,0,0,0,214.4,242.886Z" transform="translate(-208.722 -166.46)"/>
          <path id="Path_8" data-name="Path 8" d="M210.282,240.494a2.579,2.579,0,0,0,.057,1.421,1.947,1.947,0,0,0,1.082.928.4.4,0,0,1-.2.735,2.007,2.007,0,0,1-1.647-1.284,1.848,1.848,0,0,1,.193-2.018C209.952,240.122,210.307,240.211,210.282,240.494Z" transform="translate(-207.345 -165.893)"/>
          <path id="Path_9" data-name="Path 9" d="M242.18,130.127a16.687,16.687,0,0,0,3.326-13.724,16.871,16.871,0,0,0-17.478-13.353,16.146,16.146,0,0,0-15.072,16.993c.646,9.171,8.452,14.4,17.082,14.483a.337.337,0,0,1,.2.064C234.534,134.164,239.338,133.47,242.18,130.127Zm9.526,43.8c.323-1.922-.088-4.262-.137-6.216q-.158-6.6-.331-13.208c-.145-5.595-.84-9.656-4.957-13.8-3.673-3.706-7.282-4.666-12.327-5.054-1.671.258-3.367.388-4.965.485a.335.335,0,0,1-.153.04c-5,.137-9.405-.056-13.514,3.213a20.709,20.709,0,0,0-6.733,10.608c-2.454,8.315-1.138,17.106-1.6,25.632a.59.59,0,0,1-.234.468c.016.436,0,.855.056,1.316a3.153,3.153,0,0,0,2.244,2.753c1.857.742,5.4,1.114,6.547-.961a.619.619,0,0,1,.234-.242c-.057-8.808-.323-17.776.581-26.471a.468.468,0,0,1,.936,0c.525,7.209.025,14.58-.024,21.805q-.072,10.523-.153,21.054c-.032,3.464-.557,7.427-.089,10.858.46,3.407,1.962,5.118,5.239,5.054,4.4-.081,5.441-3.278,5.571-6.822.25-7.048.266-14.112.388-21.168a4.837,4.837,0,0,1-2.874-1.025.315.315,0,0,1,.137-.524,16.975,16.975,0,0,1,3.262.1,30.984,30.984,0,0,0,3.665-.476c.613-.065.839.888.315,1.162a7.484,7.484,0,0,1-1.744.574c.63,7.1.185,14.281.807,21.393.25,2.882.468,5.772,4.868,6.24,3.439.363,4.763-1.582,5.231-4.876a69.488,69.488,0,0,0,.129-10.042c-.121-14.047-.654-28.03-.089-42.077.041-.944,1.51-.952,1.469,0q-.5,11.916-.355,23.832a.248.248,0,0,1,.1.04A5.384,5.384,0,0,0,251.706,173.931Zm1.187-4.658c.065,2.365.856,5.837-.4,8.041-1.711,3-6.83,3.358-9.364,1.292.024,1.865.048,3.729.1,5.594.121,4.893.266,9.793.242,14.685-.008,3.084.832,8.1-.9,10.834-2.406,3.818-9.4,2.93-11.214-.928-1.509-3.221-1.074-7.766-1.2-11.2a90.231,90.231,0,0,1,.2-14.394c-.226.032-.46.064-.694.08q-.146,7.908-.3,15.807c-.065,3.148.839,8.13-1.122,10.89-2.43,3.415-9.251,3.738-11.593.04-1.938-3.051-.928-8.081-.9-11.455q.06-7.46.113-14.927c.008-.9,0-1.8,0-2.7-1.784,1.518-4.836,1.324-6.943.6a4.433,4.433,0,0,1-3.132-5.619.61.61,0,0,1-.056-.282c.331-10.075-1.558-21.417,3.334-30.734,3.14-5.966,8.34-9.405,14.491-9.841a16.767,16.767,0,0,1-12.013-14.4,17.6,17.6,0,0,1,15.936-19,18.214,18.214,0,0,1,15.88,29.5,11.857,11.857,0,0,1-5.022,3.391,18.662,18.662,0,0,1,9.5,5.627c4.634,4.8,4.634,10.317,4.779,16.663C252.707,160.982,252.788,165.124,252.892,169.273Z" transform="translate(-205.594 -101.567)"/>
        </g>
        <g id="Group_4" data-name="Group 4" transform="translate(7.51 56.964)">
          <path id="Path_10" data-name="Path 10" d="M91.507,115.62a6.255,6.255,0,0,0-4.109-3.189.33.33,0,0,0-.17.638,6.317,6.317,0,0,1,3.286,3.132C90.869,116.863,91.813,116.282,91.507,115.62Zm.961-.993c.695.759,1.171,1.647,1.8,2.454.291.379.985-.032.807-.477a9.224,9.224,0,0,0-4.827-4.61c-.323-.137-.452.347-.218.517A17.9,17.9,0,0,1,92.467,114.627Zm-10.8-5.619a16.872,16.872,0,0,1,17.478,13.353,16.686,16.686,0,0,1-3.326,13.724c-2.842,3.342-7.645,4.037-11.94,4.464a.336.336,0,0,0-.2-.065c-8.63-.08-16.436-5.312-17.082-14.483A16.146,16.146,0,0,1,81.666,109.008Z" transform="translate(-59.233 -107.524)" fill="#fff"/>
          <path id="Path_11" data-name="Path 11" d="M59.4,212.867a.358.358,0,0,0,.177-.662,5.153,5.153,0,0,1-.961-.493,3.354,3.354,0,0,1-.718-.864.207.207,0,0,0-.379.153A2.291,2.291,0,0,0,59.4,212.867Zm25.026,30.952c1.275.662,3.358.436,4.149-.888.194-.331-.2-.759-.533-.541a5.431,5.431,0,0,1-1.509.9,3.436,3.436,0,0,1-1.873-.016C84.333,243.189,84.114,243.657,84.422,243.819Zm2.1-1.049a.31.31,0,0,0-.081-.606,12.037,12.037,0,0,1-1.614-.056c-.4-.073-.823-.307-1.227-.2a.177.177,0,0,0-.1.258c.2.444.88.59,1.324.678A3.21,3.21,0,0,0,86.521,242.769Zm-29.16-28.393a3.155,3.155,0,0,1-2.244-2.753c-.056-.46-.04-.88-.056-1.316a.589.589,0,0,0,.234-.468c.46-8.525-.856-17.317,1.6-25.632A20.713,20.713,0,0,1,63.625,173.6c4.11-3.27,8.517-3.076,13.514-3.213a.333.333,0,0,0,.153-.04c1.6-.1,3.294-.226,4.965-.485,5.046.388,8.654,1.348,12.327,5.053,4.118,4.15,4.812,8.21,4.957,13.805q.17,6.6.331,13.207c.048,1.954.46,4.295.137,6.217a5.384,5.384,0,0,1-8.5,3.657.244.244,0,0,0-.1-.041q-.133-11.915.355-23.831c.04-.953-1.429-.945-1.469,0-.565,14.047-.033,28.029.088,42.076a69.418,69.418,0,0,1-.129,10.043c-.468,3.294-1.792,5.239-5.231,4.876-4.4-.468-4.618-3.358-4.868-6.24-.621-7.113-.177-14.3-.807-21.394a7.477,7.477,0,0,0,1.744-.573c.525-.274.3-1.227-.315-1.163a30.956,30.956,0,0,1-3.665.477,16.976,16.976,0,0,0-3.262-.1.316.316,0,0,0-.137.525,4.84,4.84,0,0,0,2.874,1.025c-.121,7.056-.137,14.119-.388,21.167-.129,3.544-1.171,6.741-5.57,6.822-3.278.065-4.78-1.647-5.239-5.053-.468-3.431.056-7.4.088-10.858q.085-10.523.154-21.054c.048-7.226.549-14.6.024-21.806a.468.468,0,0,0-.936,0c-.9,8.695-.638,17.664-.582,26.471a.619.619,0,0,0-.234.242C62.762,215.491,59.218,215.119,57.361,214.376Zm-.468-2.575a2.579,2.579,0,0,1-.057-1.421c.025-.282-.331-.371-.516-.218a1.848,1.848,0,0,0-.194,2.019,2.007,2.007,0,0,0,1.647,1.283.4.4,0,0,0,.2-.734A1.951,1.951,0,0,1,56.893,211.8Z" transform="translate(-53.899 -135.78)" fill="#fff"/>
          <path id="Path_12" data-name="Path 12" d="M114.486,119.681c-.63-.807-1.106-1.7-1.8-2.454a17.9,17.9,0,0,0-2.438-2.115c-.234-.169-.105-.654.218-.517a9.224,9.224,0,0,1,4.827,4.61C115.471,119.649,114.776,120.061,114.486,119.681Z" transform="translate(-79.45 -110.125)"/>
          <path id="Path_13" data-name="Path 13" d="M113.86,305.664c-.791,1.324-2.874,1.55-4.149.888-.307-.162-.089-.63.234-.549a3.436,3.436,0,0,0,1.873.016,5.43,5.43,0,0,0,1.509-.9C113.659,304.905,114.054,305.333,113.86,305.664Z" transform="translate(-79.189 -198.513)"/>
          <path id="Path_14" data-name="Path 14" d="M111.035,304.506a.31.31,0,0,1,.081.606,3.21,3.21,0,0,1-1.7.072c-.444-.088-1.122-.234-1.324-.678a.177.177,0,0,1,.1-.258c.4-.105.824.129,1.227.2A12.042,12.042,0,0,0,111.035,304.506Z" transform="translate(-78.494 -198.122)"/>
          <path id="Path_15" data-name="Path 15" d="M105.093,115.42a6.255,6.255,0,0,1,4.109,3.189c.307.662-.638,1.243-.993.581a6.317,6.317,0,0,0-3.286-3.132A.33.33,0,0,1,105.093,115.42Z" transform="translate(-76.928 -110.513)"/>
          <path id="Path_16" data-name="Path 16" d="M61.695,247.594a.358.358,0,0,1-.177.662,2.291,2.291,0,0,1-1.881-1.865.207.207,0,0,1,.379-.153,3.354,3.354,0,0,0,.718.864A5.153,5.153,0,0,0,61.695,247.594Z" transform="translate(-56.021 -171.169)"/>
          <path id="Path_17" data-name="Path 17" d="M57.581,245.2a2.579,2.579,0,0,0,.057,1.421,1.951,1.951,0,0,0,1.082.928.4.4,0,0,1-.2.734A2.007,2.007,0,0,1,56.871,247a1.848,1.848,0,0,1,.194-2.019C57.251,244.831,57.606,244.92,57.581,245.2Z" transform="translate(-54.645 -170.602)"/>
          <path id="Path_18" data-name="Path 18" d="M89.479,134.836a16.686,16.686,0,0,0,3.326-13.724,16.872,16.872,0,0,0-17.478-13.353,16.146,16.146,0,0,0-15.072,16.994c.646,9.171,8.453,14.4,17.082,14.483a.336.336,0,0,1,.2.065C81.834,138.873,86.637,138.178,89.479,134.836Zm9.526,43.8c.323-1.922-.089-4.263-.137-6.217q-.158-6.6-.331-13.207c-.145-5.595-.839-9.656-4.957-13.805-3.673-3.705-7.282-4.666-12.327-5.053-1.671.258-3.366.388-4.965.485a.333.333,0,0,1-.153.04c-5,.137-9.4-.057-13.514,3.213A20.713,20.713,0,0,0,55.887,154.7c-2.454,8.316-1.138,17.107-1.6,25.632a.589.589,0,0,1-.234.468c.016.436,0,.856.056,1.316a3.154,3.154,0,0,0,2.244,2.753c1.857.743,5.4,1.114,6.547-.961a.619.619,0,0,1,.234-.242c-.056-8.808-.323-17.776.582-26.471a.468.468,0,0,1,.936,0c.525,7.209.024,14.58-.024,21.806q-.073,10.523-.154,21.054c-.032,3.463-.557,7.427-.088,10.858.46,3.407,1.962,5.118,5.239,5.053,4.4-.08,5.441-3.278,5.57-6.822.25-7.048.266-14.111.388-21.167a4.84,4.84,0,0,1-2.874-1.025.316.316,0,0,1,.137-.525,16.976,16.976,0,0,1,3.262.1,30.959,30.959,0,0,0,3.665-.477c.614-.064.839.888.315,1.163a7.476,7.476,0,0,1-1.744.573c.63,7.1.186,14.281.807,21.394.25,2.882.468,5.772,4.868,6.24,3.44.363,4.763-1.582,5.231-4.876a69.42,69.42,0,0,0,.129-10.043c-.121-14.047-.654-28.029-.088-42.076.04-.945,1.509-.953,1.469,0q-.5,11.915-.355,23.831a.243.243,0,0,1,.1.041A5.384,5.384,0,0,0,99.005,178.64Zm1.187-4.658c.064,2.365.855,5.837-.4,8.041-1.711,3-6.83,3.358-9.365,1.291.024,1.865.049,3.73.1,5.595.121,4.892.266,9.793.242,14.685-.008,3.084.831,8.1-.9,10.834-2.406,3.819-9.4,2.931-11.214-.928-1.509-3.221-1.074-7.766-1.2-11.2a90.175,90.175,0,0,1,.2-14.394c-.226.033-.46.065-.695.081q-.145,7.907-.3,15.807c-.064,3.148.84,8.129-1.122,10.89-2.43,3.415-9.252,3.738-11.593.041-1.938-3.052-.928-8.081-.9-11.455q.061-7.459.113-14.927c.008-.9,0-1.8,0-2.7-1.784,1.518-4.836,1.324-6.943.6a4.433,4.433,0,0,1-3.132-5.619.611.611,0,0,1-.056-.282c.331-10.075-1.558-21.418,3.334-30.734,3.14-5.966,8.34-9.4,14.491-9.841a16.767,16.767,0,0,1-12.013-14.4,17.6,17.6,0,0,1,15.936-19,18.214,18.214,0,0,1,15.88,29.5,11.849,11.849,0,0,1-5.021,3.39,18.664,18.664,0,0,1,9.5,5.627c4.634,4.8,4.634,10.317,4.779,16.663C100.006,165.691,100.087,169.832,100.192,173.982Z" transform="translate(-52.894 -106.275)"/>
        </g>
        <g id="Group_5" data-name="Group 5" transform="translate(47.582 56.964)">
          <path id="Path_19" data-name="Path 19" d="M166.268,115.62a6.255,6.255,0,0,0-4.109-3.189.33.33,0,0,0-.17.638,6.317,6.317,0,0,1,3.286,3.132C165.63,116.863,166.574,116.282,166.268,115.62Zm.961-.993c.695.759,1.171,1.647,1.8,2.454.291.379.985-.032.807-.477a9.224,9.224,0,0,0-4.827-4.61c-.323-.137-.452.347-.218.517A17.9,17.9,0,0,1,167.228,114.627Zm-10.8-5.619A16.872,16.872,0,0,1,173.9,122.361a16.685,16.685,0,0,1-3.326,13.724c-2.842,3.342-7.645,4.037-11.94,4.464a.336.336,0,0,0-.2-.065c-8.63-.08-16.436-5.312-17.082-14.483A16.146,16.146,0,0,1,156.427,109.008Z" transform="translate(-133.994 -107.524)" fill="#fff"/>
          <path id="Path_20" data-name="Path 20" d="M134.156,212.867a.358.358,0,0,0,.177-.662,5.152,5.152,0,0,1-.961-.493,3.354,3.354,0,0,1-.718-.864.207.207,0,0,0-.379.153A2.291,2.291,0,0,0,134.156,212.867Zm25.026,30.952c1.275.662,3.358.436,4.149-.888.194-.331-.2-.759-.533-.541a5.431,5.431,0,0,1-1.509.9,3.436,3.436,0,0,1-1.873-.016C159.094,243.189,158.875,243.657,159.183,243.819Zm2.1-1.049a.31.31,0,0,0-.081-.606,12.038,12.038,0,0,1-1.614-.056c-.4-.073-.823-.307-1.227-.2a.177.177,0,0,0-.1.258c.2.444.88.59,1.324.678A3.21,3.21,0,0,0,161.282,242.769Zm-29.16-28.393a3.155,3.155,0,0,1-2.244-2.753c-.056-.46-.04-.88-.056-1.316a.589.589,0,0,0,.234-.468c.46-8.525-.856-17.317,1.6-25.632a20.713,20.713,0,0,1,6.733-10.608c4.11-3.27,8.517-3.076,13.514-3.213a.333.333,0,0,0,.153-.04c1.6-.1,3.294-.226,4.965-.485,5.046.388,8.654,1.348,12.327,5.053,4.118,4.15,4.812,8.21,4.957,13.805q.17,6.6.331,13.207c.048,1.954.46,4.295.137,6.217a5.384,5.384,0,0,1-8.5,3.657.244.244,0,0,0-.1-.041q-.133-11.915.355-23.831c.04-.953-1.429-.945-1.469,0-.565,14.047-.033,28.029.088,42.076a69.42,69.42,0,0,1-.129,10.043c-.468,3.294-1.792,5.239-5.231,4.876-4.4-.468-4.618-3.358-4.868-6.24-.621-7.113-.177-14.3-.807-21.394a7.477,7.477,0,0,0,1.744-.573c.525-.274.3-1.227-.315-1.163a30.956,30.956,0,0,1-3.665.477,16.976,16.976,0,0,0-3.262-.1.316.316,0,0,0-.137.525,4.84,4.84,0,0,0,2.874,1.025c-.121,7.056-.137,14.119-.388,21.167-.129,3.544-1.171,6.741-5.57,6.822-3.278.065-4.78-1.647-5.239-5.053-.468-3.431.056-7.4.088-10.858q.085-10.523.154-21.054c.048-7.226.549-14.6.024-21.806a.468.468,0,0,0-.936,0c-.9,8.695-.638,17.664-.582,26.471a.619.619,0,0,0-.234.242C137.523,215.491,133.979,215.119,132.122,214.376Zm-.468-2.575a2.579,2.579,0,0,1-.057-1.421c.025-.282-.331-.371-.516-.218a1.848,1.848,0,0,0-.194,2.019,2.007,2.007,0,0,0,1.647,1.283.4.4,0,0,0,.2-.734A1.951,1.951,0,0,1,131.654,211.8Z" transform="translate(-128.66 -135.78)" fill="#fff"/>
          <path id="Path_21" data-name="Path 21" d="M189.247,119.681c-.63-.807-1.106-1.7-1.8-2.454a17.9,17.9,0,0,0-2.438-2.115c-.234-.169-.105-.654.218-.517a9.224,9.224,0,0,1,4.827,4.61C190.232,119.649,189.537,120.061,189.247,119.681Z" transform="translate(-154.211 -110.125)"/>
          <path id="Path_22" data-name="Path 22" d="M188.621,305.664c-.791,1.324-2.874,1.55-4.149.888-.307-.162-.089-.63.234-.549a3.436,3.436,0,0,0,1.873.016,5.43,5.43,0,0,0,1.509-.9C188.42,304.905,188.815,305.333,188.621,305.664Z" transform="translate(-153.95 -198.513)"/>
          <path id="Path_23" data-name="Path 23" d="M185.8,304.506a.31.31,0,0,1,.081.606,3.21,3.21,0,0,1-1.7.072c-.444-.088-1.122-.234-1.324-.678a.177.177,0,0,1,.1-.258c.4-.105.824.129,1.227.2A12.043,12.043,0,0,0,185.8,304.506Z" transform="translate(-153.255 -198.122)"/>
          <path id="Path_24" data-name="Path 24" d="M179.854,115.42a6.255,6.255,0,0,1,4.109,3.189c.307.662-.638,1.243-.993.581a6.317,6.317,0,0,0-3.286-3.132A.33.33,0,0,1,179.854,115.42Z" transform="translate(-151.689 -110.513)"/>
          <path id="Path_25" data-name="Path 25" d="M136.456,247.594a.358.358,0,0,1-.177.662,2.291,2.291,0,0,1-1.881-1.865.207.207,0,0,1,.379-.153,3.354,3.354,0,0,0,.718.864A5.153,5.153,0,0,0,136.456,247.594Z" transform="translate(-130.782 -171.169)"/>
          <path id="Path_26" data-name="Path 26" d="M132.342,245.2a2.579,2.579,0,0,0,.057,1.421,1.951,1.951,0,0,0,1.082.928.4.4,0,0,1-.2.734A2.007,2.007,0,0,1,131.632,247a1.848,1.848,0,0,1,.194-2.019C132.012,244.831,132.367,244.92,132.342,245.2Z" transform="translate(-129.406 -170.602)"/>
          <path id="Path_27" data-name="Path 27" d="M164.24,134.836a16.686,16.686,0,0,0,3.326-13.724,16.872,16.872,0,0,0-17.478-13.353,16.146,16.146,0,0,0-15.072,16.994c.646,9.171,8.453,14.4,17.082,14.483a.336.336,0,0,1,.2.065C156.6,138.873,161.4,138.178,164.24,134.836Zm9.526,43.8c.323-1.922-.089-4.263-.137-6.217q-.158-6.6-.331-13.207c-.145-5.595-.839-9.656-4.957-13.805-3.673-3.705-7.282-4.666-12.327-5.053-1.671.258-3.366.388-4.965.485a.333.333,0,0,1-.153.04c-5,.137-9.4-.057-13.514,3.213a20.713,20.713,0,0,0-6.733,10.608c-2.454,8.316-1.138,17.107-1.6,25.632a.589.589,0,0,1-.234.468c.016.436,0,.856.056,1.316a3.154,3.154,0,0,0,2.244,2.753c1.857.743,5.4,1.114,6.547-.961a.619.619,0,0,1,.234-.242c-.056-8.808-.323-17.776.582-26.471a.468.468,0,0,1,.936,0c.525,7.209.024,14.58-.024,21.806q-.073,10.523-.154,21.054c-.032,3.463-.557,7.427-.088,10.858.46,3.407,1.962,5.118,5.239,5.053,4.4-.08,5.441-3.278,5.57-6.822.25-7.048.266-14.111.388-21.167a4.84,4.84,0,0,1-2.874-1.025.316.316,0,0,1,.137-.525,16.976,16.976,0,0,1,3.262.1,30.959,30.959,0,0,0,3.665-.477c.614-.064.839.888.315,1.163a7.476,7.476,0,0,1-1.744.573c.63,7.1.186,14.281.807,21.394.25,2.882.468,5.772,4.868,6.24,3.44.363,4.763-1.582,5.231-4.876a69.42,69.42,0,0,0,.129-10.043c-.121-14.047-.654-28.029-.088-42.076.04-.945,1.509-.953,1.469,0q-.5,11.915-.355,23.831a.244.244,0,0,1,.1.041A5.384,5.384,0,0,0,173.766,178.64Zm1.187-4.658c.064,2.365.855,5.837-.4,8.041-1.711,3-6.83,3.358-9.365,1.291.024,1.865.049,3.73.1,5.595.121,4.892.266,9.793.242,14.685-.008,3.084.831,8.1-.9,10.834-2.406,3.819-9.4,2.931-11.214-.928-1.509-3.221-1.074-7.766-1.2-11.2a90.175,90.175,0,0,1,.2-14.394c-.226.033-.46.065-.695.081q-.145,7.907-.3,15.807c-.064,3.148.84,8.129-1.122,10.89-2.43,3.415-9.252,3.738-11.593.041-1.938-3.052-.928-8.081-.9-11.455q.061-7.459.113-14.927c.008-.9,0-1.8,0-2.7-1.784,1.518-4.836,1.324-6.943.6a4.433,4.433,0,0,1-3.132-5.619.611.611,0,0,1-.056-.282c.331-10.075-1.558-21.418,3.334-30.734,3.14-5.966,8.34-9.4,14.491-9.841a16.767,16.767,0,0,1-12.013-14.4,17.6,17.6,0,0,1,15.936-19,18.214,18.214,0,0,1,15.88,29.5,11.849,11.849,0,0,1-5.021,3.39,18.664,18.664,0,0,1,9.5,5.627c4.634,4.8,4.634,10.317,4.779,16.663C174.767,165.691,174.848,169.832,174.953,173.982Z" transform="translate(-127.655 -106.275)"/>
        </g>
        <g id="Group_6" data-name="Group 6" transform="translate(169.776 56.964)">
          <path id="Path_28" data-name="Path 28" d="M378.336,116.2a6.316,6.316,0,0,1,3.286-3.132.33.33,0,0,0-.17-.638,6.257,6.257,0,0,0-4.109,3.189C377.036,116.282,377.98,116.863,378.336,116.2Zm.484-3.689c.234-.169.105-.654-.218-.517a9.223,9.223,0,0,0-4.828,4.61c-.177.444.517.856.807.477.63-.807,1.106-1.7,1.8-2.454A17.9,17.9,0,0,1,378.82,112.512ZM402.256,126c-.646,9.171-8.452,14.4-17.082,14.483a.337.337,0,0,0-.2.065c-4.294-.428-9.1-1.122-11.94-4.464a16.686,16.686,0,0,1-3.326-13.724,16.872,16.872,0,0,1,17.478-13.353A16.146,16.146,0,0,1,402.256,126Z" transform="translate(-362.014 -107.524)" fill="#fff"/>
          <path id="Path_29" data-name="Path 29" d="M400.8,211a.207.207,0,0,0-.379-.153,3.367,3.367,0,0,1-.719.864,5.152,5.152,0,0,1-.961.493.358.358,0,0,0,.177.662A2.291,2.291,0,0,0,400.8,211ZM373.66,243.27a3.438,3.438,0,0,1-1.873.016,5.431,5.431,0,0,1-1.509-.9c-.331-.218-.727.21-.533.541.791,1.324,2.874,1.55,4.149.888C374.2,243.657,373.982,243.189,373.66,243.27Zm-.162-.428c.444-.088,1.122-.234,1.324-.678a.177.177,0,0,0-.105-.258c-.4-.105-.824.129-1.227.2a12.038,12.038,0,0,1-1.614.056.31.31,0,0,0-.081.606A3.211,3.211,0,0,0,373.5,242.842Zm20.909-29.426a.619.619,0,0,0-.234-.242c.056-8.808.323-17.776-.581-26.471a.469.469,0,0,0-.937,0c-.525,7.209-.024,14.58.025,21.806q.072,10.523.153,21.054c.032,3.463.557,7.427.088,10.858-.46,3.407-1.961,5.118-5.239,5.053-4.4-.08-5.441-3.278-5.571-6.822-.25-7.048-.266-14.111-.388-21.167a4.84,4.84,0,0,0,2.874-1.025.316.316,0,0,0-.137-.525,16.976,16.976,0,0,0-3.262.1,30.985,30.985,0,0,1-3.665-.477c-.613-.064-.839.888-.315,1.163a7.476,7.476,0,0,0,1.744.573c-.63,7.1-.185,14.281-.807,21.394-.25,2.882-.468,5.772-4.868,6.24-3.439.363-4.763-1.582-5.231-4.876a69.418,69.418,0,0,1-.129-10.043c.121-14.047.654-28.029.089-42.076-.041-.945-1.51-.953-1.47,0q.5,11.915.355,23.831a.246.246,0,0,0-.1.041,5.384,5.384,0,0,1-8.5-3.657c-.323-1.922.088-4.263.137-6.217q.157-6.6.331-13.207c.145-5.595.84-9.656,4.957-13.805,3.673-3.705,7.282-4.666,12.327-5.053,1.671.258,3.367.388,4.965.485a.335.335,0,0,0,.153.04c5,.137,9.405-.057,13.514,3.213a20.713,20.713,0,0,1,6.733,10.608c2.454,8.315,1.138,17.107,1.6,25.632a.591.591,0,0,0,.234.468c-.016.436,0,.856-.056,1.316a3.154,3.154,0,0,1-2.244,2.753C399.1,215.119,395.554,215.491,394.407,213.416Zm5.934-.686a.4.4,0,0,0,.2.734,2.007,2.007,0,0,0,1.647-1.283,1.849,1.849,0,0,0-.193-2.019c-.186-.153-.541-.064-.517.218a2.579,2.579,0,0,1-.057,1.421A1.947,1.947,0,0,1,400.341,212.73Z" transform="translate(-356.813 -135.78)" fill="#fff"/>
          <path id="Path_30" data-name="Path 30" d="M378.351,119.681c.63-.807,1.106-1.7,1.8-2.454a17.9,17.9,0,0,1,2.438-2.115c.234-.169.105-.654-.218-.517a9.223,9.223,0,0,0-4.828,4.61C377.367,119.649,378.061,120.061,378.351,119.681Z" transform="translate(-365.784 -110.125)"/>
          <path id="Path_31" data-name="Path 31" d="M379.709,305.664c.791,1.324,2.874,1.55,4.149.888.307-.162.089-.63-.234-.549a3.438,3.438,0,0,1-1.873.016,5.431,5.431,0,0,1-1.509-.9C379.91,304.905,379.515,305.333,379.709,305.664Z" transform="translate(-366.778 -198.513)"/>
          <path id="Path_32" data-name="Path 32" d="M383.472,304.506a.31.31,0,0,0-.081.606,3.211,3.211,0,0,0,1.7.072c.444-.088,1.122-.234,1.324-.678a.177.177,0,0,0-.105-.258c-.4-.105-.824.129-1.227.2A12.042,12.042,0,0,1,383.472,304.506Z" transform="translate(-368.411 -198.122)"/>
          <path id="Path_33" data-name="Path 33" d="M388.283,115.42a6.257,6.257,0,0,0-4.109,3.189c-.307.662.638,1.243.993.581a6.316,6.316,0,0,1,3.286-3.132A.33.33,0,0,0,388.283,115.42Z" transform="translate(-368.846 -110.513)"/>
          <path id="Path_34" data-name="Path 34" d="M433.707,247.594a.358.358,0,0,0,.177.662,2.291,2.291,0,0,0,1.881-1.865.207.207,0,0,0-.379-.153,3.367,3.367,0,0,1-.719.864A5.152,5.152,0,0,1,433.707,247.594Z" transform="translate(-391.778 -171.169)"/>
          <path id="Path_35" data-name="Path 35" d="M437.808,245.2a2.579,2.579,0,0,1-.057,1.421,1.947,1.947,0,0,1-1.082.928.4.4,0,0,0,.2.734A2.007,2.007,0,0,0,438.518,247a1.849,1.849,0,0,0-.193-2.019C438.139,244.831,437.784,244.92,437.808,245.2Z" transform="translate(-393.142 -170.602)"/>
          <path id="Path_36" data-name="Path 36" d="M378.586,139.3a.337.337,0,0,1,.2-.065c8.63-.08,16.436-5.312,17.082-14.483A16.146,16.146,0,0,0,380.8,107.759a16.872,16.872,0,0,0-17.478,13.353,16.686,16.686,0,0,0,3.326,13.724C369.488,138.178,374.291,138.873,378.586,139.3Zm-12.965,43a.246.246,0,0,1,.1-.041q.133-11.915-.355-23.831c-.04-.953,1.429-.945,1.47,0,.565,14.047.032,28.029-.089,42.076a69.418,69.418,0,0,0,.129,10.043c.468,3.294,1.792,5.239,5.231,4.876,4.4-.468,4.618-3.358,4.868-6.24.622-7.113.177-14.3.807-21.394a7.475,7.475,0,0,1-1.744-.573c-.525-.274-.3-1.227.315-1.163a30.992,30.992,0,0,0,3.665.477,16.976,16.976,0,0,1,3.262-.1.315.315,0,0,1,.137.525,4.84,4.84,0,0,1-2.874,1.025c.121,7.056.137,14.119.388,21.167.129,3.544,1.171,6.741,5.571,6.822,3.278.065,4.779-1.647,5.239-5.053.468-3.431-.056-7.4-.088-10.858q-.085-10.523-.153-21.054c-.049-7.226-.549-14.6-.025-21.806a.469.469,0,0,1,.937,0c.9,8.695.637,17.664.581,26.471a.619.619,0,0,1,.234.242c1.147,2.075,4.691,1.7,6.547.961a3.154,3.154,0,0,0,2.244-2.753c.056-.46.04-.88.056-1.316a.591.591,0,0,1-.234-.468c-.46-8.525.856-17.317-1.6-25.632A20.713,20.713,0,0,0,393.5,144.1c-4.109-3.27-8.517-3.076-13.514-3.213a.334.334,0,0,1-.153-.04c-1.6-.1-3.294-.226-4.965-.485-5.046.388-8.654,1.348-12.327,5.053-4.117,4.15-4.812,8.21-4.957,13.805q-.17,6.6-.331,13.207c-.049,1.954-.46,4.295-.137,6.217A5.384,5.384,0,0,0,365.62,182.3Zm-9.4-20.756c.145-6.345.145-11.859,4.779-16.663a18.666,18.666,0,0,1,9.5-5.627,11.851,11.851,0,0,1-5.022-3.39,18.214,18.214,0,0,1,15.88-29.5,17.6,17.6,0,0,1,15.936,19,16.767,16.767,0,0,1-12.013,14.4c6.152.436,11.351,3.875,14.491,9.841,4.892,9.316,3,20.659,3.334,30.734a.611.611,0,0,1-.056.282,4.433,4.433,0,0,1-3.132,5.619c-2.107.726-5.158.92-6.943-.6,0,.9-.008,1.808,0,2.7q.06,7.472.113,14.927c.024,3.374,1.033,8.4-.9,11.455-2.341,3.7-9.163,3.375-11.593-.041-1.962-2.761-1.058-7.741-1.122-10.89q-.146-7.908-.3-15.807c-.234-.016-.468-.048-.695-.081a90.177,90.177,0,0,1,.2,14.394c-.129,3.431.307,7.976-1.2,11.2-1.816,3.859-8.808,4.747-11.214.928-1.736-2.736-.9-7.75-.9-10.834-.024-4.892.121-9.793.242-14.685.049-1.865.073-3.729.1-5.595-2.535,2.067-7.653,1.711-9.364-1.291-1.26-2.2-.468-5.676-.4-8.041C356.038,169.832,356.119,165.691,356.224,161.541Z" transform="translate(-355.629 -106.275)"/>
        </g>
        <g id="Group_7" data-name="Group 7" transform="translate(129.704 56.964)">
          <path id="Path_37" data-name="Path 37" d="M303.575,116.2a6.316,6.316,0,0,1,3.286-3.132.33.33,0,0,0-.17-.638,6.258,6.258,0,0,0-4.109,3.189C302.275,116.282,303.219,116.863,303.575,116.2Zm.484-3.689c.234-.169.105-.654-.218-.517a9.223,9.223,0,0,0-4.828,4.61c-.177.444.517.856.807.477.63-.807,1.106-1.7,1.8-2.454A17.9,17.9,0,0,1,304.059,112.512ZM327.495,126c-.646,9.171-8.452,14.4-17.082,14.483a.337.337,0,0,0-.2.065c-4.294-.428-9.1-1.122-11.94-4.464a16.685,16.685,0,0,1-3.326-13.724,16.872,16.872,0,0,1,17.478-13.353A16.146,16.146,0,0,1,327.495,126Z" transform="translate(-287.253 -107.524)" fill="#fff"/>
          <path id="Path_38" data-name="Path 38" d="M326.04,211a.207.207,0,0,0-.379-.153,3.368,3.368,0,0,1-.719.864,5.153,5.153,0,0,1-.961.493.358.358,0,0,0,.177.662A2.291,2.291,0,0,0,326.04,211ZM298.9,243.27a3.437,3.437,0,0,1-1.873.016,5.431,5.431,0,0,1-1.509-.9c-.331-.218-.727.21-.533.541.791,1.324,2.874,1.55,4.149.888C299.439,243.657,299.221,243.189,298.9,243.27Zm-.162-.428c.444-.088,1.122-.234,1.324-.678a.177.177,0,0,0-.105-.258c-.4-.105-.824.129-1.227.2a12.037,12.037,0,0,1-1.614.056.31.31,0,0,0-.081.606A3.211,3.211,0,0,0,298.737,242.842Zm20.909-29.426a.619.619,0,0,0-.234-.242c.056-8.808.323-17.776-.581-26.471a.469.469,0,0,0-.937,0c-.525,7.209-.024,14.58.025,21.806q.072,10.523.153,21.054c.032,3.463.557,7.427.088,10.858-.46,3.407-1.961,5.118-5.239,5.053-4.4-.08-5.441-3.278-5.571-6.822-.25-7.048-.266-14.111-.388-21.167a4.84,4.84,0,0,0,2.874-1.025.316.316,0,0,0-.137-.525,16.976,16.976,0,0,0-3.262.1,30.985,30.985,0,0,1-3.665-.477c-.613-.064-.839.888-.315,1.163a7.477,7.477,0,0,0,1.744.573c-.63,7.1-.185,14.281-.807,21.394-.25,2.882-.468,5.772-4.868,6.24-3.439.363-4.763-1.582-5.231-4.876a69.418,69.418,0,0,1-.129-10.043c.121-14.047.654-28.029.089-42.076-.041-.945-1.51-.953-1.47,0q.5,11.915.355,23.831a.247.247,0,0,0-.1.041,5.384,5.384,0,0,1-8.5-3.657c-.323-1.922.088-4.263.137-6.217q.157-6.6.331-13.207c.145-5.595.84-9.656,4.957-13.805,3.673-3.705,7.282-4.666,12.327-5.053,1.671.258,3.367.388,4.965.485a.335.335,0,0,0,.153.04c5,.137,9.405-.057,13.514,3.213a20.713,20.713,0,0,1,6.733,10.608c2.454,8.315,1.138,17.107,1.6,25.632a.59.59,0,0,0,.234.468c-.016.436,0,.856-.056,1.316a3.154,3.154,0,0,1-2.244,2.753C324.337,215.119,320.793,215.491,319.646,213.416Zm5.934-.686a.4.4,0,0,0,.2.734,2.007,2.007,0,0,0,1.647-1.283,1.849,1.849,0,0,0-.194-2.019c-.186-.153-.541-.064-.517.218a2.579,2.579,0,0,1-.057,1.421A1.947,1.947,0,0,1,325.58,212.73Z" transform="translate(-282.052 -135.78)" fill="#fff"/>
          <path id="Path_39" data-name="Path 39" d="M303.59,119.681c.63-.807,1.106-1.7,1.8-2.454a17.9,17.9,0,0,1,2.438-2.115c.234-.169.105-.654-.218-.517a9.223,9.223,0,0,0-4.828,4.61C302.606,119.649,303.3,120.061,303.59,119.681Z" transform="translate(-291.023 -110.125)"/>
          <path id="Path_40" data-name="Path 40" d="M304.948,305.664c.791,1.324,2.874,1.55,4.149.888.307-.162.089-.63-.234-.549a3.437,3.437,0,0,1-1.873.016,5.43,5.43,0,0,1-1.509-.9C305.149,304.905,304.754,305.333,304.948,305.664Z" transform="translate(-292.017 -198.513)"/>
          <path id="Path_41" data-name="Path 41" d="M308.711,304.506a.31.31,0,0,0-.081.606,3.211,3.211,0,0,0,1.7.072c.444-.088,1.122-.234,1.324-.678a.177.177,0,0,0-.105-.258c-.4-.105-.824.129-1.227.2A12.042,12.042,0,0,1,308.711,304.506Z" transform="translate(-293.65 -198.122)"/>
          <path id="Path_42" data-name="Path 42" d="M313.522,115.42a6.257,6.257,0,0,0-4.109,3.189c-.307.662.638,1.243.993.581a6.316,6.316,0,0,1,3.286-3.132A.33.33,0,0,0,313.522,115.42Z" transform="translate(-294.085 -110.513)"/>
          <path id="Path_43" data-name="Path 43" d="M358.946,247.594a.358.358,0,0,0,.177.662A2.291,2.291,0,0,0,361,246.391a.207.207,0,0,0-.379-.153,3.368,3.368,0,0,1-.719.864A5.154,5.154,0,0,1,358.946,247.594Z" transform="translate(-317.017 -171.169)"/>
          <path id="Path_44" data-name="Path 44" d="M363.047,245.2a2.58,2.58,0,0,1-.057,1.421,1.947,1.947,0,0,1-1.082.928.4.4,0,0,0,.2.734A2.007,2.007,0,0,0,363.757,247a1.849,1.849,0,0,0-.194-2.019C363.378,244.831,363.023,244.92,363.047,245.2Z" transform="translate(-318.381 -170.602)"/>
          <path id="Path_45" data-name="Path 45" d="M303.825,139.3a.337.337,0,0,1,.2-.065c8.63-.08,16.436-5.312,17.082-14.483a16.146,16.146,0,0,0-15.072-16.994,16.872,16.872,0,0,0-17.478,13.353,16.685,16.685,0,0,0,3.326,13.724C294.727,138.178,299.53,138.873,303.825,139.3Zm-12.965,43a.247.247,0,0,1,.1-.041q.133-11.915-.355-23.831c-.04-.953,1.429-.945,1.47,0,.565,14.047.032,28.029-.089,42.076a69.418,69.418,0,0,0,.129,10.043c.468,3.294,1.792,5.239,5.231,4.876,4.4-.468,4.618-3.358,4.868-6.24.622-7.113.177-14.3.807-21.394a7.476,7.476,0,0,1-1.744-.573c-.525-.274-.3-1.227.315-1.163a30.991,30.991,0,0,0,3.665.477,16.976,16.976,0,0,1,3.262-.1.315.315,0,0,1,.137.525,4.84,4.84,0,0,1-2.874,1.025c.121,7.056.137,14.119.388,21.167.129,3.544,1.171,6.741,5.571,6.822,3.278.065,4.779-1.647,5.239-5.053.468-3.431-.056-7.4-.088-10.858q-.085-10.523-.153-21.054c-.049-7.226-.549-14.6-.025-21.806a.469.469,0,0,1,.937,0c.9,8.695.637,17.664.581,26.471a.619.619,0,0,1,.234.242c1.147,2.075,4.691,1.7,6.547.961a3.154,3.154,0,0,0,2.244-2.753c.056-.46.04-.88.056-1.316a.591.591,0,0,1-.234-.468c-.46-8.525.856-17.317-1.6-25.632a20.713,20.713,0,0,0-6.733-10.608c-4.109-3.27-8.517-3.076-13.514-3.213a.335.335,0,0,1-.153-.04c-1.6-.1-3.294-.226-4.965-.485-5.046.388-8.654,1.348-12.327,5.053-4.117,4.15-4.812,8.21-4.957,13.805q-.17,6.6-.331,13.207c-.049,1.954-.46,4.295-.137,6.217A5.384,5.384,0,0,0,290.859,182.3Zm-9.4-20.756c.145-6.345.145-11.859,4.779-16.663a18.666,18.666,0,0,1,9.5-5.627,11.851,11.851,0,0,1-5.022-3.39,18.214,18.214,0,0,1,15.88-29.5,17.6,17.6,0,0,1,15.936,19,16.767,16.767,0,0,1-12.013,14.4c6.152.436,11.351,3.875,14.491,9.841,4.892,9.316,3,20.659,3.334,30.734a.611.611,0,0,1-.056.282,4.433,4.433,0,0,1-3.132,5.619c-2.107.726-5.159.92-6.943-.6,0,.9-.008,1.808,0,2.7q.06,7.472.113,14.927c.024,3.374,1.033,8.4-.9,11.455-2.341,3.7-9.163,3.375-11.593-.041-1.962-2.761-1.057-7.741-1.122-10.89q-.145-7.908-.3-15.807c-.234-.016-.468-.048-.695-.081a90.177,90.177,0,0,1,.2,14.394c-.129,3.431.307,7.976-1.2,11.2-1.817,3.859-8.808,4.747-11.214.928-1.736-2.736-.9-7.75-.9-10.834-.024-4.892.121-9.793.242-14.685.049-1.865.073-3.729.1-5.595-2.535,2.067-7.653,1.711-9.364-1.291-1.26-2.2-.468-5.676-.4-8.041C281.277,169.832,281.358,165.691,281.463,161.541Z" transform="translate(-280.868 -106.275)"/>
        </g>
        <g id="Group_8" data-name="Group 8" transform="translate(70.417 80.524)">
          <path id="Path_46" data-name="Path 46" d="M208.871,159.576a6.253,6.253,0,0,0-4.109-3.189.33.33,0,0,0-.169.638,6.316,6.316,0,0,1,3.286,3.132C208.233,160.82,209.178,160.238,208.871,159.576Zm.961-.993c.694.759,1.171,1.647,1.8,2.454.291.379.985-.032.808-.476a9.223,9.223,0,0,0-4.828-4.61c-.323-.137-.452.347-.218.517A17.867,17.867,0,0,1,209.832,158.584Zm-10.8-5.619a16.872,16.872,0,0,1,17.478,13.353,16.685,16.685,0,0,1-3.326,13.724c-2.841,3.342-7.645,4.037-11.94,4.464a.335.335,0,0,0-.2-.064c-8.63-.081-16.437-5.312-17.083-14.483A16.147,16.147,0,0,1,199.03,152.965Z" transform="translate(-176.597 -151.481)" fill="#fff"/>
          <path id="Path_47" data-name="Path 47" d="M176.759,256.823a.358.358,0,0,0,.178-.662,5.111,5.111,0,0,1-.961-.493,3.352,3.352,0,0,1-.718-.863.207.207,0,0,0-.379.153A2.289,2.289,0,0,0,176.759,256.823Zm25.026,30.952c1.276.662,3.359.436,4.15-.888.193-.331-.2-.758-.533-.541a5.4,5.4,0,0,1-1.51.9,3.436,3.436,0,0,1-1.873-.016C201.7,287.145,201.479,287.613,201.786,287.775Zm2.1-1.049a.31.31,0,0,0-.081-.605,12.043,12.043,0,0,1-1.614-.057c-.4-.072-.823-.307-1.227-.2a.177.177,0,0,0-.105.258c.2.444.88.589,1.324.678A3.21,3.21,0,0,0,203.885,286.725Zm-29.159-28.392a3.153,3.153,0,0,1-2.244-2.753c-.057-.46-.041-.88-.057-1.316a.59.59,0,0,0,.234-.468c.46-8.525-.856-17.317,1.6-25.632a20.712,20.712,0,0,1,6.733-10.608c4.109-3.27,8.517-3.076,13.514-3.213a.337.337,0,0,0,.154-.04c1.6-.1,3.294-.226,4.964-.485,5.046.388,8.654,1.349,12.327,5.054,4.118,4.15,4.812,8.21,4.957,13.8q.17,6.6.331,13.208c.048,1.954.46,4.295.137,6.216a5.384,5.384,0,0,1-8.5,3.657.247.247,0,0,0-.1-.04q-.133-11.916.355-23.832c.04-.952-1.429-.944-1.469,0-.565,14.047-.032,28.03.088,42.077A69.333,69.333,0,0,1,207.622,284c-.468,3.294-1.792,5.239-5.231,4.877-4.4-.468-4.618-3.359-4.868-6.241-.621-7.112-.177-14.3-.807-21.393a7.513,7.513,0,0,0,1.744-.573c.525-.274.3-1.227-.315-1.163a30.955,30.955,0,0,1-3.665.476,16.977,16.977,0,0,0-3.262-.1.316.316,0,0,0-.137.525,4.842,4.842,0,0,0,2.874,1.025c-.121,7.056-.137,14.12-.388,21.168-.129,3.544-1.171,6.741-5.57,6.822-3.278.064-4.78-1.647-5.239-5.054-.468-3.431.056-7.395.089-10.858q.084-10.524.153-21.055c.048-7.225.549-14.6.024-21.805a.468.468,0,0,0-.936,0c-.9,8.694-.638,17.663-.582,26.471a.622.622,0,0,0-.234.242C180.126,259.447,176.582,259.075,174.725,258.333Zm-.468-2.576a2.574,2.574,0,0,1-.056-1.421c.024-.282-.331-.371-.517-.218a1.848,1.848,0,0,0-.194,2.018,2.007,2.007,0,0,0,1.647,1.284.4.4,0,0,0,.2-.735A1.951,1.951,0,0,1,174.257,255.757Z" transform="translate(-171.263 -179.736)" fill="#fff"/>
          <path id="Path_48" data-name="Path 48" d="M231.85,163.638c-.629-.807-1.106-1.695-1.8-2.454a17.867,17.867,0,0,0-2.438-2.115c-.234-.17-.105-.654.218-.517a9.223,9.223,0,0,1,4.828,4.61C232.835,163.605,232.141,164.017,231.85,163.638Z" transform="translate(-196.815 -154.081)"/>
          <path id="Path_49" data-name="Path 49" d="M231.225,349.621c-.791,1.324-2.874,1.55-4.15.888-.307-.161-.089-.63.234-.549a3.436,3.436,0,0,0,1.873.016,5.4,5.4,0,0,0,1.51-.9C231.023,348.862,231.419,349.29,231.225,349.621Z" transform="translate(-196.553 -242.47)"/>
          <path id="Path_50" data-name="Path 50" d="M228.4,348.463a.31.31,0,0,1,.081.605,3.21,3.21,0,0,1-1.7.073c-.444-.089-1.122-.234-1.324-.678a.177.177,0,0,1,.105-.258c.4-.105.823.129,1.227.2A12.038,12.038,0,0,0,228.4,348.463Z" transform="translate(-195.858 -242.079)"/>
          <path id="Path_51" data-name="Path 51" d="M222.457,159.377a6.253,6.253,0,0,1,4.109,3.189c.307.662-.638,1.244-.993.582a6.316,6.316,0,0,0-3.286-3.132A.33.33,0,0,1,222.457,159.377Z" transform="translate(-194.292 -154.47)"/>
          <path id="Path_52" data-name="Path 52" d="M179.06,291.551a.358.358,0,0,1-.178.662A2.289,2.289,0,0,1,177,290.348a.207.207,0,0,1,.379-.153,3.352,3.352,0,0,0,.718.864A5.109,5.109,0,0,0,179.06,291.551Z" transform="translate(-173.386 -215.125)"/>
          <path id="Path_53" data-name="Path 53" d="M174.946,289.159A2.574,2.574,0,0,0,175,290.58a1.951,1.951,0,0,0,1.082.928.4.4,0,0,1-.2.735,2.007,2.007,0,0,1-1.647-1.284,1.848,1.848,0,0,1,.194-2.018C174.615,288.787,174.97,288.876,174.946,289.159Z" transform="translate(-172.009 -214.558)"/>
          <path id="Path_54" data-name="Path 54" d="M206.843,178.792a16.685,16.685,0,0,0,3.326-13.724,16.872,16.872,0,0,0-17.478-13.353,16.147,16.147,0,0,0-15.072,16.993c.646,9.171,8.453,14.4,17.083,14.483a.335.335,0,0,1,.2.064C199.2,182.829,204,182.135,206.843,178.792Zm9.526,43.8c.323-1.921-.089-4.262-.137-6.216q-.158-6.6-.331-13.208c-.145-5.594-.839-9.655-4.957-13.8-3.673-3.705-7.282-4.666-12.327-5.054-1.671.258-3.366.388-4.964.485a.337.337,0,0,1-.154.04c-5,.137-9.4-.056-13.514,3.213a20.712,20.712,0,0,0-6.733,10.608c-2.454,8.315-1.138,17.106-1.6,25.632a.59.59,0,0,1-.234.468c.016.436,0,.855.057,1.316a3.153,3.153,0,0,0,2.244,2.753c1.857.742,5.4,1.114,6.547-.961a.622.622,0,0,1,.234-.242c-.056-8.808-.323-17.776.582-26.471a.468.468,0,0,1,.936,0c.525,7.209.024,14.58-.024,21.805q-.073,10.523-.153,21.055c-.033,3.463-.557,7.427-.089,10.858.46,3.407,1.962,5.118,5.239,5.054,4.4-.081,5.441-3.278,5.57-6.822.25-7.048.266-14.112.388-21.168a4.842,4.842,0,0,1-2.874-1.025.316.316,0,0,1,.137-.525,16.974,16.974,0,0,1,3.262.1,30.955,30.955,0,0,0,3.665-.476c.614-.065.84.888.315,1.163a7.513,7.513,0,0,1-1.744.573c.63,7.1.186,14.281.807,21.393.25,2.882.468,5.772,4.868,6.241,3.439.363,4.763-1.583,5.231-4.877a69.336,69.336,0,0,0,.129-10.042c-.121-14.047-.654-28.03-.088-42.077.04-.944,1.509-.952,1.469,0q-.5,11.916-.355,23.832a.247.247,0,0,1,.1.04A5.384,5.384,0,0,0,216.37,222.6Zm1.187-4.658c.064,2.365.855,5.837-.4,8.041-1.711,3-6.83,3.359-9.365,1.292.025,1.865.049,3.729.1,5.594.121,4.893.266,9.793.242,14.685-.008,3.084.831,8.1-.9,10.834-2.406,3.818-9.4,2.93-11.213-.928-1.51-3.221-1.074-7.766-1.2-11.2a90.174,90.174,0,0,1,.2-14.394c-.226.032-.46.064-.694.081q-.146,7.907-.3,15.807c-.064,3.148.84,8.13-1.122,10.89-2.43,3.415-9.252,3.738-11.593.04-1.937-3.051-.928-8.081-.9-11.455q.06-7.46.113-14.927c.008-.9,0-1.8,0-2.7-1.784,1.517-4.835,1.324-6.943.6a4.432,4.432,0,0,1-3.132-5.619.6.6,0,0,1-.057-.282c.331-10.075-1.558-21.417,3.334-30.734,3.14-5.966,8.339-9.405,14.491-9.841a16.768,16.768,0,0,1-12.013-14.4,17.6,17.6,0,0,1,15.936-19,18.214,18.214,0,0,1,15.88,29.5,11.855,11.855,0,0,1-5.021,3.391,18.661,18.661,0,0,1,9.5,5.627c4.634,4.8,4.634,10.317,4.78,16.663C217.37,209.647,217.451,213.789,217.556,217.938Z" transform="translate(-170.258 -150.232)"/>
        </g>
        <g id="Group_9" data-name="Group 9" transform="translate(28.642 83.048)">
          <path id="Path_55" data-name="Path 55" d="M130.932,164.285a6.255,6.255,0,0,0-4.11-3.189.33.33,0,0,0-.169.637,6.316,6.316,0,0,1,3.286,3.132C130.294,165.528,131.238,164.947,130.932,164.285Zm.961-.993c.694.759,1.171,1.647,1.8,2.454.291.379.985-.032.807-.477a9.223,9.223,0,0,0-4.828-4.61c-.323-.137-.452.347-.218.517A17.9,17.9,0,0,1,131.892,163.292Zm-10.8-5.619a16.872,16.872,0,0,1,17.478,13.353,16.686,16.686,0,0,1-3.326,13.724c-2.841,3.342-7.645,4.037-11.94,4.464a.334.334,0,0,0-.2-.065c-8.63-.08-16.436-5.312-17.082-14.483A16.146,16.146,0,0,1,121.091,157.673Z" transform="translate(-98.657 -156.189)" fill="#fff"/>
          <path id="Path_56" data-name="Path 56" d="M98.819,261.532A.358.358,0,0,0,99,260.87a5.105,5.105,0,0,1-.961-.493,3.356,3.356,0,0,1-.719-.864.207.207,0,0,0-.379.154A2.291,2.291,0,0,0,98.819,261.532Zm25.026,30.952c1.276.662,3.359.436,4.15-.888.193-.331-.2-.759-.533-.541a5.428,5.428,0,0,1-1.51.9,3.436,3.436,0,0,1-1.873-.016C123.757,291.854,123.539,292.322,123.846,292.484Zm2.1-1.049a.31.31,0,0,0-.08-.606,12.05,12.05,0,0,1-1.615-.056c-.4-.073-.823-.307-1.227-.2a.177.177,0,0,0-.105.258c.2.444.88.59,1.324.678A3.21,3.21,0,0,0,125.945,291.434ZM96.785,263.041a3.153,3.153,0,0,1-2.244-2.753c-.057-.46-.04-.88-.057-1.316a.589.589,0,0,0,.234-.468c.46-8.525-.855-17.317,1.6-25.632a20.714,20.714,0,0,1,6.733-10.607c4.109-3.27,8.517-3.076,13.514-3.213a.335.335,0,0,0,.153-.04c1.6-.1,3.294-.226,4.965-.485,5.045.388,8.654,1.348,12.327,5.054,4.117,4.149,4.811,8.21,4.957,13.8q.169,6.6.331,13.207c.048,1.954.46,4.295.137,6.217a5.384,5.384,0,0,1-8.5,3.657.249.249,0,0,0-.1-.041q-.133-11.915.355-23.831c.041-.953-1.429-.945-1.469,0-.565,14.047-.032,28.029.089,42.077a69.492,69.492,0,0,1-.129,10.042c-.468,3.294-1.792,5.239-5.231,4.876-4.4-.468-4.618-3.358-4.868-6.24-.622-7.113-.178-14.3-.807-21.393a7.508,7.508,0,0,0,1.744-.574c.525-.274.3-1.227-.315-1.163a30.985,30.985,0,0,1-3.665.477,17.019,17.019,0,0,0-3.262-.1.315.315,0,0,0-.137.525,4.84,4.84,0,0,0,2.874,1.025c-.121,7.056-.137,14.12-.388,21.167-.129,3.544-1.171,6.741-5.571,6.822-3.278.065-4.779-1.647-5.239-5.053-.468-3.431.057-7.395.089-10.858q.084-10.523.153-21.054c.048-7.225.549-14.6.024-21.806a.468.468,0,0,0-.936,0c-.9,8.7-.638,17.664-.581,26.471a.616.616,0,0,0-.234.242C102.186,264.156,98.642,263.784,96.785,263.041Zm-.468-2.575a2.584,2.584,0,0,1-.056-1.421c.024-.282-.331-.371-.517-.218a1.849,1.849,0,0,0-.193,2.019,2.007,2.007,0,0,0,1.647,1.283.4.4,0,0,0,.2-.734A1.95,1.95,0,0,1,96.317,260.466Z" transform="translate(-93.323 -184.445)" fill="#fff"/>
          <path id="Path_57" data-name="Path 57" d="M153.91,168.346c-.63-.807-1.106-1.7-1.8-2.454a17.9,17.9,0,0,0-2.438-2.115c-.234-.169-.1-.654.218-.517a9.223,9.223,0,0,1,4.828,4.61C154.9,168.314,154.2,168.726,153.91,168.346Z" transform="translate(-118.875 -158.79)"/>
          <path id="Path_58" data-name="Path 58" d="M153.285,354.329c-.791,1.324-2.874,1.55-4.15.888-.307-.162-.088-.63.234-.549a3.436,3.436,0,0,0,1.873.016,5.427,5.427,0,0,0,1.51-.9C153.083,353.57,153.479,354,153.285,354.329Z" transform="translate(-118.613 -247.178)"/>
          <path id="Path_59" data-name="Path 59" d="M150.459,353.171a.31.31,0,0,1,.08.606,3.21,3.21,0,0,1-1.7.072c-.444-.088-1.122-.234-1.324-.678a.177.177,0,0,1,.105-.258c.4-.105.823.129,1.227.2A12.045,12.045,0,0,0,150.459,353.171Z" transform="translate(-117.918 -246.787)"/>
          <path id="Path_60" data-name="Path 60" d="M144.517,164.086a6.255,6.255,0,0,1,4.11,3.189c.307.662-.638,1.243-.993.581a6.316,6.316,0,0,0-3.286-3.132A.33.33,0,0,1,144.517,164.086Z" transform="translate(-116.352 -159.179)"/>
          <path id="Path_61" data-name="Path 61" d="M101.12,296.259a.358.358,0,0,1-.178.662,2.291,2.291,0,0,1-1.881-1.865.207.207,0,0,1,.379-.154,3.357,3.357,0,0,0,.719.864A5.1,5.1,0,0,0,101.12,296.259Z" transform="translate(-95.446 -219.834)"/>
          <path id="Path_62" data-name="Path 62" d="M97.006,293.868a2.584,2.584,0,0,0,.056,1.421,1.95,1.95,0,0,0,1.082.928.4.4,0,0,1-.2.734,2.007,2.007,0,0,1-1.647-1.283,1.849,1.849,0,0,1,.193-2.019C96.675,293.5,97.031,293.585,97.006,293.868Z" transform="translate(-94.069 -219.267)"/>
          <path id="Path_63" data-name="Path 63" d="M128.9,183.5a16.686,16.686,0,0,0,3.326-13.724,16.872,16.872,0,0,0-17.478-13.353A16.146,16.146,0,0,0,99.68,173.418c.646,9.171,8.452,14.4,17.082,14.483a.334.334,0,0,1,.2.065C121.258,187.538,126.062,186.843,128.9,183.5Zm9.526,43.8c.323-1.922-.089-4.263-.137-6.217q-.158-6.6-.331-13.207c-.146-5.595-.84-9.656-4.957-13.8-3.673-3.706-7.282-4.666-12.327-5.054-1.671.258-3.367.388-4.965.485a.335.335,0,0,1-.153.04c-5,.137-9.405-.057-13.514,3.213a20.714,20.714,0,0,0-6.733,10.607c-2.454,8.315-1.138,17.107-1.6,25.632a.589.589,0,0,1-.234.468c.017.436,0,.856.057,1.316a3.153,3.153,0,0,0,2.244,2.753c1.857.743,5.4,1.114,6.547-.961a.616.616,0,0,1,.234-.242c-.057-8.808-.323-17.776.581-26.471a.468.468,0,0,1,.936,0c.525,7.209.024,14.58-.024,21.806q-.072,10.523-.153,21.054c-.032,3.464-.557,7.427-.089,10.858.46,3.407,1.962,5.118,5.239,5.053,4.4-.08,5.441-3.278,5.571-6.822.25-7.047.266-14.111.388-21.167a4.84,4.84,0,0,1-2.874-1.025.315.315,0,0,1,.137-.525,17.019,17.019,0,0,1,3.262.1,30.985,30.985,0,0,0,3.665-.477c.613-.064.839.888.315,1.163a7.508,7.508,0,0,1-1.744.574c.629,7.1.185,14.281.807,21.393.25,2.882.468,5.772,4.868,6.24,3.439.363,4.763-1.582,5.231-4.876a69.492,69.492,0,0,0,.129-10.042c-.121-14.047-.654-28.03-.089-42.077.04-.945,1.51-.953,1.469,0q-.5,11.915-.355,23.831a.249.249,0,0,1,.1.041A5.384,5.384,0,0,0,138.43,227.305Zm1.187-4.658c.065,2.365.856,5.837-.4,8.041-1.711,3-6.83,3.358-9.364,1.291.024,1.865.048,3.73.1,5.595.121,4.892.266,9.793.242,14.685-.008,3.084.832,8.1-.9,10.834-2.406,3.818-9.4,2.93-11.213-.928-1.51-3.221-1.074-7.767-1.2-11.2a90.175,90.175,0,0,1,.2-14.394c-.226.033-.46.065-.694.081q-.146,7.907-.3,15.807c-.065,3.148.839,8.13-1.122,10.89-2.43,3.415-9.251,3.738-11.593.04-1.938-3.051-.928-8.081-.9-11.455q.06-7.46.113-14.927c.008-.9,0-1.8,0-2.7-1.784,1.518-4.836,1.324-6.943.6a4.432,4.432,0,0,1-3.132-5.619.611.611,0,0,1-.057-.283c.331-10.075-1.558-21.418,3.334-30.734,3.14-5.966,8.339-9.4,14.491-9.841a16.766,16.766,0,0,1-12.012-14.4,17.6,17.6,0,0,1,15.936-19,18.214,18.214,0,0,1,15.88,29.5,11.846,11.846,0,0,1-5.021,3.39,18.662,18.662,0,0,1,9.5,5.627c4.634,4.8,4.634,10.317,4.78,16.663C139.431,214.356,139.511,218.5,139.616,222.647Z" transform="translate(-92.318 -154.94)"/>
        </g>
        <g id="Group_10" data-name="Group 10" transform="translate(150.836 83.048)">
          <path id="Path_64" data-name="Path 64" d="M343,164.866a6.316,6.316,0,0,1,3.286-3.132.33.33,0,0,0-.169-.637,6.253,6.253,0,0,0-4.109,3.189C341.7,164.947,342.643,165.528,343,164.866Zm.485-3.689c.234-.169.105-.654-.218-.517a9.223,9.223,0,0,0-4.828,4.61c-.177.444.517.856.808.477.629-.807,1.106-1.7,1.8-2.454A17.9,17.9,0,0,1,343.483,161.177Zm23.436,13.49c-.646,9.171-8.453,14.4-17.083,14.483a.335.335,0,0,0-.2.065c-4.295-.428-9.1-1.122-11.94-4.464a16.686,16.686,0,0,1-3.326-13.724,16.873,16.873,0,0,1,17.478-13.353A16.147,16.147,0,0,1,366.919,174.667Z" transform="translate(-326.678 -156.189)" fill="#fff"/>
          <path id="Path_65" data-name="Path 65" d="M365.464,259.667a.207.207,0,0,0-.379-.154,3.355,3.355,0,0,1-.718.864,5.127,5.127,0,0,1-.961.493.358.358,0,0,0,.178.662A2.291,2.291,0,0,0,365.464,259.667Zm-27.141,32.268a3.436,3.436,0,0,1-1.873.016,5.427,5.427,0,0,1-1.51-.9c-.331-.218-.726.21-.533.541.791,1.324,2.874,1.55,4.15.888C338.864,292.322,338.646,291.854,338.323,291.935Zm-.161-.428c.444-.088,1.122-.234,1.324-.678a.177.177,0,0,0-.105-.258c-.4-.105-.823.129-1.227.2a12.043,12.043,0,0,1-1.614.056.31.31,0,0,0-.081.606A3.21,3.21,0,0,0,338.161,291.507Zm20.909-29.426a.618.618,0,0,0-.234-.242c.056-8.808.323-17.776-.582-26.471a.468.468,0,0,0-.936,0c-.525,7.209-.024,14.58.024,21.806q.073,10.523.153,21.054c.033,3.464.557,7.427.089,10.858-.46,3.407-1.962,5.118-5.239,5.053-4.4-.08-5.441-3.278-5.57-6.822-.25-7.047-.266-14.111-.388-21.167a4.843,4.843,0,0,0,2.874-1.025.316.316,0,0,0-.137-.525,17.017,17.017,0,0,0-3.262.1,30.957,30.957,0,0,1-3.665-.477c-.614-.064-.84.888-.315,1.163a7.512,7.512,0,0,0,1.744.574c-.63,7.1-.186,14.281-.808,21.393-.25,2.882-.468,5.772-4.868,6.24-3.439.363-4.763-1.582-5.231-4.876a69.486,69.486,0,0,1-.129-10.042c.121-14.047.654-28.03.089-42.077-.04-.945-1.509-.953-1.469,0q.5,11.915.355,23.831a.248.248,0,0,0-.1.041,5.384,5.384,0,0,1-8.5-3.657c-.323-1.922.089-4.263.137-6.217q.158-6.6.331-13.207c.145-5.595.839-9.656,4.956-13.8,3.673-3.706,7.282-4.666,12.327-5.054,1.671.258,3.367.388,4.965.485a.336.336,0,0,0,.153.04c5,.137,9.405-.057,13.514,3.213a20.711,20.711,0,0,1,6.733,10.607c2.454,8.315,1.138,17.107,1.6,25.632a.589.589,0,0,0,.234.468c-.016.436,0,.856-.057,1.316a3.153,3.153,0,0,1-2.244,2.753C363.761,263.784,360.217,264.156,359.07,262.081Zm5.934-.686a.4.4,0,0,0,.2.734,2.008,2.008,0,0,0,1.647-1.283,1.849,1.849,0,0,0-.194-2.019c-.185-.153-.541-.064-.517.218a2.574,2.574,0,0,1-.056,1.421A1.951,1.951,0,0,1,365,261.395Z" transform="translate(-321.477 -184.445)" fill="#fff"/>
          <path id="Path_66" data-name="Path 66" d="M343.015,168.346c.629-.807,1.106-1.7,1.8-2.454a17.9,17.9,0,0,1,2.438-2.115c.234-.169.105-.654-.218-.517a9.223,9.223,0,0,0-4.828,4.61C342.03,168.314,342.724,168.726,343.015,168.346Z" transform="translate(-330.448 -158.79)"/>
          <path id="Path_67" data-name="Path 67" d="M344.372,354.329c.791,1.324,2.874,1.55,4.15.888.307-.162.089-.63-.234-.549a3.436,3.436,0,0,1-1.873.016,5.427,5.427,0,0,1-1.51-.9C344.574,353.57,344.178,354,344.372,354.329Z" transform="translate(-331.442 -247.178)"/>
          <path id="Path_68" data-name="Path 68" d="M348.136,353.171a.31.31,0,0,0-.081.606,3.21,3.21,0,0,0,1.7.072c.444-.088,1.122-.234,1.324-.678a.177.177,0,0,0-.105-.258c-.4-.105-.823.129-1.227.2A12.037,12.037,0,0,1,348.136,353.171Z" transform="translate(-333.074 -246.787)"/>
          <path id="Path_69" data-name="Path 69" d="M352.947,164.086a6.253,6.253,0,0,0-4.109,3.189c-.307.662.637,1.243.993.581a6.316,6.316,0,0,1,3.286-3.132A.33.33,0,0,0,352.947,164.086Z" transform="translate(-333.509 -159.179)"/>
          <path id="Path_70" data-name="Path 70" d="M398.37,296.259a.358.358,0,0,0,.178.662,2.291,2.291,0,0,0,1.881-1.865.207.207,0,0,0-.379-.154,3.356,3.356,0,0,1-.718.864A5.125,5.125,0,0,1,398.37,296.259Z" transform="translate(-356.441 -219.834)"/>
          <path id="Path_71" data-name="Path 71" d="M402.471,293.868a2.574,2.574,0,0,1-.056,1.421,1.951,1.951,0,0,1-1.082.928.4.4,0,0,0,.2.734,2.008,2.008,0,0,0,1.647-1.283,1.849,1.849,0,0,0-.194-2.019C402.8,293.5,402.447,293.585,402.471,293.868Z" transform="translate(-357.806 -219.267)"/>
          <path id="Path_72" data-name="Path 72" d="M343.25,187.965a.335.335,0,0,1,.2-.065c8.63-.08,16.437-5.312,17.083-14.483a16.147,16.147,0,0,0-15.072-16.994,16.873,16.873,0,0,0-17.478,13.353A16.686,16.686,0,0,0,331.31,183.5C334.151,186.843,338.955,187.538,343.25,187.965Zm-12.965,43a.248.248,0,0,1,.1-.041q.133-11.915-.355-23.831c-.04-.953,1.429-.945,1.469,0,.565,14.047.032,28.029-.089,42.077a69.49,69.49,0,0,0,.129,10.042c.468,3.294,1.792,5.239,5.231,4.876,4.4-.468,4.618-3.358,4.868-6.24.622-7.113.178-14.3.808-21.393a7.513,7.513,0,0,1-1.744-.574c-.525-.274-.3-1.227.315-1.163a30.956,30.956,0,0,0,3.665.477,17.017,17.017,0,0,1,3.262-.1.316.316,0,0,1,.137.525,4.843,4.843,0,0,1-2.874,1.025c.121,7.056.137,14.12.388,21.167.129,3.544,1.171,6.741,5.57,6.822,3.278.065,4.779-1.647,5.239-5.053.468-3.431-.056-7.395-.089-10.858q-.084-10.523-.153-21.054c-.048-7.225-.549-14.6-.024-21.806a.468.468,0,0,1,.936,0c.9,8.7.638,17.664.582,26.471a.618.618,0,0,1,.234.242c1.147,2.075,4.691,1.7,6.547.961a3.153,3.153,0,0,0,2.244-2.753c.057-.46.041-.88.057-1.316A.589.589,0,0,1,366.5,229c-.46-8.525.856-17.317-1.6-25.632a20.71,20.71,0,0,0-6.733-10.607c-4.109-3.27-8.516-3.076-13.514-3.213a.336.336,0,0,1-.153-.04c-1.6-.1-3.294-.226-4.965-.485-5.045.388-8.654,1.348-12.327,5.054-4.117,4.149-4.811,8.21-4.956,13.8q-.17,6.6-.331,13.207c-.048,1.954-.46,4.295-.137,6.217A5.384,5.384,0,0,0,330.284,230.962Zm-9.4-20.756c.145-6.345.145-11.859,4.78-16.663a18.664,18.664,0,0,1,9.5-5.627,11.846,11.846,0,0,1-5.021-3.39,18.214,18.214,0,0,1,15.88-29.5,17.6,17.6,0,0,1,15.936,19,16.766,16.766,0,0,1-12.012,14.4c6.152.436,11.35,3.875,14.491,9.841,4.893,9.316,3,20.659,3.334,30.734a.6.6,0,0,1-.057.283,4.432,4.432,0,0,1-3.132,5.619c-2.107.726-5.158.92-6.943-.6,0,.9-.008,1.809,0,2.7q.061,7.472.113,14.927c.025,3.374,1.033,8.4-.9,11.455-2.341,3.7-9.162,3.375-11.593-.04-1.962-2.761-1.058-7.742-1.122-10.89q-.145-7.908-.3-15.807c-.234-.016-.468-.048-.694-.081a90.181,90.181,0,0,1,.2,14.394c-.129,3.431.307,7.976-1.2,11.2-1.816,3.859-8.808,4.747-11.213.928-1.736-2.737-.9-7.751-.9-10.834-.024-4.892.121-9.793.242-14.685.048-1.865.072-3.729.1-5.595-2.535,2.067-7.654,1.711-9.365-1.291-1.259-2.2-.468-5.676-.4-8.041C320.7,218.5,320.782,214.356,320.887,210.206Z" transform="translate(-320.292 -154.94)"/>
        </g>
        <g id="Group_11" data-name="Group 11" transform="translate(110.764 83.048)">
          <path id="Path_73" data-name="Path 73" d="M268.238,164.866a6.316,6.316,0,0,1,3.286-3.132.33.33,0,0,0-.169-.637,6.253,6.253,0,0,0-4.109,3.189C266.938,164.947,267.882,165.528,268.238,164.866Zm.485-3.689c.234-.169.105-.654-.218-.517a9.223,9.223,0,0,0-4.828,4.61c-.177.444.517.856.808.477.629-.807,1.106-1.7,1.8-2.454A17.9,17.9,0,0,1,268.722,161.177Zm23.436,13.49c-.646,9.171-8.453,14.4-17.083,14.483a.335.335,0,0,0-.2.065c-4.295-.428-9.1-1.122-11.94-4.464a16.686,16.686,0,0,1-3.326-13.724,16.873,16.873,0,0,1,17.478-13.353A16.147,16.147,0,0,1,292.158,174.667Z" transform="translate(-251.917 -156.189)" fill="#fff"/>
          <path id="Path_74" data-name="Path 74" d="M290.7,259.667a.207.207,0,0,0-.38-.154,3.354,3.354,0,0,1-.718.864,5.127,5.127,0,0,1-.961.493.358.358,0,0,0,.178.662A2.291,2.291,0,0,0,290.7,259.667Zm-27.141,32.268a3.436,3.436,0,0,1-1.873.016,5.428,5.428,0,0,1-1.51-.9c-.331-.218-.726.21-.533.541.791,1.324,2.874,1.55,4.15.888C264.1,292.322,263.885,291.854,263.562,291.935Zm-.161-.428c.444-.088,1.122-.234,1.324-.678a.177.177,0,0,0-.105-.258c-.4-.105-.823.129-1.227.2a12.042,12.042,0,0,1-1.614.056.31.31,0,0,0-.081.606A3.21,3.21,0,0,0,263.4,291.507Zm20.909-29.426a.618.618,0,0,0-.234-.242c.056-8.808.323-17.776-.582-26.471a.468.468,0,0,0-.936,0c-.525,7.209-.024,14.58.024,21.806q.073,10.523.153,21.054c.033,3.464.557,7.427.089,10.858-.46,3.407-1.962,5.118-5.239,5.053-4.4-.08-5.441-3.278-5.57-6.822-.25-7.047-.266-14.111-.388-21.167a4.843,4.843,0,0,0,2.874-1.025.316.316,0,0,0-.137-.525,17.017,17.017,0,0,0-3.262.1,30.955,30.955,0,0,1-3.665-.477c-.614-.064-.84.888-.315,1.163a7.514,7.514,0,0,0,1.744.574c-.63,7.1-.186,14.281-.808,21.393-.25,2.882-.468,5.772-4.868,6.24-3.439.363-4.763-1.582-5.231-4.876a69.49,69.49,0,0,1-.129-10.042c.121-14.047.654-28.03.089-42.077-.04-.945-1.509-.953-1.469,0q.5,11.915.355,23.831a.248.248,0,0,0-.1.041,5.384,5.384,0,0,1-8.5-3.657c-.323-1.922.089-4.263.137-6.217q.158-6.6.331-13.207c.145-5.595.839-9.656,4.956-13.8,3.673-3.706,7.282-4.666,12.327-5.054,1.671.258,3.367.388,4.965.485a.336.336,0,0,0,.153.04c5,.137,9.405-.057,13.514,3.213a20.71,20.71,0,0,1,6.733,10.607c2.454,8.315,1.138,17.107,1.6,25.632a.589.589,0,0,0,.234.468c-.016.436,0,.856-.057,1.316a3.153,3.153,0,0,1-2.244,2.753C289,263.784,285.456,264.156,284.309,262.081Zm5.934-.686a.4.4,0,0,0,.2.734,2.008,2.008,0,0,0,1.647-1.283,1.849,1.849,0,0,0-.194-2.019c-.185-.153-.541-.064-.517.218a2.575,2.575,0,0,1-.056,1.421A1.951,1.951,0,0,1,290.243,261.395Z" transform="translate(-246.716 -184.445)" fill="#fff"/>
          <path id="Path_75" data-name="Path 75" d="M268.254,168.346c.629-.807,1.106-1.7,1.8-2.454a17.9,17.9,0,0,1,2.438-2.115c.234-.169.105-.654-.218-.517a9.223,9.223,0,0,0-4.828,4.61C267.269,168.314,267.963,168.726,268.254,168.346Z" transform="translate(-255.687 -158.79)"/>
          <path id="Path_76" data-name="Path 76" d="M269.611,354.329c.791,1.324,2.874,1.55,4.15.888.307-.162.089-.63-.234-.549a3.436,3.436,0,0,1-1.873.016,5.428,5.428,0,0,1-1.51-.9C269.813,353.57,269.417,354,269.611,354.329Z" transform="translate(-256.681 -247.178)"/>
          <path id="Path_77" data-name="Path 77" d="M273.375,353.171a.31.31,0,0,0-.081.606,3.21,3.21,0,0,0,1.7.072c.444-.088,1.122-.234,1.324-.678a.177.177,0,0,0-.105-.258c-.4-.105-.823.129-1.227.2A12.037,12.037,0,0,1,273.375,353.171Z" transform="translate(-258.313 -246.787)"/>
          <path id="Path_78" data-name="Path 78" d="M278.186,164.086a6.253,6.253,0,0,0-4.109,3.189c-.307.662.637,1.243.993.581a6.316,6.316,0,0,1,3.286-3.132A.33.33,0,0,0,278.186,164.086Z" transform="translate(-258.748 -159.179)"/>
          <path id="Path_79" data-name="Path 79" d="M323.609,296.259a.358.358,0,0,0,.178.662,2.291,2.291,0,0,0,1.881-1.865.207.207,0,0,0-.38-.154,3.355,3.355,0,0,1-.718.864A5.125,5.125,0,0,1,323.609,296.259Z" transform="translate(-281.68 -219.834)"/>
          <path id="Path_80" data-name="Path 80" d="M327.71,293.868a2.574,2.574,0,0,1-.056,1.421,1.951,1.951,0,0,1-1.082.928.4.4,0,0,0,.2.734,2.008,2.008,0,0,0,1.647-1.283,1.849,1.849,0,0,0-.194-2.019C328.042,293.5,327.686,293.585,327.71,293.868Z" transform="translate(-283.045 -219.267)"/>
          <path id="Path_81" data-name="Path 81" d="M268.489,187.965a.335.335,0,0,1,.2-.065c8.63-.08,16.437-5.312,17.083-14.483A16.147,16.147,0,0,0,270.7,156.424a16.873,16.873,0,0,0-17.478,13.353,16.686,16.686,0,0,0,3.326,13.724C259.39,186.843,264.194,187.538,268.489,187.965Zm-12.965,43a.248.248,0,0,1,.1-.041q.133-11.915-.355-23.831c-.04-.953,1.429-.945,1.469,0,.565,14.047.032,28.029-.089,42.077a69.49,69.49,0,0,0,.129,10.042c.468,3.294,1.792,5.239,5.231,4.876,4.4-.468,4.618-3.358,4.868-6.24.622-7.113.178-14.3.808-21.393a7.513,7.513,0,0,1-1.744-.574c-.525-.274-.3-1.227.315-1.163a30.955,30.955,0,0,0,3.665.477,17.017,17.017,0,0,1,3.262-.1.316.316,0,0,1,.137.525,4.843,4.843,0,0,1-2.874,1.025c.121,7.056.137,14.12.388,21.167.129,3.544,1.171,6.741,5.57,6.822,3.278.065,4.779-1.647,5.239-5.053.468-3.431-.056-7.395-.089-10.858q-.084-10.523-.153-21.054c-.048-7.225-.549-14.6-.024-21.806a.468.468,0,0,1,.936,0c.9,8.7.638,17.664.582,26.471a.618.618,0,0,1,.234.242c1.147,2.075,4.691,1.7,6.547.961a3.153,3.153,0,0,0,2.244-2.753c.057-.46.041-.88.057-1.316a.589.589,0,0,1-.234-.468c-.46-8.525.856-17.317-1.6-25.632a20.71,20.71,0,0,0-6.733-10.607c-4.109-3.27-8.516-3.076-13.514-3.213a.336.336,0,0,1-.153-.04c-1.6-.1-3.294-.226-4.965-.485-5.045.388-8.654,1.348-12.327,5.054-4.117,4.149-4.811,8.21-4.956,13.8q-.17,6.6-.331,13.207c-.048,1.954-.46,4.295-.137,6.217A5.384,5.384,0,0,0,255.523,230.962Zm-9.4-20.756c.145-6.345.145-11.859,4.78-16.663a18.664,18.664,0,0,1,9.5-5.627,11.846,11.846,0,0,1-5.021-3.39,18.214,18.214,0,0,1,15.88-29.5,17.6,17.6,0,0,1,15.936,19,16.766,16.766,0,0,1-12.012,14.4c6.152.436,11.35,3.875,14.491,9.841,4.893,9.316,3,20.659,3.334,30.734a.6.6,0,0,1-.057.283,4.432,4.432,0,0,1-3.132,5.619c-2.107.726-5.158.92-6.943-.6,0,.9-.008,1.809,0,2.7q.061,7.472.113,14.927c.025,3.374,1.033,8.4-.9,11.455-2.341,3.7-9.162,3.375-11.593-.04-1.962-2.761-1.058-7.742-1.122-10.89q-.145-7.908-.3-15.807c-.234-.016-.468-.048-.694-.081a90.167,90.167,0,0,1,.2,14.394c-.129,3.431.307,7.976-1.2,11.2-1.817,3.859-8.808,4.747-11.213.928-1.736-2.737-.9-7.751-.9-10.834-.024-4.892.121-9.793.242-14.685.048-1.865.072-3.729.1-5.595-2.535,2.067-7.654,1.711-9.365-1.291-1.259-2.2-.468-5.676-.4-8.041C245.941,218.5,246.021,214.356,246.126,210.206Z" transform="translate(-245.531 -154.94)"/>
        </g>
        <g id="Group_12" data-name="Group 12" transform="translate(8.225 114.473)">
          <path id="Path_82" data-name="Path 82" d="M92.841,222.913a6.257,6.257,0,0,0-4.11-3.189.33.33,0,0,0-.169.638,6.316,6.316,0,0,1,3.286,3.132C92.2,224.156,93.147,223.575,92.841,222.913Zm.961-.993c.694.759,1.171,1.647,1.8,2.454.291.38.985-.032.807-.477a9.223,9.223,0,0,0-4.828-4.61c-.323-.137-.452.347-.218.517A17.9,17.9,0,0,1,93.8,221.92ZM83,216.3a16.873,16.873,0,0,1,17.478,13.353,16.686,16.686,0,0,1-3.326,13.724c-2.841,3.342-7.645,4.036-11.94,4.464a.332.332,0,0,0-.2-.065c-8.63-.08-16.436-5.312-17.082-14.483A16.146,16.146,0,0,1,83,216.3Z" transform="translate(-60.566 -214.817)" fill="#fff"/>
          <path id="Path_83" data-name="Path 83" d="M60.728,320.16a.358.358,0,0,0,.178-.662,5.157,5.157,0,0,1-.961-.493,3.354,3.354,0,0,1-.718-.864.207.207,0,0,0-.379.153A2.291,2.291,0,0,0,60.728,320.16Zm25.026,30.952c1.276.662,3.359.436,4.15-.888.193-.331-.2-.759-.533-.541a5.426,5.426,0,0,1-1.51.9,3.436,3.436,0,0,1-1.873-.016C85.666,350.482,85.448,350.95,85.755,351.112Zm2.1-1.049a.31.31,0,0,0-.08-.606,12.047,12.047,0,0,1-1.615-.056c-.4-.073-.823-.307-1.227-.2a.177.177,0,0,0-.105.258c.2.444.88.59,1.324.678A3.21,3.21,0,0,0,87.854,350.062ZM58.694,321.669a3.153,3.153,0,0,1-2.244-2.753c-.057-.46-.041-.88-.057-1.316a.589.589,0,0,0,.234-.468c.46-8.525-.855-17.317,1.6-25.632a20.718,20.718,0,0,1,6.733-10.608c4.109-3.27,8.517-3.076,13.514-3.213a.336.336,0,0,0,.153-.04c1.6-.1,3.294-.226,4.965-.485,5.045.388,8.654,1.348,12.327,5.053,4.117,4.15,4.811,8.21,4.956,13.805q.17,6.6.331,13.207c.048,1.954.46,4.295.137,6.217a5.384,5.384,0,0,1-8.5,3.657.24.24,0,0,0-.1-.041q-.133-11.915.355-23.831c.04-.953-1.429-.945-1.469,0-.565,14.047-.032,28.029.089,42.076a69.5,69.5,0,0,1-.129,10.043c-.468,3.294-1.792,5.239-5.231,4.876-4.4-.468-4.618-3.358-4.868-6.24-.622-7.113-.178-14.3-.807-21.394a7.484,7.484,0,0,0,1.744-.573c.525-.274.3-1.227-.315-1.163a30.955,30.955,0,0,1-3.665.477,16.97,16.97,0,0,0-3.261-.1.315.315,0,0,0-.137.525,4.84,4.84,0,0,0,2.873,1.025c-.121,7.056-.137,14.119-.387,21.167-.129,3.544-1.171,6.741-5.571,6.822-3.278.065-4.779-1.647-5.239-5.053-.468-3.431.057-7.4.089-10.858q.084-10.523.153-21.055c.048-7.225.549-14.6.024-21.8a.468.468,0,0,0-.936,0c-.9,8.7-.638,17.664-.581,26.471a.616.616,0,0,0-.234.242C64.095,322.784,60.551,322.412,58.694,321.669Zm-.468-2.575a2.584,2.584,0,0,1-.056-1.421c.024-.283-.331-.371-.517-.218a1.849,1.849,0,0,0-.194,2.019,2.008,2.008,0,0,0,1.647,1.283.4.4,0,0,0,.2-.734A1.95,1.95,0,0,1,58.226,319.094Z" transform="translate(-55.232 -243.073)" fill="#fff"/>
          <path id="Path_84" data-name="Path 84" d="M115.819,226.974c-.63-.807-1.106-1.7-1.8-2.454a17.905,17.905,0,0,0-2.438-2.115c-.234-.169-.105-.654.218-.517a9.223,9.223,0,0,1,4.828,4.61C116.8,226.942,116.11,227.354,115.819,226.974Z" transform="translate(-80.784 -217.418)"/>
          <path id="Path_85" data-name="Path 85" d="M115.194,412.957c-.791,1.324-2.874,1.55-4.15.888-.307-.162-.089-.63.234-.549a3.436,3.436,0,0,0,1.873.016,5.428,5.428,0,0,0,1.51-.9C114.992,412.2,115.388,412.626,115.194,412.957Z" transform="translate(-80.522 -305.806)"/>
          <path id="Path_86" data-name="Path 86" d="M112.368,411.8a.31.31,0,0,1,.08.606,3.21,3.21,0,0,1-1.7.072c-.444-.088-1.122-.234-1.324-.678a.177.177,0,0,1,.105-.258c.4-.105.823.129,1.227.2A12.042,12.042,0,0,0,112.368,411.8Z" transform="translate(-79.827 -305.415)"/>
          <path id="Path_87" data-name="Path 87" d="M106.426,222.713a6.257,6.257,0,0,1,4.11,3.189c.307.662-.638,1.243-.993.581a6.316,6.316,0,0,0-3.286-3.132A.33.33,0,0,1,106.426,222.713Z" transform="translate(-78.261 -217.806)"/>
          <path id="Path_88" data-name="Path 88" d="M63.029,354.887a.358.358,0,0,1-.178.662,2.291,2.291,0,0,1-1.881-1.865.207.207,0,0,1,.379-.153,3.354,3.354,0,0,0,.718.864A5.157,5.157,0,0,0,63.029,354.887Z" transform="translate(-57.355 -278.462)"/>
          <path id="Path_89" data-name="Path 89" d="M58.915,352.5a2.584,2.584,0,0,0,.056,1.421,1.95,1.95,0,0,0,1.082.928.4.4,0,0,1-.2.734A2.008,2.008,0,0,1,58.2,354.3a1.849,1.849,0,0,1,.194-2.019C58.584,352.124,58.939,352.213,58.915,352.5Z" transform="translate(-55.978 -277.895)"/>
          <path id="Path_90" data-name="Path 90" d="M90.812,242.129A16.686,16.686,0,0,0,94.139,228.4,16.873,16.873,0,0,0,76.66,215.052a16.146,16.146,0,0,0-15.072,16.994c.646,9.171,8.452,14.4,17.082,14.483a.332.332,0,0,1,.2.065C83.167,246.165,87.971,245.471,90.812,242.129Zm9.526,43.8c.323-1.922-.089-4.263-.137-6.217q-.158-6.6-.331-13.207c-.145-5.595-.839-9.655-4.956-13.805-3.673-3.705-7.282-4.666-12.327-5.053-1.671.258-3.367.388-4.965.485a.336.336,0,0,1-.153.04c-5,.137-9.405-.057-13.514,3.213A20.718,20.718,0,0,0,57.221,262c-2.454,8.316-1.138,17.107-1.6,25.632a.589.589,0,0,1-.234.468c.016.436,0,.856.057,1.316a3.153,3.153,0,0,0,2.244,2.753c1.857.743,5.4,1.114,6.547-.961a.616.616,0,0,1,.234-.242c-.057-8.808-.323-17.776.581-26.471a.468.468,0,0,1,.936,0c.525,7.209.024,14.58-.024,21.8q-.072,10.524-.153,21.055c-.032,3.463-.557,7.427-.089,10.858.46,3.407,1.962,5.118,5.239,5.053,4.4-.08,5.441-3.278,5.571-6.822.25-7.048.266-14.111.387-21.167a4.84,4.84,0,0,1-2.873-1.025.315.315,0,0,1,.137-.525,16.971,16.971,0,0,1,3.261.1,30.955,30.955,0,0,0,3.665-.477c.614-.064.84.888.315,1.163a7.484,7.484,0,0,1-1.744.573c.629,7.1.185,14.281.807,21.394.25,2.882.468,5.772,4.868,6.24,3.439.363,4.763-1.582,5.231-4.876a69.5,69.5,0,0,0,.129-10.043c-.121-14.047-.654-28.029-.089-42.076.04-.945,1.509-.953,1.469,0q-.5,11.915-.355,23.831a.24.24,0,0,1,.1.041A5.384,5.384,0,0,0,100.339,285.933Zm1.187-4.658c.065,2.365.856,5.837-.4,8.041-1.711,3-6.83,3.358-9.364,1.291.024,1.865.048,3.73.1,5.595.121,4.892.266,9.793.242,14.685-.008,3.084.832,8.1-.9,10.834-2.406,3.819-9.4,2.931-11.213-.928-1.51-3.221-1.074-7.766-1.2-11.2a90.175,90.175,0,0,1,.2-14.394c-.226.033-.46.065-.694.081q-.146,7.907-.3,15.807c-.065,3.148.839,8.129-1.122,10.89-2.43,3.415-9.251,3.738-11.593.041-1.938-3.051-.928-8.081-.9-11.455q.06-7.459.113-14.927c.008-.9,0-1.8,0-2.7-1.784,1.518-4.836,1.324-6.943.6a4.432,4.432,0,0,1-3.132-5.619.611.611,0,0,1-.057-.282c.331-10.075-1.558-21.418,3.334-30.734,3.14-5.966,8.339-9.4,14.491-9.841a16.766,16.766,0,0,1-12.012-14.4,17.6,17.6,0,0,1,15.936-19,18.214,18.214,0,0,1,15.88,29.5,11.846,11.846,0,0,1-5.021,3.39,18.662,18.662,0,0,1,9.5,5.627c4.634,4.8,4.634,10.317,4.78,16.663C101.34,272.984,101.42,277.125,101.525,281.275Z" transform="translate(-54.227 -213.568)"/>
        </g>
        <g id="Group_13" data-name="Group 13" transform="translate(48.297 114.473)">
          <path id="Path_91" data-name="Path 91" d="M167.6,222.913a6.257,6.257,0,0,0-4.109-3.189.33.33,0,0,0-.169.638,6.316,6.316,0,0,1,3.286,3.132C166.964,224.156,167.908,223.575,167.6,222.913Zm.961-.993c.694.759,1.171,1.647,1.8,2.454.29.38.985-.032.807-.477a9.223,9.223,0,0,0-4.828-4.61c-.323-.137-.452.347-.218.517A17.9,17.9,0,0,1,168.562,221.92Zm-10.8-5.619a16.873,16.873,0,0,1,17.478,13.353,16.686,16.686,0,0,1-3.326,13.724c-2.841,3.342-7.645,4.036-11.94,4.464a.332.332,0,0,0-.2-.065c-8.63-.08-16.436-5.312-17.082-14.483A16.146,16.146,0,0,1,157.76,216.3Z" transform="translate(-135.327 -214.817)" fill="#fff"/>
          <path id="Path_92" data-name="Path 92" d="M135.489,320.16a.358.358,0,0,0,.178-.662,5.157,5.157,0,0,1-.961-.493,3.354,3.354,0,0,1-.718-.864.207.207,0,0,0-.379.153A2.291,2.291,0,0,0,135.489,320.16Zm25.026,30.952c1.276.662,3.359.436,4.15-.888.193-.331-.2-.759-.533-.541a5.426,5.426,0,0,1-1.51.9,3.436,3.436,0,0,1-1.873-.016C160.427,350.482,160.209,350.95,160.516,351.112Zm2.1-1.049a.31.31,0,0,0-.08-.606,12.047,12.047,0,0,1-1.615-.056c-.4-.073-.823-.307-1.227-.2a.177.177,0,0,0-.105.258c.2.444.88.59,1.324.678A3.21,3.21,0,0,0,162.615,350.062Zm-29.159-28.393a3.153,3.153,0,0,1-2.244-2.753c-.057-.46-.041-.88-.057-1.316a.589.589,0,0,0,.234-.468c.46-8.525-.855-17.317,1.6-25.632a20.718,20.718,0,0,1,6.733-10.608c4.109-3.27,8.517-3.076,13.514-3.213a.336.336,0,0,0,.153-.04c1.6-.1,3.294-.226,4.965-.485,5.045.388,8.654,1.348,12.327,5.053,4.117,4.15,4.811,8.21,4.956,13.805q.17,6.6.331,13.207c.048,1.954.46,4.295.137,6.217a5.384,5.384,0,0,1-8.5,3.657.24.24,0,0,0-.1-.041q-.133-11.915.355-23.831c.04-.953-1.429-.945-1.469,0-.565,14.047-.032,28.029.089,42.076a69.5,69.5,0,0,1-.129,10.043c-.468,3.294-1.792,5.239-5.231,4.876-4.4-.468-4.618-3.358-4.868-6.24-.622-7.113-.178-14.3-.807-21.394a7.484,7.484,0,0,0,1.744-.573c.525-.274.3-1.227-.315-1.163a30.956,30.956,0,0,1-3.665.477,16.971,16.971,0,0,0-3.261-.1.315.315,0,0,0-.137.525,4.84,4.84,0,0,0,2.874,1.025c-.121,7.056-.137,14.119-.387,21.167-.129,3.544-1.171,6.741-5.571,6.822-3.278.065-4.779-1.647-5.239-5.053-.468-3.431.057-7.4.089-10.858q.084-10.523.153-21.055c.048-7.225.549-14.6.024-21.8a.468.468,0,0,0-.936,0c-.9,8.7-.638,17.664-.581,26.471a.616.616,0,0,0-.234.242C138.856,322.784,135.312,322.412,133.455,321.669Zm-.468-2.575a2.584,2.584,0,0,1-.056-1.421c.024-.283-.331-.371-.517-.218a1.849,1.849,0,0,0-.194,2.019,2.008,2.008,0,0,0,1.647,1.283.4.4,0,0,0,.2-.734A1.95,1.95,0,0,1,132.987,319.094Z" transform="translate(-129.993 -243.073)" fill="#fff"/>
          <path id="Path_93" data-name="Path 93" d="M190.58,226.974c-.63-.807-1.106-1.7-1.8-2.454a17.906,17.906,0,0,0-2.438-2.115c-.234-.169-.105-.654.218-.517a9.223,9.223,0,0,1,4.828,4.61C191.565,226.942,190.871,227.354,190.58,226.974Z" transform="translate(-155.545 -217.418)"/>
          <path id="Path_94" data-name="Path 94" d="M189.955,412.957c-.791,1.324-2.874,1.55-4.15.888-.307-.162-.089-.63.234-.549a3.436,3.436,0,0,0,1.873.016,5.428,5.428,0,0,0,1.51-.9C189.753,412.2,190.149,412.626,189.955,412.957Z" transform="translate(-155.283 -305.806)"/>
          <path id="Path_95" data-name="Path 95" d="M187.129,411.8a.31.31,0,0,1,.08.606,3.21,3.21,0,0,1-1.7.072c-.444-.088-1.122-.234-1.324-.678a.177.177,0,0,1,.105-.258c.4-.105.823.129,1.227.2A12.042,12.042,0,0,0,187.129,411.8Z" transform="translate(-154.588 -305.415)"/>
          <path id="Path_96" data-name="Path 96" d="M181.187,222.713a6.257,6.257,0,0,1,4.11,3.189c.307.662-.638,1.243-.993.581a6.316,6.316,0,0,0-3.286-3.132A.33.33,0,0,1,181.187,222.713Z" transform="translate(-153.022 -217.806)"/>
          <path id="Path_97" data-name="Path 97" d="M137.79,354.887a.358.358,0,0,1-.178.662,2.291,2.291,0,0,1-1.881-1.865.207.207,0,0,1,.379-.153,3.354,3.354,0,0,0,.718.864A5.157,5.157,0,0,0,137.79,354.887Z" transform="translate(-132.116 -278.462)"/>
          <path id="Path_98" data-name="Path 98" d="M133.676,352.5a2.584,2.584,0,0,0,.056,1.421,1.95,1.95,0,0,0,1.082.928.4.4,0,0,1-.2.734,2.008,2.008,0,0,1-1.647-1.283,1.849,1.849,0,0,1,.194-2.019C133.345,352.124,133.7,352.213,133.676,352.5Z" transform="translate(-130.739 -277.895)"/>
          <path id="Path_99" data-name="Path 99" d="M165.573,242.129A16.686,16.686,0,0,0,168.9,228.4a16.873,16.873,0,0,0-17.478-13.353,16.146,16.146,0,0,0-15.072,16.994c.646,9.171,8.452,14.4,17.082,14.483a.332.332,0,0,1,.2.065C157.928,246.165,162.732,245.471,165.573,242.129Zm9.526,43.8c.323-1.922-.089-4.263-.137-6.217q-.158-6.6-.331-13.207c-.145-5.595-.839-9.655-4.956-13.805-3.673-3.705-7.282-4.666-12.327-5.053-1.671.258-3.367.388-4.965.485a.336.336,0,0,1-.153.04c-5,.137-9.405-.057-13.514,3.213A20.718,20.718,0,0,0,131.982,262c-2.454,8.316-1.138,17.107-1.6,25.632a.589.589,0,0,1-.234.468c.016.436,0,.856.057,1.316a3.153,3.153,0,0,0,2.244,2.753c1.857.743,5.4,1.114,6.547-.961a.616.616,0,0,1,.234-.242c-.057-8.808-.323-17.776.581-26.471a.468.468,0,0,1,.936,0c.525,7.209.024,14.58-.024,21.8q-.072,10.524-.153,21.055c-.032,3.463-.557,7.427-.089,10.858.46,3.407,1.962,5.118,5.239,5.053,4.4-.08,5.441-3.278,5.571-6.822.25-7.048.266-14.111.387-21.167a4.84,4.84,0,0,1-2.873-1.025.315.315,0,0,1,.137-.525,16.971,16.971,0,0,1,3.261.1,30.955,30.955,0,0,0,3.665-.477c.614-.064.84.888.315,1.163a7.484,7.484,0,0,1-1.744.573c.629,7.1.185,14.281.807,21.394.25,2.882.468,5.772,4.868,6.24,3.439.363,4.763-1.582,5.231-4.876a69.5,69.5,0,0,0,.129-10.043c-.121-14.047-.654-28.029-.089-42.076.04-.945,1.509-.953,1.469,0q-.5,11.915-.355,23.831a.24.24,0,0,1,.1.041A5.384,5.384,0,0,0,175.1,285.933Zm1.187-4.658c.065,2.365.856,5.837-.4,8.041-1.711,3-6.83,3.358-9.364,1.291.024,1.865.048,3.73.1,5.595.121,4.892.266,9.793.242,14.685-.008,3.084.832,8.1-.9,10.834-2.406,3.819-9.4,2.931-11.213-.928-1.51-3.221-1.074-7.766-1.2-11.2a90.175,90.175,0,0,1,.2-14.394c-.226.033-.46.065-.694.081q-.146,7.907-.3,15.807c-.065,3.148.839,8.129-1.122,10.89-2.43,3.415-9.251,3.738-11.593.041-1.938-3.051-.928-8.081-.9-11.455q.06-7.459.113-14.927c.008-.9,0-1.8,0-2.7-1.784,1.518-4.836,1.324-6.943.6a4.432,4.432,0,0,1-3.132-5.619.611.611,0,0,1-.057-.282c.331-10.075-1.558-21.418,3.334-30.734,3.14-5.966,8.339-9.4,14.491-9.841a16.766,16.766,0,0,1-12.012-14.4,17.6,17.6,0,0,1,15.936-19,18.214,18.214,0,0,1,15.88,29.5,11.846,11.846,0,0,1-5.021,3.39,18.662,18.662,0,0,1,9.5,5.627c4.634,4.8,4.634,10.317,4.78,16.663C176.1,272.984,176.181,277.125,176.286,281.275Z" transform="translate(-128.988 -213.568)"/>
        </g>
        <g id="Group_14" data-name="Group 14" transform="translate(170.491 114.473)">
          <path id="Path_100" data-name="Path 100" d="M379.669,223.494a6.316,6.316,0,0,1,3.286-3.132.33.33,0,0,0-.169-.638,6.257,6.257,0,0,0-4.11,3.189C378.369,223.575,379.313,224.156,379.669,223.494Zm.485-3.689c.234-.169.1-.654-.218-.517a9.223,9.223,0,0,0-4.828,4.61c-.177.444.517.856.807.477.63-.807,1.106-1.7,1.8-2.454A17.907,17.907,0,0,1,380.153,219.8Zm23.436,13.49c-.646,9.171-8.452,14.4-17.082,14.483a.331.331,0,0,0-.2.065c-4.295-.428-9.1-1.122-11.94-4.464a16.686,16.686,0,0,1-3.326-13.724A16.872,16.872,0,0,1,388.516,216.3,16.146,16.146,0,0,1,403.589,233.295Z" transform="translate(-363.347 -214.817)" fill="#fff"/>
          <path id="Path_101" data-name="Path 101" d="M402.134,318.295a.207.207,0,0,0-.379-.153,3.356,3.356,0,0,1-.719.864,5.137,5.137,0,0,1-.961.493.358.358,0,0,0,.178.662A2.291,2.291,0,0,0,402.134,318.295Zm-27.141,32.268a3.436,3.436,0,0,1-1.873.016,5.427,5.427,0,0,1-1.51-.9c-.331-.218-.726.21-.533.541.791,1.324,2.874,1.55,4.15.888C375.533,350.95,375.315,350.482,374.993,350.563Zm-.161-.428c.444-.088,1.122-.234,1.324-.678a.177.177,0,0,0-.105-.258c-.4-.105-.823.129-1.227.2a12.051,12.051,0,0,1-1.615.056.31.31,0,0,0-.08.606A3.21,3.21,0,0,0,374.831,350.135Zm20.909-29.426a.615.615,0,0,0-.234-.242c.057-8.808.323-17.776-.581-26.471a.468.468,0,0,0-.936,0c-.525,7.209-.024,14.58.024,21.8q.072,10.524.153,21.055c.032,3.463.557,7.427.089,10.858-.46,3.407-1.962,5.118-5.239,5.053-4.4-.08-5.441-3.278-5.571-6.822-.25-7.048-.266-14.111-.388-21.167a4.84,4.84,0,0,0,2.874-1.025.315.315,0,0,0-.137-.525,16.977,16.977,0,0,0-3.262.1,30.984,30.984,0,0,1-3.665-.477c-.613-.064-.839.888-.315,1.163a7.484,7.484,0,0,0,1.744.573c-.629,7.1-.185,14.281-.807,21.394-.25,2.882-.468,5.772-4.868,6.24-3.439.363-4.763-1.582-5.231-4.876a69.5,69.5,0,0,1-.129-10.043c.121-14.047.654-28.029.089-42.076-.04-.945-1.51-.953-1.469,0q.5,11.915.355,23.831a.241.241,0,0,0-.1.041,5.384,5.384,0,0,1-8.5-3.657c-.323-1.922.089-4.263.137-6.217q.158-6.6.331-13.207c.146-5.595.84-9.655,4.957-13.805,3.673-3.705,7.282-4.666,12.327-5.053,1.671.258,3.367.388,4.965.485a.334.334,0,0,0,.153.04c5,.137,9.405-.057,13.514,3.213a20.718,20.718,0,0,1,6.733,10.608c2.454,8.316,1.138,17.107,1.6,25.632a.589.589,0,0,0,.234.468c-.017.436,0,.856-.057,1.316a3.153,3.153,0,0,1-2.244,2.753C400.431,322.412,396.887,322.784,395.74,320.709Zm5.934-.686a.4.4,0,0,0,.2.734,2.007,2.007,0,0,0,1.647-1.283,1.849,1.849,0,0,0-.194-2.019c-.185-.153-.541-.064-.517.218a2.584,2.584,0,0,1-.056,1.421A1.95,1.95,0,0,1,401.674,320.023Z" transform="translate(-358.146 -243.073)" fill="#fff"/>
          <path id="Path_102" data-name="Path 102" d="M379.684,226.974c.63-.807,1.106-1.7,1.8-2.454a17.907,17.907,0,0,1,2.438-2.115c.234-.169.1-.654-.218-.517a9.223,9.223,0,0,0-4.828,4.61C378.7,226.942,379.394,227.354,379.684,226.974Z" transform="translate(-367.117 -217.418)"/>
          <path id="Path_103" data-name="Path 103" d="M381.042,412.957c.791,1.324,2.874,1.55,4.15.888.307-.162.088-.63-.234-.549a3.435,3.435,0,0,1-1.873.016,5.428,5.428,0,0,1-1.51-.9C381.244,412.2,380.848,412.626,381.042,412.957Z" transform="translate(-368.111 -305.806)"/>
          <path id="Path_104" data-name="Path 104" d="M384.806,411.8a.31.31,0,0,0-.08.606,3.21,3.21,0,0,0,1.7.072c.444-.088,1.122-.234,1.324-.678a.177.177,0,0,0-.105-.258c-.4-.105-.823.129-1.227.2A12.045,12.045,0,0,1,384.806,411.8Z" transform="translate(-369.744 -305.415)"/>
          <path id="Path_105" data-name="Path 105" d="M389.616,222.713a6.257,6.257,0,0,0-4.11,3.189c-.307.662.638,1.243.993.581a6.316,6.316,0,0,1,3.286-3.132A.33.33,0,0,0,389.616,222.713Z" transform="translate(-370.179 -217.806)"/>
          <path id="Path_106" data-name="Path 106" d="M435.04,354.887a.358.358,0,0,0,.178.662,2.291,2.291,0,0,0,1.881-1.865.207.207,0,0,0-.379-.153,3.356,3.356,0,0,1-.719.864A5.136,5.136,0,0,1,435.04,354.887Z" transform="translate(-393.111 -278.462)"/>
          <path id="Path_107" data-name="Path 107" d="M439.141,352.5a2.584,2.584,0,0,1-.056,1.421,1.95,1.95,0,0,1-1.082.928.4.4,0,0,0,.2.734,2.007,2.007,0,0,0,1.647-1.283,1.849,1.849,0,0,0-.194-2.019C439.472,352.124,439.117,352.213,439.141,352.5Z" transform="translate(-394.476 -277.895)"/>
          <path id="Path_108" data-name="Path 108" d="M379.919,246.593a.331.331,0,0,1,.2-.065c8.63-.08,16.436-5.312,17.082-14.483a16.146,16.146,0,0,0-15.072-16.994A16.872,16.872,0,0,0,364.653,228.4a16.686,16.686,0,0,0,3.326,13.724C370.821,245.471,375.624,246.165,379.919,246.593Zm-12.965,43a.241.241,0,0,1,.1-.041q.133-11.915-.355-23.831c-.041-.953,1.429-.945,1.469,0,.565,14.047.032,28.029-.089,42.076a69.5,69.5,0,0,0,.129,10.043c.468,3.294,1.792,5.239,5.231,4.876,4.4-.468,4.618-3.358,4.868-6.24.622-7.113.178-14.3.807-21.394a7.484,7.484,0,0,1-1.744-.573c-.525-.274-.3-1.227.315-1.163a30.985,30.985,0,0,0,3.665.477,16.977,16.977,0,0,1,3.262-.1.315.315,0,0,1,.137.525,4.84,4.84,0,0,1-2.874,1.025c.121,7.056.137,14.119.388,21.167.129,3.544,1.171,6.741,5.571,6.822,3.278.065,4.779-1.647,5.239-5.053.468-3.431-.057-7.4-.089-10.858q-.084-10.523-.153-21.055c-.048-7.225-.549-14.6-.024-21.8a.468.468,0,0,1,.936,0c.9,8.7.638,17.664.581,26.471a.616.616,0,0,1,.234.242c1.147,2.075,4.691,1.7,6.547.961a3.153,3.153,0,0,0,2.244-2.753c.057-.46.04-.88.057-1.316a.589.589,0,0,1-.234-.468c-.46-8.525.855-17.317-1.6-25.632a20.717,20.717,0,0,0-6.733-10.608c-4.109-3.27-8.517-3.076-13.514-3.213a.335.335,0,0,1-.153-.04c-1.6-.1-3.294-.226-4.965-.485-5.045.388-8.654,1.348-12.327,5.053-4.117,4.15-4.811,8.21-4.957,13.805q-.169,6.6-.331,13.207c-.048,1.954-.46,4.295-.137,6.217A5.384,5.384,0,0,0,366.954,289.59Zm-9.4-20.756c.145-6.345.145-11.859,4.78-16.663a18.662,18.662,0,0,1,9.5-5.627,11.846,11.846,0,0,1-5.021-3.39,18.214,18.214,0,0,1,15.88-29.5,17.6,17.6,0,0,1,15.936,19,16.766,16.766,0,0,1-12.012,14.4c6.152.436,11.35,3.875,14.491,9.841,4.892,9.316,3,20.659,3.334,30.734a.611.611,0,0,1-.057.282,4.432,4.432,0,0,1-3.132,5.619c-2.107.726-5.158.92-6.943-.6,0,.9-.008,1.808,0,2.7q.061,7.472.113,14.927c.024,3.374,1.033,8.4-.9,11.455-2.341,3.7-9.163,3.375-11.593-.041-1.962-2.761-1.058-7.742-1.122-10.89q-.145-7.907-.3-15.807c-.234-.016-.468-.048-.694-.081a90.166,90.166,0,0,1,.2,14.394c-.129,3.431.307,7.976-1.2,11.2-1.817,3.859-8.808,4.747-11.213.928-1.736-2.736-.9-7.75-.9-10.834-.024-4.892.121-9.793.242-14.685.048-1.865.072-3.73.1-5.595-2.535,2.067-7.653,1.711-9.364-1.291-1.26-2.2-.468-5.676-.4-8.041C357.371,277.125,357.452,272.984,357.557,268.834Z" transform="translate(-356.962 -213.568)"/>
        </g>
        <g id="Group_15" data-name="Group 15" transform="translate(130.419 114.473)">
          <path id="Path_109" data-name="Path 109" d="M304.908,223.494a6.316,6.316,0,0,1,3.286-3.132.33.33,0,0,0-.169-.638,6.257,6.257,0,0,0-4.109,3.189C303.608,223.575,304.552,224.156,304.908,223.494Zm.485-3.689c.234-.169.1-.654-.218-.517a9.223,9.223,0,0,0-4.828,4.61c-.177.444.517.856.807.477.63-.807,1.106-1.7,1.8-2.454A17.905,17.905,0,0,1,305.392,219.8Zm23.436,13.49c-.646,9.171-8.452,14.4-17.082,14.483a.331.331,0,0,0-.2.065c-4.295-.428-9.1-1.122-11.94-4.464a16.686,16.686,0,0,1-3.326-13.724A16.872,16.872,0,0,1,313.755,216.3,16.146,16.146,0,0,1,328.828,233.295Z" transform="translate(-288.586 -214.817)" fill="#fff"/>
          <path id="Path_110" data-name="Path 110" d="M327.373,318.295a.207.207,0,0,0-.38-.153,3.356,3.356,0,0,1-.719.864,5.137,5.137,0,0,1-.961.493.358.358,0,0,0,.178.662A2.291,2.291,0,0,0,327.373,318.295Zm-27.141,32.268a3.436,3.436,0,0,1-1.873.016,5.426,5.426,0,0,1-1.51-.9c-.331-.218-.726.21-.533.541.791,1.324,2.874,1.55,4.15.888C300.772,350.95,300.554,350.482,300.232,350.563Zm-.161-.428c.444-.088,1.122-.234,1.324-.678a.177.177,0,0,0-.105-.258c-.4-.105-.823.129-1.227.2a12.05,12.05,0,0,1-1.615.056.31.31,0,0,0-.08.606A3.21,3.21,0,0,0,300.07,350.135Zm20.909-29.426a.616.616,0,0,0-.234-.242c.057-8.808.323-17.776-.581-26.471a.468.468,0,0,0-.936,0c-.525,7.209-.024,14.58.024,21.8q.072,10.524.153,21.055c.032,3.463.557,7.427.089,10.858-.46,3.407-1.962,5.118-5.239,5.053-4.4-.08-5.441-3.278-5.571-6.822-.25-7.048-.266-14.111-.388-21.167a4.84,4.84,0,0,0,2.874-1.025.315.315,0,0,0-.137-.525,16.978,16.978,0,0,0-3.262.1,30.984,30.984,0,0,1-3.665-.477c-.613-.064-.839.888-.315,1.163a7.484,7.484,0,0,0,1.744.573c-.629,7.1-.185,14.281-.807,21.394-.25,2.882-.468,5.772-4.868,6.24-3.439.363-4.763-1.582-5.231-4.876A69.5,69.5,0,0,1,294.5,337.3c.121-14.047.654-28.029.089-42.076-.04-.945-1.51-.953-1.469,0q.5,11.915.355,23.831a.242.242,0,0,0-.1.041,5.384,5.384,0,0,1-8.5-3.657c-.323-1.922.089-4.263.137-6.217q.158-6.6.331-13.207c.146-5.595.84-9.655,4.957-13.805,3.673-3.705,7.282-4.666,12.327-5.053,1.671.258,3.367.388,4.965.485a.334.334,0,0,0,.153.04c5,.137,9.405-.057,13.514,3.213a20.718,20.718,0,0,1,6.733,10.608c2.454,8.316,1.138,17.107,1.6,25.632a.589.589,0,0,0,.234.468c-.017.436,0,.856-.057,1.316a3.153,3.153,0,0,1-2.244,2.753C325.67,322.412,322.126,322.784,320.979,320.709Zm5.934-.686a.4.4,0,0,0,.2.734,2.007,2.007,0,0,0,1.647-1.283,1.849,1.849,0,0,0-.194-2.019c-.185-.153-.541-.064-.517.218a2.585,2.585,0,0,1-.056,1.421A1.95,1.95,0,0,1,326.913,320.023Z" transform="translate(-283.385 -243.073)" fill="#fff"/>
          <path id="Path_111" data-name="Path 111" d="M304.923,226.974c.63-.807,1.106-1.7,1.8-2.454a17.907,17.907,0,0,1,2.438-2.115c.234-.169.1-.654-.218-.517a9.224,9.224,0,0,0-4.828,4.61C303.939,226.942,304.633,227.354,304.923,226.974Z" transform="translate(-292.356 -217.418)"/>
          <path id="Path_112" data-name="Path 112" d="M306.281,412.957c.791,1.324,2.874,1.55,4.15.888.307-.162.088-.63-.234-.549a3.436,3.436,0,0,1-1.873.016,5.427,5.427,0,0,1-1.51-.9C306.483,412.2,306.087,412.626,306.281,412.957Z" transform="translate(-293.35 -305.806)"/>
          <path id="Path_113" data-name="Path 113" d="M310.045,411.8a.31.31,0,0,0-.08.606,3.21,3.21,0,0,0,1.7.072c.444-.088,1.122-.234,1.324-.678a.177.177,0,0,0-.105-.258c-.4-.105-.823.129-1.227.2A12.046,12.046,0,0,1,310.045,411.8Z" transform="translate(-294.983 -305.415)"/>
          <path id="Path_114" data-name="Path 114" d="M314.855,222.713a6.257,6.257,0,0,0-4.109,3.189c-.307.662.638,1.243.993.581a6.316,6.316,0,0,1,3.286-3.132A.33.33,0,0,0,314.855,222.713Z" transform="translate(-295.418 -217.806)"/>
          <path id="Path_115" data-name="Path 115" d="M360.279,354.887a.358.358,0,0,0,.178.662,2.291,2.291,0,0,0,1.881-1.865.207.207,0,0,0-.379-.153,3.356,3.356,0,0,1-.719.864A5.137,5.137,0,0,1,360.279,354.887Z" transform="translate(-318.35 -278.462)"/>
          <path id="Path_116" data-name="Path 116" d="M364.38,352.5a2.584,2.584,0,0,1-.056,1.421,1.95,1.95,0,0,1-1.082.928.4.4,0,0,0,.2.734,2.007,2.007,0,0,0,1.647-1.283,1.849,1.849,0,0,0-.193-2.019C364.711,352.124,364.356,352.213,364.38,352.5Z" transform="translate(-319.715 -277.895)"/>
          <path id="Path_117" data-name="Path 117" d="M305.158,246.593a.331.331,0,0,1,.2-.065c8.63-.08,16.436-5.312,17.082-14.483a16.146,16.146,0,0,0-15.072-16.994A16.872,16.872,0,0,0,289.892,228.4a16.686,16.686,0,0,0,3.326,13.724C296.06,245.471,300.863,246.165,305.158,246.593Zm-12.965,43a.241.241,0,0,1,.1-.041q.133-11.915-.355-23.831c-.041-.953,1.429-.945,1.469,0,.565,14.047.032,28.029-.089,42.076a69.5,69.5,0,0,0,.129,10.043c.468,3.294,1.792,5.239,5.231,4.876,4.4-.468,4.618-3.358,4.868-6.24.622-7.113.178-14.3.807-21.394a7.484,7.484,0,0,1-1.744-.573c-.525-.274-.3-1.227.315-1.163a30.984,30.984,0,0,0,3.665.477,16.977,16.977,0,0,1,3.262-.1.315.315,0,0,1,.137.525,4.84,4.84,0,0,1-2.874,1.025c.121,7.056.137,14.119.388,21.167.129,3.544,1.171,6.741,5.571,6.822,3.278.065,4.779-1.647,5.239-5.053.468-3.431-.057-7.4-.089-10.858q-.084-10.523-.153-21.055c-.048-7.225-.549-14.6-.024-21.8a.468.468,0,0,1,.936,0c.9,8.7.638,17.664.581,26.471a.616.616,0,0,1,.234.242c1.146,2.075,4.691,1.7,6.547.961a3.153,3.153,0,0,0,2.244-2.753c.057-.46.04-.88.057-1.316a.589.589,0,0,1-.234-.468c-.46-8.525.855-17.317-1.6-25.632a20.718,20.718,0,0,0-6.733-10.608c-4.109-3.27-8.517-3.076-13.514-3.213a.335.335,0,0,1-.153-.04c-1.6-.1-3.294-.226-4.965-.485-5.045.388-8.654,1.348-12.327,5.053-4.117,4.15-4.811,8.21-4.957,13.805q-.169,6.6-.331,13.207c-.048,1.954-.46,4.295-.137,6.217A5.384,5.384,0,0,0,292.193,289.59Zm-9.4-20.756c.145-6.345.145-11.859,4.78-16.663a18.662,18.662,0,0,1,9.5-5.627,11.846,11.846,0,0,1-5.021-3.39,18.214,18.214,0,0,1,15.88-29.5,17.6,17.6,0,0,1,15.936,19,16.766,16.766,0,0,1-12.012,14.4c6.152.436,11.35,3.875,14.491,9.841,4.892,9.316,3,20.659,3.334,30.734a.611.611,0,0,1-.057.282,4.432,4.432,0,0,1-3.132,5.619c-2.107.726-5.158.92-6.943-.6,0,.9-.008,1.808,0,2.7q.061,7.472.113,14.927c.024,3.374,1.033,8.4-.9,11.455-2.341,3.7-9.163,3.375-11.593-.041-1.962-2.761-1.058-7.742-1.122-10.89q-.145-7.907-.3-15.807c-.234-.016-.469-.048-.694-.081a90.174,90.174,0,0,1,.2,14.394c-.129,3.431.307,7.976-1.2,11.2-1.816,3.859-8.808,4.747-11.213.928-1.736-2.736-.9-7.75-.9-10.834-.024-4.892.121-9.793.242-14.685.048-1.865.072-3.73.1-5.595-2.535,2.067-7.653,1.711-9.364-1.291-1.26-2.2-.468-5.676-.4-8.041C282.61,277.125,282.691,272.984,282.8,268.834Z" transform="translate(-282.201 -213.568)"/>
        </g>
      </g>
      <g id="Group_16" data-name="Group 16" transform="translate(75.785 117.039)">
        <path id="Path_118" data-name="Path 118" d="M211.163,328.187c.323.008.363-.388.153-.549-.63-.485-1.348-.743-1.946-1.284a6.726,6.726,0,0,1-1.429-1.841c-.169-.315-.718-.1-.589.242C207.917,326.233,209.427,328.122,211.163,328.187Zm1.122-.758c.5.161.726-.663.218-.8a6.366,6.366,0,0,1-2.567-1.364.271.271,0,0,0-.38.388A5.959,5.959,0,0,0,212.285,327.428Zm44.4-92.113a4.585,4.585,0,0,0-.847-4.165c-.218-.275-.557.08-.444.347a7.048,7.048,0,0,1,.6,1.97c.072.59-.016,1.171,0,1.76A.356.356,0,0,0,256.686,235.315Zm-.662-6.079c2,2.616,1.768,5.82,1.122,8.937a34.941,34.941,0,0,1-4.093,10.535,37.558,37.558,0,0,1-18.608,15.742.686.686,0,0,0-.258,1.074q-1.732,25.1-1.09,50.3c.1,3.754.92,8.662-1.4,11.932a5.2,5.2,0,0,1-8.121.8c-1.922-1.994-1.494-5.893-1.55-8.428-.2-8.34-.105-16.776-.807-25.091a14.9,14.9,0,0,0,3.051-.824c.807-.315.452-1.631-.363-1.316-3.132,1.227-5.877.912-9.114.493-.4-.048-.509.549-.194.727a8.4,8.4,0,0,0,2.8.977q.326,12.691.08,25.389c-.04,1.752.234,4.174-.42,5.821-1.453,3.649-4.973,4.642-7.976,2.228-3.867-3.116-3.358-9.252-3.512-13.74-.282-8.452-.573-16.9-.766-25.365-.1-4.521-.17-9.042-.178-13.571-.008-3.94.42-8.041-.2-11.94a.459.459,0,0,0-.218-.726c-8.348-2-13.579-7.549-17.236-15.1a37.807,37.807,0,0,1-4.045-13.4c-.218-2.849-.355-6.256,3.891-6.66a6.1,6.1,0,0,1,5.942,3.471c2.034,9.752,8.42,21.208,19.181,21.975a10.67,10.67,0,0,0,7.831.7c.032.008.056.024.1.032a15.029,15.029,0,0,0,5.974-.815,25.115,25.115,0,0,0,12-5.732,19.493,19.493,0,0,0,5.135-7.2,24.824,24.824,0,0,0,1.283-5.013c.331-1.9.355-5.393,1.655-6.927a7.075,7.075,0,0,1,6.216-1.953A7.534,7.534,0,0,1,256.024,229.236Z" transform="translate(-181.466 -222.096)" fill="#ffaa4c"/>
        <path id="Path_119" data-name="Path 119" d="M248.5,228.548a.387.387,0,0,0,.565-.428,3.95,3.95,0,0,0-1.388-1.687,10.66,10.66,0,0,0-1.865-1.316.266.266,0,0,0-.266.46,9.557,9.557,0,0,1,1.671,1.454A8.717,8.717,0,0,0,248.5,228.548Zm-11.278-7.613c8.178.137,15.242,6.192,15.815,14.483a14.028,14.028,0,0,1-14.847,14.855.588.588,0,0,0-.581.323c-8.517-.29-14.935-5.514-15.274-14.644C222.006,227.217,228.432,220.782,237.224,220.936Zm9.5,6.434a14.628,14.628,0,0,0-3.237-1.8c-.291-.113-.428.323-.2.477.985.67,1.889,1.4,2.81,2.131A.514.514,0,1,0,246.725,227.37Z" transform="translate(-199.785 -219.552)" fill="#ffaa4c"/>
        <path id="Path_120" data-name="Path 120" d="M318.624,235.161a4.585,4.585,0,0,1,.847,4.165.356.356,0,0,1-.694-.088c-.016-.59.072-1.171,0-1.76a7.047,7.047,0,0,0-.6-1.97C318.066,235.241,318.406,234.886,318.624,235.161Z" transform="translate(-244.251 -226.107)"/>
        <path id="Path_121" data-name="Path 121" d="M269.061,231.71a.387.387,0,0,1-.565.428,8.717,8.717,0,0,1-1.284-1.517,9.555,9.555,0,0,0-1.671-1.454.266.266,0,0,1,.266-.46,10.66,10.66,0,0,1,1.865,1.316A3.95,3.95,0,0,1,269.061,231.71Z" transform="translate(-219.779 -223.141)"/>
        <path id="Path_122" data-name="Path 122" d="M261.537,229.567a14.628,14.628,0,0,1,3.237,1.8.514.514,0,1,1-.629.807c-.92-.734-1.825-1.461-2.81-2.131C261.109,229.89,261.246,229.455,261.537,229.567Z" transform="translate(-217.833 -223.549)"/>
        <path id="Path_123" data-name="Path 123" d="M235.562,412.135c.509.137.282.961-.218.8a5.959,5.959,0,0,1-2.729-1.776.271.271,0,0,1,.379-.388A6.366,6.366,0,0,0,235.562,412.135Z" transform="translate(-204.525 -307.603)"/>
        <path id="Path_124" data-name="Path 124" d="M230.569,411.142c.6.541,1.316.8,1.946,1.284.21.161.169.557-.153.549-1.736-.064-3.245-1.954-3.81-3.431-.129-.339.42-.557.589-.242A6.726,6.726,0,0,0,230.569,411.142Z" transform="translate(-202.664 -306.884)"/>
        <path id="Path_125" data-name="Path 125" d="M218.68,249.077a14.028,14.028,0,0,0,14.847-14.855c-.574-8.291-7.637-14.346-15.815-14.483-8.791-.153-15.218,6.281-14.886,15.016.339,9.13,6.757,14.354,15.274,14.644A.588.588,0,0,1,218.68,249.077Zm14.572,11.633a37.558,37.558,0,0,0,18.608-15.742,34.942,34.942,0,0,0,4.093-10.535c.645-3.116.88-6.321-1.122-8.937a7.534,7.534,0,0,0-3.883-2.672,7.075,7.075,0,0,0-6.216,1.953c-1.3,1.534-1.324,5.022-1.655,6.927a24.826,24.826,0,0,1-1.283,5.013,19.494,19.494,0,0,1-5.135,7.2,25.115,25.115,0,0,1-12,5.732,15.029,15.029,0,0,1-5.974.815c-.04-.008-.064-.024-.1-.032a10.67,10.67,0,0,1-7.831-.7c-10.761-.767-17.147-12.223-19.181-21.975a6.1,6.1,0,0,0-5.942-3.471c-4.246.4-4.109,3.81-3.891,6.66a37.807,37.807,0,0,0,4.045,13.4c3.657,7.556,8.888,13.1,17.236,15.1a.459.459,0,0,1,.218.726c.621,3.9.194,8,.2,11.94.008,4.529.081,9.05.178,13.571.193,8.46.484,16.913.766,25.365.154,4.488-.355,10.624,3.512,13.74,3,2.414,6.523,1.421,7.976-2.228.654-1.647.379-4.069.42-5.821q.254-12.7-.08-25.389a8.4,8.4,0,0,1-2.8-.977c-.315-.178-.2-.775.194-.727,3.237.42,5.982.735,9.114-.493.815-.315,1.171,1,.363,1.316a14.9,14.9,0,0,1-3.051.824c.7,8.315.605,16.751.807,25.091.056,2.535-.371,6.434,1.55,8.428a5.2,5.2,0,0,0,8.121-.8c2.317-3.27,1.493-8.178,1.4-11.932q-.666-25.164,1.09-50.3A.686.686,0,0,1,233.251,260.71Zm22.556-36.07c4.828,5.95.049,16.437-3.415,21.975a37.121,37.121,0,0,1-18.035,15.016.774.774,0,0,1,.024.154c-.839,11.5-1.348,23.032-1.413,34.568q-.06,8.658.194,17.3c.1,3.657.509,7.758-1.606,10.979a6.413,6.413,0,0,1-11.214-.759c-.9-2.019-.662-4.561-.71-6.7-.073-2.882-.145-5.764-.194-8.646-.113-5.691-.428-11.423-.234-17.115a12.2,12.2,0,0,1-1.631.073c.121,6.1.177,12.2.129,18.3-.032,4.279.662,9.494-.686,13.635-1.792,5.538-8.525,5.078-11.552.783-2.333-3.31-2.228-7.782-2.373-11.641q-.327-9.046-.606-18.092c-.177-5.853-.3-11.706-.331-17.567-.024-5.369-.6-11.3.509-16.59-12.109-.783-19.5-15.137-21.684-25.6-.686-3.318-1.792-9.034,1.889-11.084,3.44-1.914,8.816.4,9.777,4.1a.462.462,0,0,1-.048.347c3.536,8.17,6.628,17.906,15.694,20.11a18.639,18.639,0,0,1-6.741-12.206c-.969-9.7,5.731-17.43,15.548-17.623,9.187-.186,17.244,6.555,17.866,15.863a15.161,15.161,0,0,1-5.377,12.61,22.467,22.467,0,0,0,6.127-3.867c4.392-3.94,5.474-8.654,6.507-14.216.638-3.431,1.72-6.83,5.643-7.387A8.981,8.981,0,0,1,255.807,224.64Z" transform="translate(-180.272 -218.356)"/>
      </g>
    </g>
  </g>
</svg>
