<svg xmlns="http://www.w3.org/2000/svg" xmlns:xlink="http://www.w3.org/1999/xlink" width="56" height="56" viewBox="0 0 56 56"><defs><style>.a{fill:#fff;}.b{clip-path:url(#a);}.c{fill:#f3fdff;}</style><clipPath id="a"><circle class="a" cx="28" cy="28" r="28" transform="translate(44 664)"/></clipPath></defs><g class="b" transform="translate(-44 -664)"><g transform="translate(55.872 675.871)"><path class="c" d="M36.124,34.373A13.267,13.267,0,0,0,34.93,15.813,15.17,15.17,0,0,1,20.358,35.118c-.193,0,.973.007-3.622-.022a13.214,13.214,0,0,0,9.355,3.865L38.411,38.9a.946.946,0,0,0,.659-1.618Z" transform="translate(-7.353 -6.962)"/><path class="c" d="M13.262,26.524A13.26,13.26,0,1,0,3.229,21.935L.282,24.843a.946.946,0,0,0,.659,1.618ZM7.624,8.568h11.34a.945.945,0,0,1,0,1.89H7.624a.945.945,0,0,1,0-1.89Zm0,3.78h11.34a.945.945,0,0,1,0,1.89H7.624a.945.945,0,0,1,0-1.89Zm-.945,4.725a.945.945,0,0,1,.945-.945h11.34a.945.945,0,0,1,0,1.89H7.624a.945.945,0,0,1-.945-.945Z" transform="translate(0 0)"/></g></g></svg>