<svg xmlns="http://www.w3.org/2000/svg" width="41.5" height="41.5" viewBox="0 0 41.5 41.5"><defs><style>.a{fill:none;stroke-linecap:round;stroke-linejoin:round;stroke-width:1.5px;}.a,.b{stroke:#000;}.b{stroke-width:0.5px;}.c{fill:#fff;}</style></defs><g transform="translate(-1253.25 169.75)"><path class="a" d="M9.875,6h23.25A3.875,3.875,0,0,1,37,9.875v23.25A3.875,3.875,0,0,1,33.125,37H9.875A3.875,3.875,0,0,1,6,33.125V9.875A3.875,3.875,0,0,1,9.875,6Z" transform="translate(1252.5 -170.5)"/><path class="a" d="M13.5,13.5H26.134V26.134H13.5Z" transform="translate(1254.183 -168.817)"/><path class="a" d="M13.5,1.5V4.125" transform="translate(1255.045 -170.5)"/><path class="a" d="M22.5,1.5V4.125" transform="translate(1256.955 -170.5)"/><path class="a" d="M13.5,30v2.25" transform="translate(1255.045 -161.25)"/><path class="a" d="M22.5,30v2.25" transform="translate(1256.955 -161.25)"/><path class="a" d="M30,13.5h2.6" transform="translate(1261.397 -167.955)"/><path class="a" d="M30,21h2.6" transform="translate(1261.397 -166.364)"/><path class="a" d="M1.5,13.5H4.1" transform="translate(1252.5 -167.955)"/><path class="a" d="M1.5,21H4.1" transform="translate(1252.5 -166.364)"/><path class="b" d="M957.355,467.651h-1.226a.371.371,0,0,1-.237-.075.328.328,0,0,1-.037-.236v-2.453s-.031-.173.037-.251.237-.06.237-.06h1.226V463.9h-2.306v4.411h2.306Z" transform="translate(314.608 -615.04)"/><path class="b" d="M960.016,468.2v-4.539h2.178v2.819H960.73V468.2Z" transform="translate(312.831 -614.933)"/><path class="b" d="M965.349,463.9h-.769v3.533a1.293,1.293,0,0,0,.351.7,1.22,1.22,0,0,0,.748.178,1.135,1.135,0,0,0,.713-.178,1.525,1.525,0,0,0,.4-.7V463.9h-.769v3.533s-.179.256-.348.256-.329-.256-.329-.256Z" transform="translate(311.238 -615.168)"/><path class="c" d="M961.258,465.341h.75v1.135h-.75Z" transform="translate(312.267 -615.696)"/></g></svg>