<svg xmlns="http://www.w3.org/2000/svg" xmlns:xlink="http://www.w3.org/1999/xlink" width="24" height="24" viewBox="0 0 24 24"><defs><style>.a{fill:#fff;stroke:#707070;}.b{clip-path:url(#a);}.c{fill:#6c6c76;}</style><clipPath id="a"><rect class="a" width="24" height="24"/></clipPath></defs><g class="b"><g transform="translate(24 -7) rotate(90)"><g transform="translate(12.473)"><path class="c" d="M23.266,8.722a2.069,2.069,0,1,0-2.07,2.07A2.072,2.072,0,0,0,23.266,8.722ZM21.2,10.03A1.308,1.308,0,1,1,22.5,8.722,1.31,1.31,0,0,1,21.2,10.03Z" transform="translate(-15.357 -2.803)"/><path class="c" d="M19.985,11.429a5.841,5.841,0,1,0-3.607-.086V24h3.607V22.671h3.99V19.284h-3.99v-.545h3.99V15.353h-3.99V11.429Zm3.051,4.863V17.8h-3.99v2.422h3.99v1.509h-3.99v1.329H17.317V10.645l-.341-.1a4.9,4.9,0,1,1,2.434.061l-.364.084v5.6Z" transform="translate(-12.473)"/></g></g></g></svg>