<svg xmlns="http://www.w3.org/2000/svg" width="13.896" height="20.213" viewBox="0 0 13.896 20.213"><defs><style>.a{fill:#5f5f64;}</style></defs><path class="a" d="M3.792,17.937a1.264,1.264,0,0,0,.212.7l.675,1.014a1.263,1.263,0,0,0,1.052.564H8.167a1.263,1.263,0,0,0,1.052-.564l.675-1.014a1.263,1.263,0,0,0,.212-.7l0-1.514H3.79l0,1.514ZM0,6.948a6.91,6.91,0,0,0,1.72,4.571,11.345,11.345,0,0,1,2.061,3.61l0,.031h6.326l0-.031a11.345,11.345,0,0,1,2.061-3.61A6.947,6.947,0,1,0,0,6.948ZM6.948,3.79A3.162,3.162,0,0,0,3.79,6.948a.632.632,0,1,1-1.263,0A4.426,4.426,0,0,1,6.948,2.527a.632.632,0,0,1,0,1.263Z"/></svg>