<svg xmlns="http://www.w3.org/2000/svg" xmlns:xlink="http://www.w3.org/1999/xlink" width="24" height="24" viewBox="0 0 24 24"><defs><style>.a{fill:#fff;stroke:#707070;}.b{clip-path:url(#a);}.c{fill:#6c6c76;}</style><clipPath id="a"><rect class="a" width="24" height="24"/></clipPath></defs><g class="b"><g transform="translate(-143.989)"><path class="c" d="M146.569,24h18.839c1.416,0,2.569-.769,2.569-1.714V10.857c0-.945-1.153-1.714-2.569-1.714h-.856V5.714c0-3.151-3.842-5.714-8.563-5.714s-8.563,2.563-8.563,5.714V9.143h-.856c-1.417,0-2.569.769-2.569,1.714V22.286C144,23.231,145.153,24,146.569,24Zm2.569-18.286c0-2.521,3.073-4.571,6.851-4.571s6.851,2.051,6.851,4.571V9.143h-1.713V5.714c0-1.89-2.3-3.429-5.138-3.429s-5.138,1.538-5.138,3.429V9.143h-1.713Zm10.276,3.429h-6.851V5.714c0-1.26,1.537-2.286,3.425-2.286s3.425,1.025,3.425,2.286Zm-13.7,1.714c0-.315.384-.571.856-.571h18.839c.472,0,.856.256.856.571V22.286c0,.315-.384.571-.856.571H146.569c-.472,0-.856-.256-.856-.571Z"/><path class="c" d="M217.725,181.124v1.143c0,.945,1.153,1.714,2.569,1.714s2.569-.769,2.569-1.714v-1.142a2.6,2.6,0,0,0,1.7-2.49c-.249-2.385-4.564-3.525-7.194-1.885C215.429,177.962,215.592,180.053,217.725,181.124Zm.816-3.539c1.58-.985,4.167-.3,4.316,1.129.069.661-.421,1.278-1.279,1.609a.579.579,0,0,0-.427.495v1.449c0,.315-.384.571-.856.571s-.856-.256-.856-.571v-1.449a.579.579,0,0,0-.428-.495C217.535,179.754,217.265,178.381,218.54,177.586Z" transform="translate(-64.305 -163.41)"/></g></g></svg>