<svg xmlns="http://www.w3.org/2000/svg" xmlns:xlink="http://www.w3.org/1999/xlink" width="58" height="66" viewBox="0 0 58 66"><defs><style>.a,.c,.d{fill:#fff;}.a{stroke:#707070;}.b{clip-path:url(#a);}.c{font-size:14px;font-family:NotoSerif-Bold, Noto Serif;font-weight:700;letter-spacing:-0.048em;}.e{fill:none;stroke:#fff;stroke-width:0.25px;}</style><clipPath id="a"><rect class="a" width="58" height="66" transform="translate(1234 3)"/></clipPath></defs><g class="b" transform="translate(-1234 -3)"><g transform="translate(847 -640)"><text class="c" transform="translate(385 693)"><tspan x="-17.584" y="15">FA</tspan></text><text class="c" transform="translate(387 693)"><tspan x="-44.548" y="15">CECUP</tspan></text></g><g transform="translate(928.384 -449.263)"><g transform="translate(321.131 482.144)"><g transform="translate(0 0)"><path class="d" d="M80.637,150.873a8.311,8.311,0,0,1-.436,2.676l-.543,1.6H77.851a3.366,3.366,0,0,0-3.362,3.362v1.627H71.662a1.449,1.449,0,0,0-1.447,1.447v3.649a1.449,1.449,0,0,0,1.447,1.447H95.409a1.449,1.449,0,0,0,1.447-1.447v-3.649a1.449,1.449,0,0,0-1.447-1.447H92.582v-1.627a3.366,3.366,0,0,0-3.362-3.362H87.414l-.543-1.6a8.307,8.307,0,0,1-.437-2.676C86.434,149.365,80.637,149.364,80.637,150.873ZM95.3,161.691v3.436H71.769v-3.436ZM89.22,156.7a1.811,1.811,0,0,1,1.808,1.809v1.627H76.043v-1.627a1.811,1.811,0,0,1,1.808-1.809ZM85.4,154.048l.373,1.1H81.3l.374-1.1a9.86,9.86,0,0,0,.519-3.175c0-1.528,2.69-1.528,2.69,0a9.861,9.861,0,0,0,.519,3.175Z" transform="translate(-70.215 -149.727)"/></g></g><path class="d" d="M360.256,512.28l-.449-2,2.435-.226,2.469-4.625,2.19-2.4.717-2.494-.358-1.179-.358-.725-.319-6.03-.358-.907-.368-3.059-.139-.159-.834-.448-1.155-.565-1.082-.27-2.188-.393h-1.942l-2.065.393-2.335,1.008-2.637,1.625-.863,1.493-.471,1.282v5.558l-.33.912-.448.885v.579l.448,2.224,1.979,2.307.448.365.683,1.245,1.866,3.034,2.009.722-.364,1.849-.605.529-2.363-2.379-2.542-3.246-.59-.8-1.794-2.9-1.465-1.533-.256-2.282a5.764,5.764,0,0,1,.479-.863c.319-.479.8-1.054.8-1.054l.22-4.225.831-3.707,1.779-2.632,1.832-1.138L356,484.838l2.3-.479,4.154.479,2.255.548,1.872,1.262,1.4,1.13.342,1.874.218,1.321v2.141l.383,2.3.176,2.742.758.912.32,2.424a6.876,6.876,0,0,1-.639,1.265,4.613,4.613,0,0,1-1.214,1.132l-1.067,1.541-1.4,1.754-.974,2-.707,1.243-3.333,2.227Z" transform="translate(-23.929 -27.977)"/><g transform="translate(316.616 452.263)"><path class="d" d="M321.208,281.659h-4.59v4.309h-1.593V280.16h6.183Z" transform="translate(-314.932 -280.16)"/><path class="d" d="M6.183,1.5H1.593V5.808H0V0H6.183Z" transform="translate(36.286 36.324) rotate(180)"/><path class="d" d="M6.183,1.5H1.593V5.808H0V0H6.183Z" transform="translate(36.203 0.027) rotate(90)"/><path class="d" d="M6.183,1.5H1.593V5.808H0V0H6.183Z" transform="translate(0 36.22) rotate(-90)"/></g><g transform="translate(325.614 458.742)"><line class="e" x1="9.032" y2="4.37" transform="translate(1.165)"/><line class="e" x1="5.827" y1="18.938" transform="translate(1.311 4.37)"/><line class="e" x1="3.205" y2="23.309" transform="translate(6.847)"/><line class="e" x1="9.615" y1="3.496" transform="translate(3.205 19.812)"/><line class="e" x1="11.946" y2="0.874" transform="translate(3.205 18.938)"/><line class="e" x1="2.622" y1="23.309" transform="translate(10.197)"/><line class="e" x1="2.039" y2="7.284" transform="translate(15.151 11.654)"/><line class="e" x1="13.402" y1="9.615" transform="translate(0.583 11.654)"/><line class="e" y1="6.118" x2="17.19" transform="translate(0 7.867)"/><line class="e" x1="16.316" y2="12.237" transform="translate(0 1.748)"/><line class="e" x2="15.733" y2="3.496" transform="translate(1.457 4.37)"/><line class="e" x2="16.316" y2="0.291" transform="translate(0.583 11.363)"/><line class="e" y1="7.867" x2="13.694" transform="translate(3.496 11.654)"/><line class="e" x1="15.151" y2="2.622" transform="translate(1.165 1.748)"/><line class="e" y1="2.331" x2="17.19" transform="translate(0 11.654)"/><line class="e" x2="3.496" y2="3.205" transform="translate(1.165 4.079)"/><line class="e" y1="4.079" x2="3.788" transform="translate(0.874 7.284)"/><line class="e" x2="13.111" y2="0.874" transform="translate(4.953 7.284)"/><line class="e" x1="5.244" y2="6.993" transform="translate(4.662 0.291)"/><line class="e" x1="7.575" y2="5.244" transform="translate(3.205 14.276)"/><line class="e" x1="10.78" y1="0.291" transform="translate(0 13.839)"/><line class="e" y1="2.622" x2="6.41" transform="translate(10.78 11.654)"/><line class="e" x1="4.079" y1="4.37" transform="translate(11.072 14.276)"/><line class="e" y1="2.039" x2="6.993" transform="translate(6.993 20.978)"/><line class="e" x1="3.496" y2="8.741" transform="translate(7.284 14.276)"/><line class="e" x1="5.827" y2="6.118" transform="translate(11.072 7.867)"/><line class="e" x2="6.118" y2="6.993" transform="translate(4.953 7.284)"/></g><g transform="translate(325.468 458.596)"><circle class="d" cx="0.291" cy="0.291" r="0.291" transform="translate(9.906)"/><circle class="d" cx="0.291" cy="0.291" r="0.291" transform="translate(16.025 1.748)"/><circle class="d" cx="0.291" cy="0.291" r="0.291" transform="translate(16.899 11.654)"/><circle class="d" cx="0.291" cy="0.291" r="0.291" transform="translate(14.859 18.647)"/><circle class="d" cx="0.291" cy="0.291" r="0.291" transform="translate(12.528 23.017)"/><circle class="d" cx="0.291" cy="0.291" r="0.291" transform="translate(13.694 20.978)"/><circle class="d" cx="0.291" cy="0.291" r="0.291" transform="translate(6.993 23.017)"/><circle class="d" cx="0.291" cy="0.291" r="0.291" transform="translate(3.205 19.521)"/><circle class="d" cx="0.291" cy="0.291" r="0.291" transform="translate(0 13.694)"/><circle class="d" cx="0.291" cy="0.291" r="0.291" transform="translate(0.583 11.363)"/><circle class="d" cx="0.291" cy="0.291" r="0.291" transform="translate(1.165 4.079)"/><circle class="d" cx="0.291" cy="0.291" r="0.291" transform="translate(4.662 6.993)"/><circle class="d" cx="0.291" cy="0.291" r="0.291" transform="translate(10.78 13.985)"/><circle class="d" cx="0.291" cy="0.291" r="0.291" transform="translate(16.899 7.867)"/></g></g></g></svg>