<svg xmlns="http://www.w3.org/2000/svg" xmlns:xlink="http://www.w3.org/1999/xlink" width="24" height="24" viewBox="0 0 24 24"><defs><style>.a{fill:#fff;stroke:#707070;}.b{clip-path:url(#a);}.c,.d,.e{fill:none;stroke:#6c6c76;}.c{stroke-width:1.5px;}.d{stroke-linejoin:round;}.e{stroke-width:0.5px;}</style><clipPath id="a"><rect class="a" width="24" height="24"/></clipPath></defs><g class="b"><g transform="translate(5.744 0.488)"><path class="c" d="M850.245,177.408h-4.838a3.659,3.659,0,0,1-1.335-.945,3.557,3.557,0,0,1-.612-1.5V156.556a5.577,5.577,0,0,1,.945-1.724,1.546,1.546,0,0,1,1.223-.445h9.119a3.651,3.651,0,0,1,1.5.778,2.607,2.607,0,0,1,.612,1.39v18.405a3.027,3.027,0,0,1-.612,1.5,4.023,4.023,0,0,1-1.5.945Z" transform="translate(-843.461 -154.38)"/><path class="d" d="M845.555,157.818h9.453v14.735h-9.453Z" transform="translate(-843.553 -154.531)"/><path class="e" d="M850.373,174.137a1.681,1.681,0,0,0-1.552,1.616,1.7,1.7,0,0,0,1.552,1.635,1.722,1.722,0,0,0,1.577-1.635A1.7,1.7,0,0,0,850.373,174.137Z" transform="translate(-843.696 -155.245)"/></g></g></svg>