<svg xmlns="http://www.w3.org/2000/svg" width="13.893" height="20.214" viewBox="0 0 13.893 20.214"><defs><style>.a{fill:#ffaa4c;}</style></defs><path class="a" d="M8.765,0A7.649,7.649,0,0,0,1.97,3.594a.949.949,0,0,0,.2,1.3l1.7,1.291a.947.947,0,0,0,1.313-.164C6.179,4.78,6.913,4.067,8.458,4.067c1.215,0,2.717.782,2.717,1.959,0,.89-.735,1.348-1.934,2.02-1.4.784-3.249,1.76-3.249,4.2v.386a.947.947,0,0,0,.948.948H9.8a.947.947,0,0,0,.948-.948v-.228c0-1.692,4.946-1.763,4.946-6.341C15.693,2.616,12.116,0,8.765,0Zm-.4,14.744A2.735,2.735,0,1,0,11.1,17.479,2.738,2.738,0,0,0,8.369,14.744Z" transform="translate(-1.8)"/></svg>