<svg xmlns="http://www.w3.org/2000/svg" width="40" height="40" viewBox="0 0 40 40"><defs><style>.a{fill:none;}</style></defs><g transform="translate(-941 164)"><g transform="translate(-53 14.382)"><path d="M180.129,93.2h-3.075a.408.408,0,0,1-.4-.414V65.715a.408.408,0,0,1,.4-.414h3.068a.574.574,0,0,0,0-1.147h-3.068a1.54,1.54,0,0,0-1.516,1.56V92.787a1.54,1.54,0,0,0,1.516,1.56h3.075a.574.574,0,0,0,0-1.147Z" transform="translate(1093.251 -340.164) rotate(90)"/><path d="M269.271,64.156h-3.363a.574.574,0,0,0,0,1.147h3.363a.408.408,0,0,1,.4.414V92.788a.408.408,0,0,1-.4.414h-3.356a.574.574,0,0,0,0,1.147h3.356a1.54,1.54,0,0,0,1.516-1.56V65.716A1.54,1.54,0,0,0,269.271,64.156Z" transform="translate(1093.252 -422.927) rotate(90)"/><path d="M74.834,15.45a1.7,1.7,0,0,0,1.694-1.694V12.248a1.7,1.7,0,0,0-1.694-1.694H71.208v-2.1h3.626a1.7,1.7,0,0,0,1.694-1.694V5.249a1.7,1.7,0,0,0-1.694-1.694H71.208V2.208A2.21,2.21,0,0,0,69,0H50.819a2.21,2.21,0,0,0-2.208,2.208V3.555H44.986a1.7,1.7,0,0,0-1.694,1.694V6.757a1.7,1.7,0,0,0,1.694,1.694h3.626v2.1H44.986a1.7,1.7,0,0,0-1.694,1.694v1.508a1.7,1.7,0,0,0,1.694,1.694h3.626v2.1H44.986a1.7,1.7,0,0,0-1.694,1.694v1.508a1.7,1.7,0,0,0,1.694,1.694h3.626v2.1H44.986a1.7,1.7,0,0,0-1.694,1.694v1.508a1.7,1.7,0,0,0,1.694,1.694h3.626v2.1H44.986a1.7,1.7,0,0,0-1.694,1.694v1.508a1.7,1.7,0,0,0,1.694,1.694h3.626v1.348A2.21,2.21,0,0,0,50.819,40H69a2.21,2.21,0,0,0,2.208-2.208V36.445h3.626a1.7,1.7,0,0,0,1.694-1.694V33.243a1.7,1.7,0,0,0-1.694-1.694H71.208v-2.1h3.626a1.7,1.7,0,0,0,1.694-1.694V26.244a1.7,1.7,0,0,0-1.694-1.694H71.208v-2.1h3.626a1.7,1.7,0,0,0,1.694-1.694V19.246a1.7,1.7,0,0,0-1.694-1.694H71.208v-2.1ZM71.208,4.694h3.626a.556.556,0,0,1,.555.555V6.757a.556.556,0,0,1-.555.555H71.208Zm0,7h3.626a.556.556,0,0,1,.555.555v1.508a.556.556,0,0,1-.555.555H71.208Zm-22.6,23.614H44.986a.556.556,0,0,1-.555-.555V33.243a.556.556,0,0,1,.555-.555h3.626v2.619Zm0-7H44.986a.556.556,0,0,1-.555-.555V26.244a.556.556,0,0,1,.555-.555h3.626v2.619Zm0-7H44.986a.556.556,0,0,1-.555-.555V19.246a.556.556,0,0,1,.555-.555h3.626v2.619Zm0-7H44.986a.556.556,0,0,1-.555-.555V12.248a.556.556,0,0,1,.555-.555h3.626v2.619Zm0-7H44.986a.556.556,0,0,1-.555-.555V5.249a.556.556,0,0,1,.555-.555h3.626V7.313Zm21.458,30.48A1.07,1.07,0,0,1,69,38.861H50.819a1.07,1.07,0,0,1-1.069-1.069V2.208a1.07,1.07,0,0,1,1.069-1.069H69a1.07,1.07,0,0,1,1.069,1.069Zm4.764-5.1a.556.556,0,0,1,.555.555v1.508a.556.556,0,0,1-.555.555H71.208V32.687Zm0-7a.556.556,0,0,1,.555.555v1.508a.556.556,0,0,1-.555.555H71.208V25.689Zm0-7a.556.556,0,0,1,.555.555v1.508a.556.556,0,0,1-.555.555H71.208V18.691Z" transform="translate(1034 -218.292) rotate(90)"/><path d="M228.88,293.845a.293.293,0,0,0,.222-.284v-.433a.293.293,0,0,0-.385-.278q-.892.3-2.083.671a1.177,1.177,0,0,0-.2-.315,1,1,0,0,0-.242-.2,1.132,1.132,0,0,0-.284-.112,1.834,1.834,0,0,0-.285-.052q-.125-.011-.284-.011a1.578,1.578,0,0,0-.628.113.971.971,0,0,0-.417.332,1.5,1.5,0,0,0-.227.509,2.806,2.806,0,0,0-.072.674v.83a.293.293,0,0,0,.293.293h4.519a.293.293,0,0,0,.293-.293v-.446a.293.293,0,0,0-.293-.293h-2.058v-.17Zm-2.759.7h-1.367V294.2a.249.249,0,0,1,.075-.183.429.429,0,0,1,.193-.108,1.592,1.592,0,0,1,.214-.045,1.43,1.43,0,0,1,.187-.013,1.278,1.278,0,0,1,.193.016,1.52,1.52,0,0,1,.224.054.456.456,0,0,1,.2.123.289.289,0,0,1,.079.2Z" transform="translate(1303.912 -384.823) rotate(90)"/><path d="M228.909,246.471a.24.24,0,0,0,.194-.235v-.524a.239.239,0,0,0-.29-.234l-4.626,1a.24.24,0,0,0-.189.234v.527a.239.239,0,0,0,.189.234l4.626,1a.24.24,0,0,0,.29-.234v-.527a.24.24,0,0,0-.2-.236l-.9-.163v-.667Zm-1.533.768-1.895-.269,1.895-.258Z" transform="translate(1260.26 -384.824) rotate(90)"/><path d="M228.926,191.3l-3.437-.022,3.466-.6a.177.177,0,0,0,.147-.175v-.47a.177.177,0,0,0-.15-.175q-.559-.088-1.646-.274-1.242-.213-1.8-.3l3.414-.022a.178.178,0,0,0,.176-.177v-.406a.177.177,0,0,0-.177-.177h-4.75a.177.177,0,0,0-.177.177v.867a.177.177,0,0,0,.147.175l3.256.562-3.254.521a.177.177,0,0,0-.149.175v.908a.177.177,0,0,0,.177.177h4.75a.178.178,0,0,0,.178-.177v-.409A.177.177,0,0,0,228.926,191.3Z" transform="translate(1207.742 -384.823) rotate(90)"/></g><rect class="a" width="40" height="40" transform="translate(941 -164)"/></g></svg>