<svg xmlns="http://www.w3.org/2000/svg" width="36" height="36" viewBox="0 0 36 36">
  <defs>
    <style>
      .cls-1, .cls-4 {
        fill: none;
      }

      .cls-1 {
        stroke: #ececec;
        stroke-width: 2px;
        stroke-dasharray: 1 1000;
        opacity: 0;
      }

      .cls-2 {
        fill: #ececec;
      }

      .cls-3 {
        stroke: none;
      }
    </style>
  </defs>
  <g id="Group_68" data-name="Group 68" transform="translate(-6245 -1121)">
    <g id="Ellipse_15" data-name="Ellipse 15" class="cls-1" transform="translate(6245 1121)">
      <circle class="cls-3" cx="18" cy="18" r="18"/>
      <circle class="cls-4" cx="18" cy="18" r="17"/>
    </g>
    <path id="Path_2800" data-name="Path 2800" class="cls-2" d="M6.721,2C6.323,2,6,2.46,6,3.027V23.568c0,.567.323,1.027.721,1.027s.721-.46.721-1.027V3.027C7.441,2.46,7.119,2,6.721,2Z" transform="translate(6249.706 1153.728) rotate(-90)"/>
    <path id="Path_2801" data-name="Path 2801" class="cls-2" d="M15.1,11.731h8.84c.61,0,1.105-.321,1.105-.716v-4.3c0-.4-.495-.716-1.105-.716H15.1C14.495,6,14,6.321,14,6.716v4.3C14,11.41,14.495,11.731,15.1,11.731Z" transform="translate(6245.706 1158.767) rotate(-90)"/>
    <path id="Path_2803" data-name="Path 2803" class="cls-2" d="M15.1,11.49h8.84c.61,0,1.1-.307,1.1-.686V6.686c0-.379-.495-.686-1.1-.686H15.1c-.61,0-1.1.307-1.1.686V10.8C14,11.183,14.495,11.49,15.1,11.49Z" transform="translate(6262.811 1158.767) rotate(-90)"/>
    <path id="Path_2802" data-name="Path 2802" class="cls-2" d="M28.785,26H15.137c-.628,0-1.137.365-1.137.816v4.895c0,.451.509.816,1.137.816H28.785c.628,0,1.137-.365,1.137-.816V26.816C29.923,26.365,29.414,26,28.785,26Z" transform="translate(6233.74 1158.767) rotate(-90)"/>
  </g>
</svg>
