<svg xmlns="http://www.w3.org/2000/svg" xmlns:xlink="http://www.w3.org/1999/xlink" width="40" height="40" viewBox="0 0 40 40"><defs><style>.a{fill:#fff;stroke:#707070;}.b{clip-path:url(#a);}.c{fill:#001e6c;fill-rule:evenodd;}</style><clipPath id="a"><rect class="a" width="40" height="40" transform="translate(567 253)"/></clipPath></defs><g class="b" transform="translate(-567 -253)"><g transform="translate(564.5 248.859)"><path class="c" d="M36.822,13.435H30.891V11.42A6.428,6.428,0,0,0,24.456,5H20.544a6.4,6.4,0,0,0-6.477,6.379v2.014H8.136A5.63,5.63,0,0,0,2.5,19.016v4.91a52.706,52.706,0,0,0,7.739,1.595V25.4a3.479,3.479,0,0,1,3.491-3.483h1.977A3.479,3.479,0,0,1,19.2,25.4v.755c1.052.042,2.145.042,3.281.042s2.229,0,3.239-.042V25.4a3.479,3.479,0,0,1,3.491-3.483h1.977A3.479,3.479,0,0,1,34.677,25.4v.168a43.536,43.536,0,0,0,7.739-1.595v-4.91A5.542,5.542,0,0,0,36.822,13.435Zm-17.918,0V11.42a1.6,1.6,0,0,1,1.6-1.595h3.912a1.6,1.6,0,0,1,1.6,1.595v2.014H18.9Z" transform="translate(0)"/><path class="c" d="M34.777,59.58a3.479,3.479,0,0,1-3.491,3.483H29.309a3.479,3.479,0,0,1-3.491-3.483V58.74c-1.052.042-2.145.042-3.239.042-1.136,0-2.229,0-3.281-.042v.839a3.479,3.479,0,0,1-3.491,3.483H13.83a3.479,3.479,0,0,1-3.491-3.483V58.111A56.917,56.917,0,0,1,2.6,56.642V67.176A5.63,5.63,0,0,0,8.236,72.8H36.922a5.63,5.63,0,0,0,5.636-5.624V56.6a51.078,51.078,0,0,1-7.739,1.469V59.58Z" transform="translate(-0.058 -29.861)"/><path class="c" d="M29.9,57.543a.931.931,0,0,0,.923-.923v-4.2A.931.931,0,0,0,29.9,51.5H27.923a.931.931,0,0,0-.923.923v4.2a.931.931,0,0,0,.923.923Z" transform="translate(-14.193 -26.934)"/><path class="c" d="M66.8,57.543a.931.931,0,0,0,.923-.923v-4.2A.931.931,0,0,0,66.8,51.5H64.823a.931.931,0,0,0-.923.923v4.2a.931.931,0,0,0,.923.923Z" transform="translate(-35.568 -26.934)"/></g></g></svg>