<svg xmlns="http://www.w3.org/2000/svg" xmlns:xlink="http://www.w3.org/1999/xlink" width="40" height="40" viewBox="0 0 40 40"><defs><style>.a{fill:#fff;stroke:#707070;}.b{clip-path:url(#a);}.c{fill:#001e6c;}</style><clipPath id="a"><rect class="a" width="40" height="40" transform="translate(936 250)"/></clipPath></defs><g class="b" transform="translate(-936 -250)"><path class="c" d="M42.029,7.962H35.683V6.038A1.543,1.543,0,0,0,34.144,4.5H12.606a1.543,1.543,0,0,0-1.538,1.538V7.962H4.721A1.35,1.35,0,0,0,3.375,9.308h0A15.258,15.258,0,0,0,5.548,18a7.83,7.83,0,0,0,5.413,3.875.79.79,0,0,1,.6.471,10.45,10.45,0,0,0,4.913,5.019,18.541,18.541,0,0,0,4.971,2.077.772.772,0,0,1,.6.75v7.769a.771.771,0,0,1-.769.769H14.962a1.379,1.379,0,0,0-1.385,1.279,1.348,1.348,0,0,0,1.346,1.413H31.808a1.379,1.379,0,0,0,1.385-1.279,1.348,1.348,0,0,0-1.346-1.413H25.5a.771.771,0,0,1-.769-.769V30.2a.772.772,0,0,1,.6-.75A18.994,18.994,0,0,0,30.3,27.375a10.45,10.45,0,0,0,4.913-5.019.77.77,0,0,1,.6-.471,7.83,7.83,0,0,0,5.413-3.875,15.473,15.473,0,0,0,2.154-8.7h0A1.35,1.35,0,0,0,42.029,7.962ZM11.067,18.6a.387.387,0,0,1-.519.365,5.6,5.6,0,0,1-2.942-2.779A10.126,10.126,0,0,1,6.154,11.49a.771.771,0,0,1,.769-.837H10.3a.771.771,0,0,1,.769.769Zm28.077-2.413A5.6,5.6,0,0,1,36.2,18.962a.387.387,0,0,1-.519-.365V11.423a.771.771,0,0,1,.769-.769h3.375a.771.771,0,0,1,.769.837A10.242,10.242,0,0,1,39.144,16.183Z" transform="translate(932.625 245.951)"/></g></svg>