<svg xmlns="http://www.w3.org/2000/svg" xmlns:xlink="http://www.w3.org/1999/xlink" width="40" height="40" viewBox="0 0 40 40"><defs><style>.a{fill:#fff;stroke:#707070;}.b{clip-path:url(#a);}.c{fill:#001e6c;}</style><clipPath id="a"><rect class="a" width="40" height="40" transform="translate(558 250)"/></clipPath></defs><g class="b" transform="translate(-558 -250)"><g transform="translate(555.834 248.858)"><path class="c" d="M17.4,25.7v1.425l4.108,3.186,4.108-3.186V25.7a6.067,6.067,0,0,1-4.108,1.509A6.508,6.508,0,0,1,17.4,25.7Z" transform="translate(-2.348 -4.041)"/><path class="c" d="M17.2,36.469a1.383,1.383,0,0,1-1.258-.755L14.177,32.7,13,30.6c-.419.168-.922.419-1.341.587-2.012.922-4.276,1.844-4.611,2.012-1.174.587-2.85,1.593-3.018,2.85-.168.922-.5,3.773-.838,6.623a2.937,2.937,0,0,0,2.934,3.354h9.809L17.2,36.469Z" transform="translate(0 -4.884)"/><path class="c" d="M32.162,36.233H30.82a1.36,1.36,0,0,1-1.341-.922,1.408,1.408,0,0,1,.335-1.593l1.844-1.844L29.06,30.7c-.252.5-1.174,2.012-1.174,2.1l-1.761,3.018a1.558,1.558,0,0,1-1.258.755H24.7l.335,9.474h7.21a1.554,1.554,0,0,1-.168-.587V36.233Z" transform="translate(-3.55 -4.901)"/><path class="c" d="M22.67,36.409,21.831,34.9l-.838,1.509a1.472,1.472,0,0,1-.335.419L19.4,46.721h3.94l-.5-10.061C22.837,36.577,22.754,36.493,22.67,36.409Z" transform="translate(-2.671 -5.579)"/><path class="c" d="M23.965,35.056l2.934-5.03h0L25.558,28.6l-4.108,3.186L17.341,28.6,16,30.025l2.934,5.03a.559.559,0,0,0,1.006,0l1.593-2.85,1.593,2.85C23.126,35.391,23.713,35.391,23.965,35.056Z" transform="translate(-2.121 -4.523)"/><path class="c" d="M13.708,15.946h0c.168,2.431,1.928,3.437,3.018,4.779a5.592,5.592,0,0,0,7.965,0c1.09-1.341,2.85-2.347,3.018-4.695h0a.983.983,0,0,0,.838-.922c.084-.838,1.174-3.689.168-4.192a.9.9,0,0,0-.922.084c-.5-3.773.838-6.623-3.018-8.048A3.915,3.915,0,0,0,21.84,1.191C20,.939,16.056,1.61,14.211,4.376a3.675,3.675,0,0,0-.587,1.593,14.091,14.091,0,0,0,0,4.276l-.084.671a.876.876,0,0,0-.922-.084c-1.006.5.084,3.354.168,4.192A1.137,1.137,0,0,0,13.708,15.946Z" transform="translate(-1.503 0)"/><path class="c" d="M44.191,33.816l-5.953-5.953a.658.658,0,0,0-.922,0l-5.953,5.953a.639.639,0,0,0,.419,1.09h2.18V44.967a.573.573,0,0,0,.587.587h6.372a.573.573,0,0,0,.587-.587V34.906h2.18A.664.664,0,0,0,44.191,33.816Z" transform="translate(-4.639 -4.412)"/></g></g></svg>