<svg xmlns="http://www.w3.org/2000/svg" width="36" height="36" viewBox="0 0 36 36">
  <defs>
    <style>
      .cls-1, .cls-4 {
        fill: none;
      }

      .cls-1 {
        stroke: #ececec;
        stroke-width: 2px;
        stroke-dasharray: 1 1000;
        opacity: 0;
      }

      .cls-2 {
        fill: #ececec;
      }

      .cls-3 {
        stroke: none;
      }
    </style>
  </defs>
  <g id="Group_69" data-name="Group 69" transform="translate(-6245 -1177)">
    <g id="Ellipse_15" data-name="Ellipse 15" class="cls-1" transform="translate(6245 1177)">
      <circle class="cls-3" cx="18" cy="18" r="18"/>
      <circle class="cls-4" cx="18" cy="18" r="17"/>
    </g>
    <path id="Icon_metro-headphones" data-name="Icon metro-headphones" class="cls-2" d="M19.095,8.977c0-3.893-3.7-7.049-8.262-7.049S2.571,5.084,2.571,8.977a6.118,6.118,0,0,0,.495,2.407,2.735,2.735,0,0,0-.495,1.558,3.291,3.291,0,0,0,3.1,3.052v-6.1a4,4,0,0,0-1.416.446A4.936,4.936,0,0,1,4.12,9.2c0-3.163,3.006-5.727,6.713-5.727S17.546,6.034,17.546,9.2a4.941,4.941,0,0,1-.133,1.138A4,4,0,0,0,16,9.889v6.1a3.291,3.291,0,0,0,3.1-3.052,2.735,2.735,0,0,0-.495-1.558,6.119,6.119,0,0,0,.495-2.407Z" transform="translate(6252.13 1181.255)"/>
    <path id="support" class="cls-2" d="M14.892,16.46c2.457,0,4.446-3.557,4.446-6.014a4.446,4.446,0,0,0-8.892,0C10.446,12.9,12.436,16.46,14.892,16.46Zm0,.655C11.924,17.115,6,18.6,6,21.562v2.223H23.785V21.562C23.785,18.6,17.86,17.115,14.892,17.115Z" transform="translate(6248.107 1181.615)"/>
  </g>
</svg>
