<svg xmlns="http://www.w3.org/2000/svg" width="36" height="36" viewBox="0 0 36 36">
  <defs>
    <style>
      .cls-1 {
        fill: #ececec;
      }

      .cls-2, .cls-4 {
        fill: none;
      }

      .cls-2 {
        stroke: #ececec;
        stroke-width: 2px;
        stroke-dasharray: 1 1000;
        opacity: 0;
      }

      .cls-3 {
        stroke: none;
      }
    </style>
  </defs>
  <g id="Group_71" data-name="Group 71" transform="translate(-6245 -953)">
    <path id="Icon_zocial-persona" data-name="Icon zocial-persona" class="cls-1" d="M19.027,30.275A85.571,85.571,0,0,1,9,29.915s.392-6.337,3.131-7.476,4.389-1.563,4.358-1.586c.024-.014-.023.013,0,0l.071-1.748a7.944,7.944,0,0,1-2.063-3.58,2.915,2.915,0,0,1-.78-1.932,2.745,2.745,0,0,1,.38-1.374c.162-3.573,2.309-5.937,4.935-5.937s4.774,2.364,4.935,5.937a2.738,2.738,0,0,1,.38,1.374,2.915,2.915,0,0,1-.78,1.932A7.927,7.927,0,0,1,21.507,19.1v1.706c.024.013.047.028.07.042.952.607,1.622.445,4.36,1.586s3.129,7.476,3.129,7.476a86.019,86.019,0,0,1-10.039.36m-2.537-9.422,1.037-.2c-.976,0,1.506,8.588,1.506,9.62l10.033-.487c0,1.033-21.041.127-20.065.127H9l7.489-9.062h0Z" transform="translate(6244.379 952.187)"/>
    <g id="Ellipse_15" data-name="Ellipse 15" class="cls-2" transform="translate(6245 953)">
      <circle class="cls-3" cx="18" cy="18" r="18"/>
      <circle class="cls-4" cx="18" cy="18" r="17"/>
    </g>
  </g>
</svg>
