<svg xmlns="http://www.w3.org/2000/svg" xmlns:xlink="http://www.w3.org/1999/xlink" width="24" height="24" viewBox="0 0 24 24"><defs><style>.a{fill:#fff;stroke:#707070;}.b{clip-path:url(#a);}.c,.d{fill:#6c6c76;}.d{font-size:3px;font-family:NotoSerif-Bold, Noto Serif;font-weight:700;letter-spacing:-0.048em;}</style><clipPath id="a"><rect class="a" width="24" height="24"/></clipPath></defs><g class="b"><g transform="translate(0 1.677)"><path class="c" d="M21.24,60.66H2.749A2.751,2.751,0,0,1,0,57.911V45.417a2.751,2.751,0,0,1,2.749-2.749h6a.75.75,0,1,1,0,1.5h-6A1.251,1.251,0,0,0,1.5,45.417V57.911A1.251,1.251,0,0,0,2.749,59.16H21.24a1.251,1.251,0,0,0,1.249-1.249V45.417a1.251,1.251,0,0,0-1.249-1.249h-6a.75.75,0,1,1,0-1.5h6a2.751,2.751,0,0,1,2.749,2.749V57.911A2.751,2.751,0,0,1,21.24,60.66Zm0,0" transform="translate(0 -40.669)"/><path class="c" d="M176.915,5.5h-4.5a1.751,1.751,0,0,1-1.749-1.749v-2A1.751,1.751,0,0,1,172.417,0h4.5a1.751,1.751,0,0,1,1.749,1.749v2A1.751,1.751,0,0,1,176.915,5.5Zm-4.5-4a.25.25,0,0,0-.25.25v2a.25.25,0,0,0,.25.25h4.5a.25.25,0,0,0,.25-.25v-2a.25.25,0,0,0-.25-.25Zm0,0" transform="translate(-162.672)"/><path class="c" d="M109.167,154.33a2.5,2.5,0,1,1,2.5-2.5A2.5,2.5,0,0,1,109.167,154.33Zm0-3.5a1,1,0,1,0,1,1A1,1,0,0,0,109.167,150.831Zm0,0" transform="translate(-101.67 -142.335)"/><path class="c" d="M72.246,281.33a.75.75,0,0,1-.75-.75v-.5a1.251,1.251,0,0,0-1.249-1.249h-3.5a1.251,1.251,0,0,0-1.249,1.249v.5a.75.75,0,1,1-1.5,0v-.5a2.751,2.751,0,0,1,2.749-2.749h3.5A2.751,2.751,0,0,1,73,280.081v.5A.75.75,0,0,1,72.246,281.33Zm0,0" transform="translate(-61.001 -264.338)"/><path class="c" d="M304.915,161.5h-5.5a.75.75,0,1,1,0-1.5h5.5a.75.75,0,0,1,0,1.5Zm0,0" transform="translate(-284.674 -152.503)"/><path class="c" d="M304.915,246.831h-5.5a.75.75,0,1,1,0-1.5h5.5a.75.75,0,0,1,0,1.5Zm0,0" transform="translate(-284.674 -233.837)"/><path class="c" d="M304.915,332.167h-5.5a.75.75,0,0,1,0-1.5h5.5a.75.75,0,0,1,0,1.5Zm0,0" transform="translate(-284.674 -315.175)"/><text class="d" transform="translate(13.994 3.823)"><tspan x="-4.179" y="0">EN</tspan></text></g></g></svg>